{
.appVersion = "3260";
.formatVersion = 3;
axes = (
{
name = Weight;
tag = wght;
}
);
classes = (
{
automatic = 1;

glyphs = (
{
glyphname = A;
kernLeft = A;
kernRight = A;
lastChange = "2021-06-26 17:45:56 +0000";
layers = (
{
anchors = (
{
name = bottom;
pos = (346,0);
},
{
name = ogonek;
pos = (677,0);
},
{
name = top;
pos = (346,752);
}
);
layerId = "438E98ED-2DA7-4574-8792-8200075D96E5";
shapes = (
{
closed = 1;
nodes = (
(669,0,l),
(393,752,l),
(300,752,l),
(569,0,l)
);
},
{
closed = 1;
nodes = (
(527,193,l),
(527,276,l),
(158,276,l),
(158,193,l)
);
},
{
closed = 1;
nodes = (
(122,0,l),
(392,752,l),
(299,752,l),
(23,0,l)
);
}
);
width = 692;
}
);
unicode = 65;
},
{
glyphname = AE;
kernLeft = A;
kernRight = E;
lastChange = "2020-10-14 11:09:53 +0000";
layers = (
{
anchors = (
{
name = bottom;
pos = (520,0);
},
{
name = top;
pos = (520,752);
}
);
layerId = "438E98ED-2DA7-4574-8792-8200075D96E5";
shapes = (
{
closed = 1;
nodes = (
(980,0,l),
(980,90,l),
(580,90,l),
(580,340,l),
(956,340,l),
(956,430,l),
(580,430,l),
(580,661,l),
(977,661,l),
(977,752,l),
(486,752,l),
(486,0,l)
);
},
{
closed = 1;
nodes = (
(560,195,l),
(560,272,l),
(191,272,l),
(191,195,l)
);
},
{
closed = 1;
nodes = (
(120,0,l),
(443,752,l),
(354,752,l),
(23,0,l)
);
},
{
closed = 1;
nodes = (
(677,661,l),
(677,752,l),
(379,752,l),
(379,661,l)
);
}
);
width = 1033;
}
);
metricLeft = A;
metricRight = E;
unicode = 198;
},
{
glyphname = B;
kernLeft = B;
kernRight = B;
lastChange = "2021-06-26 17:46:04 +0000";
layers = (
{
anchors = (
{
name = bottom;
pos = (324,0);
},
{
name = top;
pos = (324,752);
}
);
background = {
shapes = (
{
closed = 1;
nodes = (
(172,0,l),
(172,752,l),
(78,752,l),
(78,0,l)
);
},
{
closed = 1;
nodes = (
(572,0,l),
(572,90,l),
(78,90,l),
(78,0,l)
);
},
{
closed = 1;
nodes = (
(546,340,l),
(546,430,l),
(78,430,l),
(78,340,l)
);
},
{
closed = 1;
nodes = (
(569,661,l),
(569,752,l),
(78,752,l),
(78,661,l)
);
}
);
};
layerId = "438E98ED-2DA7-4574-8792-8200075D96E5";
shapes = (
{
closed = 1;
nodes = (
(380,0,ls),
(495,0,o),
(601,63,o),
(601,209,cs),
(601,330,o),
(533,382,o),
(482,388,c),
(506,388,o),
(583,430,o),
(583,556,cs),
(583,685,o),
(493,752,o),
(353,752,cs),
(78,752,l),
(78,0,l)
);
},
{
closed = 1;
nodes = (
(172,342,l),
(363,342,ls),
(451,342,o),
(506,314,o),
(506,209,cs),
(506,115,o),
(450,90,o),
(366,90,cs),
(172,90,l)
);
},
{
closed = 1;
nodes = (
(172,663,l),
(358,663,ls),
(421,663,o),
(489,647,o),
(489,555,cs),
(489,457,o),
(439,432,o),
(360,432,cs),
(172,432,l)
);
}
);
width = 642;
}
);
unicode = 66;
},
{
glyphname = C;
kernLeft = C;
kernRight = C;
lastChange = "2021-06-26 17:46:09 +0000";
layers = (
{
anchors = (
{
name = bottom;
pos = (403,-11);
},
{
name = top;
pos = (401,772);
}
);
background = {
shapes = (
{
closed = 0;
nodes = (
(653,78,l),
(582,148,l)
);
},
{
closed = 0;
nodes = (
(582,609,l),
(653,679,l)
);
},
{
closed = 1;
nodes = (
(653,-14,o),
(750,164,o),
(750,379,cs),
(750,594,o),
(653,772,o),
(401,772,cs),
(149,772,o),
(52,594,o),
(52,379,cs),
(52,164,o),
(149,-14,o),
(401,-14,cs)
);
},
{
closed = 1;
nodes = (
(217,76,o),
(148,197,o),
(148,379,cs),
(148,560,o),
(217,683,o),
(401,683,cs),
(586,683,o),
(654,560,o),
(654,379,cs),
(654,207,o),
(586,76,o),
(401,76,cs)
);
}
);
};
layerId = "438E98ED-2DA7-4574-8792-8200075D96E5";
shapes = (
{
closed = 1;
nodes = (
(515,-14,o),
(606,26,o),
(662,83,c),
(594,151,l),
(553,105,o),
(480,75,o),
(401,75,cs),
(217,75,o),
(147,197,o),
(147,379,cs),
(147,560,o),
(217,683,o),
(401,683,cs),
(490,683,o),
(543,656,o),
(584,610,c),
(655,680,l),
(599,737,o),
(515,772,o),
(401,772,cs),
(149,772,o),
(52,594,o),
(52,379,cs),
(52,164,o),
(149,-14,o),
(401,-14,cs)
);
}
);
width = 706;
}
);
unicode = 67;
},
{
glyphname = D;
kernLeft = B;
kernRight = D;
lastChange = "2020-10-14 10:44:30 +0000";
layers = (
{
anchors = (
{
name = bottom;
pos = (354,0);
},
{
name = center;
pos = (354,376);
},
{
name = top;
pos = (344,752);
}
);
background = {
shapes = (
{
closed = 1;
nodes = (
(562,-14,o),
(659,164,o),
(659,379,cs),
(659,594,o),
(562,772,o),
(310,772,cs),
(58,772,o),
(-39,594,o),
(-39,379,cs),
(-39,164,o),
(58,-14,o),
(310,-14,cs)
);
},
{
closed = 1;
nodes = (
(126,76,o),
(57,197,o),
(57,379,cs),
(57,560,o),
(126,683,o),
(310,683,cs),
(495,683,o),
(563,560,o),
(563,379,cs),
(563,207,o),
(495,76,o),
(310,76,cs)
);
}
);
};
layerId = "438E98ED-2DA7-4574-8792-8200075D96E5";
shapes = (
{
closed = 1;
nodes = (
(294,0,ls),
(522,0,o),
(658,90,o),
(658,389,cs),
(658,672,o),
(520,752,o),
(294,752,cs),
(78,752,l),
(78,0,l)
);
},
{
closed = 1;
nodes = (
(172,662,l),
(294,662,ls),
(484,662,o),
(562,591,o),
(562,389,cs),
(562,167,o),
(485,90,o),
(294,90,cs),
(172,90,l)
);
}
);
width = 708;
}
);
unicode = 68;
},
{
glyphname = Eth;
kernLeft = Eth;
kernRight = D;
lastChange = "2021-06-26 17:46:19 +0000";
layers = (
{
layerId = "438E98ED-2DA7-4574-8792-8200075D96E5";
shapes = (
{
closed = 1;
nodes = (
(314,0,ls),
(542,0,o),
(678,90,o),
(678,389,cs),
(678,672,o),
(540,752,o),
(314,752,cs),
(98,752,l),
(98,0,l)
);
},
{
closed = 1;
nodes = (
(192,662,l),
(314,662,ls),
(504,662,o),
(582,591,o),
(582,389,cs),
(582,167,o),
(505,90,o),
(314,90,cs),
(192,90,l)
);
},
{
closed = 1;
nodes = (
(2,336,l),
(326,336,l),
(326,423,l),
(2,423,l)
);
}
);
width = 728;
}
);
metricRight = D;
unicode = 208;
},
{
glyphname = E;
kernLeft = B;
kernRight = E;
lastChange = "2020-07-24 08:32:15 +0000";
layers = (
{
anchors = (
{
name = bottom;
pos = (313,0);
},
{
name = ogonek;
pos = (391,0);
},
{
name = top;
pos = (313,752);
},
{
name = topleft;
pos = (20,752);
}
);
layerId = "438E98ED-2DA7-4574-8792-8200075D96E5";
shapes = (
{
closed = 1;
nodes = (
(172,0,l),
(172,752,l),
(78,752,l),
(78,0,l)
);
},
{
closed = 1;
nodes = (
(572,0,l),
(572,90,l),
(78,90,l),
(78,0,l)
);
},
{
closed = 1;
nodes = (
(546,340,l),
(546,430,l),
(78,430,l),
(78,340,l)
);
},
{
closed = 1;
nodes = (
(569,661,l),
(569,752,l),
(78,752,l),
(78,661,l)
);
}
);
width = 625;
}
);
unicode = 69;
},
{
glyphname = F;
kernLeft = B;
kernRight = F;
lastChange = "2020-07-24 07:23:00 +0000";
layers = (
{
anchors = (
{
name = bottom;
pos = (310,0);
},
{
name = top;
pos = (310,752);
}
);
layerId = "438E98ED-2DA7-4574-8792-8200075D96E5";
shapes = (
{
closed = 1;
nodes = (
(172,0,l),
(172,340,l),
(540,340,l),
(540,430,l),
(172,430,l),
(172,661,l),
(568,661,l),
(568,752,l),
(78,752,l),
(78,0,l)
);
}
);
width = 607;
}
);
unicode = 70;
},
{
glyphname = G;
kernLeft = C;
kernRight = G;
lastChange = "2020-10-14 11:17:41 +0000";
layers = (
{
anchors = (
{
name = bottom;
pos = (398,-12);
},
{
name = top;
pos = (406,752);
}
);
background = {
shapes = (
{
closed = 1;
nodes = (
(653,-14,o),
(750,164,o),
(750,379,cs),
(750,594,o),
(653,772,o),
(401,772,cs),
(149,772,o),
(52,594,o),
(52,379,cs),
(52,164,o),
(149,-14,o),
(401,-14,cs)
);
},
{
closed = 1;
nodes = (
(217,76,o),
(148,197,o),
(148,379,cs),
(148,560,o),
(217,683,o),
(401,683,cs),
(586,683,o),
(654,560,o),
(654,379,cs),
(654,207,o),
(586,76,o),
(401,76,cs)
);
}
);
};
layerId = "438E98ED-2DA7-4574-8792-8200075D96E5";
shapes = (
{
closed = 1;
nodes = (
(653,-14,o),
(749,140,o),
(749,335,c),
(749,376,o),
(749,394,o),
(748,425,c),
(396,425,l),
(396,335,l),
(652,335,l),
(652,183,o),
(591,76,o),
(401,76,cs),
(212,76,o),
(147,202,o),
(147,379,cs),
(147,555,o),
(212,683,o),
(401,683,cs),
(540,683,o),
(609,625,o),
(635,555,c),
(736,555,l),
(716,620,o),
(655,772,o),
(401,772,cs),
(149,772,o),
(52,594,o),
(52,379,cs),
(52,164,o),
(149,-14,o),
(401,-14,cs)
);
}
);
width = 812;
}
);
unicode = 71;
},
{
glyphname = H;
kernLeft = B;
kernRight = H;
lastChange = "2021-06-11 14:58:11 +0000";
layers = (
{
anchors = (
{
name = bottom;
pos = (371,0);
},
{
name = center;
pos = (371,376);
},
{
name = top;
pos = (371,752);
},
{
name = topleft;
pos = (78,752);
}
);
hints = (
{
horizontal = 1;
origin = (0,1);
target = (0,8);
type = Stem;
},
{
origin = (0,11);
target = (0,0);
type = Stem;
},
{
origin = (0,3);
target = (0,4);
type = Stem;
}
);
layerId = "438E98ED-2DA7-4574-8792-8200075D96E5";
shapes = (
{
closed = 1;
nodes = (
(172,0,l),
(172,341,l),
(570,341,l),
(570,0,l),
(664,0,l),
(664,752,l),
(570,752,l),
(570,431,l),
(172,431,l),
(172,752,l),
(78,752,l),
(78,0,l)
);
}
);
width = 742;
}
);
unicode = 72;
},
{
glyphname = Hbar;
kernLeft = B;
kernRight = H;
lastChange = "2020-03-11 03:38:39 +0000";
layers = (
{
layerId = "438E98ED-2DA7-4574-8792-8200075D96E5";
shapes = (
{
closed = 1;
nodes = (
(58,548,l),
(765,548,l),
(765,634,l),
(58,634,l)
);
},
{
pos = (41,0);
ref = H;
}
);
width = 823;
}
);
unicode = 294;
},
{
glyphname = I;
kernLeft = B;
kernRight = H;
lastChange = "2020-07-24 11:07:53 +0000";
layers = (
{
anchors = (
{
name = bottom;
pos = (128,0);
},
{
name = ogonek;
pos = (184,0);
},
{
name = top;
pos = (128,752);
},
{
name = topleft;
pos = (20,752);
}
);
layerId = "438E98ED-2DA7-4574-8792-8200075D96E5";
shapes = (
{
closed = 1;
nodes = (
(178,0,l),
(178,752,l),
(78,752,l),
(78,0,l)
);
}
);
width = 256;
}
);
unicode = 73;
},
{
glyphname = J;
kernLeft = J;
kernRight = J;
lastChange = "2021-06-26 17:46:30 +0000";
layers = (
{
anchors = (
{
name = bottom;
pos = (26,-14);
},
{
name = top;
pos = (205,752);
}
);
background = {
shapes = (
{
closed = 0;
nodes = (
(237,255,ls),
(237,93,o),
(194,74,o),
(121,76,cs),
(91,77,l),
(87,-17,l),
(125,-17,ls),
(262,-17,o),
(331,-13,o),
(331,218,cs)
);
}
);
};
layerId = "438E98ED-2DA7-4574-8792-8200075D96E5";
shapes = (
{
closed = 1;
nodes = (
(240,-14,o),
(331,-13,o),
(331,232,cs),
(331,752,l),
(237,752,l),
(237,252,ls),
(237,85,o),
(182,73,o),
(30,84,c),
(26,-14,l)
);
}
);
width = 409;
}
);
unicode = 74;
},
{
glyphname = K;
kernLeft = B;
kernRight = K;
lastChange = "2020-07-26 05:12:47 +0000";
layers = (
{
anchors = (
{
name = bottom;
pos = (346,0);
},
{
name = top;
pos = (346,752);
}
);
layerId = "438E98ED-2DA7-4574-8792-8200075D96E5";
shapes = (
{
closed = 1;
nodes = (
(172,0,l),
(172,752,l),
(78,752,l),
(78,0,l)
);
},
{
closed = 1;
nodes = (
(635,752,l),
(515,752,l),
(135,366,l),
(135,239,l)
);
},
{
closed = 1;
nodes = (
(649,0,l),
(255,418,l),
(184,361,l),
(527,0,l)
);
}
);
width = 692;
}
);
unicode = 75;
},
{
glyphname = Khook;
kernLeft = B;
kernRight = K;
lastChange = "2020-10-14 11:36:32 +0000";
layers = (
{
anchors = (
{
name = bottom;
pos = (346,0);
},
{
name = top;
pos = (346,752);
}
);
layerId = "438E98ED-2DA7-4574-8792-8200075D96E5";
shapes = (
{
closed = 1;
nodes = (
(172,0,l),
(172,752,l),
(78,752,l),
(78,0,l)
);
},
{
closed = 1;
nodes = (
(320,504,ls),
(397,622,o),
(445,685,o),
(490,685,cs),
(524,685,o),
(560,678,o),
(585,623,c),
(640,680,l),
(598,760,o),
(543,772,o),
(484,772,cs),
(390,772,o),
(321,668,o),
(267,585,cs),
(125,366,l),
(125,205,l)
);
},
{
closed = 1;
nodes = (
(649,0,l),
(246,425,l),
(175,368,l),
(527,0,l)
);
}
);
width = 692;
}
);
metricLeft = K;
metricRight = K;
unicode = 408;
},
{
glyphname = L;
kernLeft = B;
kernRight = L;
lastChange = "2020-02-29 10:17:10 +0000";
layers = (
{
anchors = (
{
name = bottom;
pos = (282,0);
},
{
name = center;
pos = (282,376);
},
{
name = top;
pos = (125,752);
},
{
name = topright;
pos = (354,601);
}
);
layerId = "438E98ED-2DA7-4574-8792-8200075D96E5";
shapes = (
{
closed = 1;
nodes = (
(533,0,l),
(533,90,l),
(172,90,l),
(172,752,l),
(78,752,l),
(78,0,l)
);
}
);
width = 564;
}
);
unicode = 76;
},
{
glyphname = Lslash;
kernLeft = B;
kernRight = L;
lastChange = "2021-06-11 14:58:17 +0000";
layers = (
{
layerId = "438E98ED-2DA7-4574-8792-8200075D96E5";
shapes = (
{
closed = 1;
nodes = (
(537,0,l),
(537,90,l),
(176,90,l),
(176,752,l),
(82,752,l),
(82,0,l)
);
},
{
closed = 1;
nodes = (
(18,307,l),
(387,464,l),
(387,555,l),
(18,398,l)
);
}
);
width = 570;
}
);
unicode = 321;
},
{
glyphname = M;
kernLeft = B;
kernRight = H;
lastChange = "2020-10-14 11:59:09 +0000";
layers = (
{
anchors = (
{
name = bottom;
pos = (495,0);
},
{
name = top;
pos = (495,752);
}
);
layerId = "438E98ED-2DA7-4574-8792-8200075D96E5";
shapes = (
{
closed = 1;
nodes = (
(172,0,l),
(172,575,l),
(454,97,l),
(546,97,l),
(818,575,l),
(818,0,l),
(912,0,l),
(912,752,l),
(818,752,l),
(500,210,l),
(172,752,l),
(78,752,l),
(78,0,l)
);
}
);
width = 990;
}
);
unicode = 77;
},
{
glyphname = N;
kernLeft = B;
kernRight = H;
lastChange = "2020-02-24 23:17:51 +0000";
layers = (
{
anchors = (
{
name = bottom;
pos = (386,0);
},
{
name = top;
pos = (386,752);
}
);
layerId = "438E98ED-2DA7-4574-8792-8200075D96E5";
shapes = (
{
closed = 1;
nodes = (
(172,0,l),
(172,587,l),
(600,0,l),
(694,0,l),
(694,752,l),
(600,752,l),
(600,165,l),
(172,752,l),
(78,752,l),
(78,0,l)
);
}
);
width = 772;
}
);
unicode = 78;
},
{
glyphname = Eng;
kernLeft = B;
kernRight = H;
lastChange = "2020-02-29 10:37:54 +0000";
layers = (
{
layerId = "438E98ED-2DA7-4574-8792-8200075D96E5";
shapes = (
{
closed = 1;
nodes = (
(172,0,l),
(172,587,l),
(600,0,l),
(694,0,l),
(694,752,l),
(600,752,l),
(600,165,l),
(172,752,l),
(78,752,l),
(78,0,l)
);
},
{
closed = 1;
nodes = (
(600,20,l),
(600,-179,o),
(545,-191,o),
(393,-180,c),
(389,-278,l),
(603,-278,o),
(694,-277,o),
(694,0,c)
);
}
);
width = 772;
}
);
unicode = 330;
},
{
glyphname = O;
kernLeft = C;
kernRight = D;
lastChange = "2021-06-11 14:58:14 +0000";
layers = (
{
anchors = (
{
name = bottom;
pos = (400,0);
},
{
name = center;
pos = (400,376);
},
{
name = ogonek;
pos = (475,-10);
},
{
name = top;
pos = (400,752);
},
{
name = topleft;
pos = (20,752);
},
{
name = topright;
pos = (780,752);
}
);
hints = (
{
horizontal = 1;
origin = (0,11);
target = (1,11);
type = Stem;
},
{
horizontal = 1;
origin = (1,5);
target = (0,5);
type = Stem;
},
{
origin = (0,8);
target = (1,2);
type = Stem;
},
{
origin = (1,8);
target = (0,2);
type = Stem;
}
);
layerId = "438E98ED-2DA7-4574-8792-8200075D96E5";
shapes = (
{
closed = 1;
nodes = (
(653,-14,o),
(750,164,o),
(750,379,cs),
(750,594,o),
(653,772,o),
(401,772,cs),
(149,772,o),
(52,594,o),
(52,379,cs),
(52,164,o),
(149,-14,o),
(401,-14,cs)
);
},
{
closed = 1;
nodes = (
(217,76,o),
(148,197,o),
(148,379,cs),
(148,560,o),
(217,683,o),
(401,683,cs),
(586,683,o),
(654,560,o),
(654,379,cs),
(654,207,o),
(586,76,o),
(401,76,cs)
);
}
);
width = 800;
}
);
unicode = 79;
},
{
glyphname = Oslash;
kernLeft = C;
kernRight = D;
lastChange = "2020-07-15 23:08:44 +0000";
layers = (
{
anchors = (
{
name = bottom;
pos = (412,0);
},
{
name = top;
pos = (412,752);
}
);
layerId = "438E98ED-2DA7-4574-8792-8200075D96E5";
shapes = (
{
closed = 1;
nodes = (
(664,-14,o),
(759,154,o),
(759,369,cs),
(759,584,o),
(664,752,o),
(412,752,cs),
(160,752,o),
(65,584,o),
(65,369,cs),
(65,154,o),
(160,-14,o),
(412,-14,cs)
);
},
{
closed = 1;
nodes = (
(337,229,o),
(536,465,o),
(736,699,c),
(669,752,l),
(473,514,o),
(276,278,o),
(76,44,c),
(141,-9,l)
);
},
{
closed = 1;
nodes = (
(243,75,o),
(160,197,o),
(160,369,cs),
(160,540,o),
(243,663,o),
(412,663,cs),
(582,663,o),
(664,540,o),
(664,369,cs),
(664,197,o),
(582,75,o),
(412,75,cs)
);
}
);
width = 824;
}
);
unicode = 216;
},
{
glyphname = OE;
kernLeft = C;
kernRight = E;
lastChange = "2021-06-11 14:58:19 +0000";
layers = (
{
anchors = (
{
name = bottom;
pos = (603,0);
},
{
name = top;
pos = (603,752);
}
);
layerId = "438E98ED-2DA7-4574-8792-8200075D96E5";
shapes = (
{
closed = 1;
nodes = (
(643,-14,o),
(740,164,o),
(740,379,cs),
(740,594,o),
(643,772,o),
(401,772,cs),
(149,772,o),
(52,594,o),
(52,379,cs),
(52,164,o),
(149,-14,o),
(401,-14,cs)
);
},
{
closed = 1;
nodes = (
(217,76,o),
(148,197,o),
(148,379,cs),
(148,560,o),
(217,683,o),
(401,683,cs),
(586,683,o),
(653,560,o),
(653,379,cs),
(653,207,o),
(586,76,o),
(401,76,cs)
);
},
{
closed = 1;
nodes = (
(1152,0,l),
(1152,90,l),
(740,90,l),
(740,340,l),
(1126,340,l),
(1126,430,l),
(740,430,l),
(740,661,l),
(1149,661,l),
(1149,752,l),
(658,752,l),
(658,0,l)
);
}
);
width = 1205;
}
);
metricLeft = O;
metricRight = E;
unicode = 338;
},
{
glyphname = P;
kernLeft = B;
kernRight = P;
lastChange = "2020-02-24 23:17:51 +0000";
layers = (
{
anchors = (
{
name = bottom;
pos = (322,0);
},
{
name = top;
pos = (322,752);
}
);
annotations = (
{
pos = (-117.198,291.841);
text = "shape?";
type = Text;
}
);
background = {
shapes = (
{
closed = 1;
nodes = (
(380,0,ls),
(495,0,o),
(601,62,o),
(601,208,cs),
(601,374,o),
(482,391,o),
(482,391,c),
(506,391,o),
(583,431,o),
(583,557,cs),
(583,686,o),
(493,752,o),
(353,752,cs),
(78,752,l),
(78,0,l)
);
},
{
closed = 1;
nodes = (
(172,345,l),
(363,345,ls),
(451,345,o),
(506,316,o),
(506,208,cs),
(506,114,o),
(450,90,o),
(366,90,cs),
(172,90,l)
);
},
{
closed = 1;
nodes = (
(172,663,l),
(358,663,ls),
(421,663,o),
(489,648,o),
(489,556,cs),
(489,458,o),
(439,435,o),
(360,435,cs),
(172,435,l)
);
}
);
};
layerId = "438E98ED-2DA7-4574-8792-8200075D96E5";
shapes = (
{
closed = 1;
nodes = (
(172,0,l),
(172,295,l),
(312,295,ls),
(497,295,o),
(597,349,o),
(597,524,cs),
(597,697,o),
(496,752,o),
(312,752,cs),
(78,752,l),
(78,0,l)
);
},
{
closed = 1;
nodes = (
(172,663,l),
(322,663,ls),
(451,663,o),
(502,630,o),
(502,525,cs),
(502,420,o),
(456,385,o),
(325,385,cs),
(172,385,l)
);
}
);
width = 643;
}
);
unicode = 80;
},
{
glyphname = Thorn;
kernLeft = B;
kernRight = P;
lastChange = "2021-06-11 14:58:21 +0000";
layers = (
{
anchors = (
{
name = bottom;
pos = (323,0);
},
{
name = top;
pos = (323,752);
}
);
layerId = "438E98ED-2DA7-4574-8792-8200075D96E5";
shapes = (
{
closed = 1;
nodes = (
(172,0,l),
(172,180,l),
(312,180,ls),
(497,180,o),
(583,221,o),
(583,396,cs),
(583,569,o),
(496,615,o),
(312,615,cs),
(172,615,l),
(172,752,l),
(78,752,l),
(78,0,l)
);
},
{
closed = 1;
nodes = (
(172,526,l),
(322,526,ls),
(447,526,o),
(488,502,o),
(488,397,cs),
(488,292,o),
(452,270,o),
(325,270,cs),
(172,270,l)
);
}
);
width = 645;
}
);
unicode = 222;
},
{
glyphname = Q;
kernLeft = C;
kernRight = D;
lastChange = "2020-10-15 03:12:41 +0000";
layers = (
{
anchors = (
{
name = bottom;
pos = (402,0);
},
{
name = top;
pos = (402,752);
}
);
background = {
shapes = (
{
closed = 0;
nodes = (
(528,-99,l),
(463,-35,l)
);
},
{
closed = 0;
nodes = (
(609,-148,l),
(674,-84,l)
);
},
{
closed = 1;
nodes = (
(653,-14,o),
(750,164,o),
(750,379,cs),
(750,594,o),
(653,772,o),
(401,772,cs),
(149,772,o),
(52,594,o),
(52,379,cs),
(52,164,o),
(149,-14,o),
(401,-14,cs)
);
},
{
closed = 1;
nodes = (
(217,76,o),
(148,197,o),
(148,379,cs),
(148,560,o),
(217,683,o),
(401,683,cs),
(586,683,o),
(654,560,o),
(654,379,cs),
(654,207,o),
(586,76,o),
(401,76,cs)
);
}
);
};
layerId = "438E98ED-2DA7-4574-8792-8200075D96E5";
shapes = (
{
closed = 1;
nodes = (
(653,-14,o),
(750,164,o),
(750,379,cs),
(750,594,o),
(653,772,o),
(401,772,cs),
(149,772,o),
(52,594,o),
(52,379,cs),
(52,164,o),
(149,-14,o),
(401,-14,cs)
);
},
{
closed = 1;
nodes = (
(623,-128,o),
(649,-102,o),
(679,-74,c),
(600,-29,o),
(558,-5,o),
(504,43,c),
(394,43,l),
(450,-29,o),
(526,-110,o),
(604,-147,c)
);
},
{
closed = 1;
nodes = (
(217,75,o),
(147,197,o),
(147,379,cs),
(147,560,o),
(217,683,o),
(401,683,cs),
(586,683,o),
(655,560,o),
(655,379,cs),
(655,200,o),
(585,75,o),
(401,75,cs)
);
}
);
width = 804;
}
);
unicode = 81;
},
{
glyphname = R;
kernLeft = B;
kernRight = R;
lastChange = "2020-07-24 08:55:36 +0000";
layers = (
{
anchors = (
{
name = bottom;
pos = (329,0);
},
{
name = top;
pos = (329,752);
}
);
background = {
shapes = (
{
closed = 1;
nodes = (
(172,0,l),
(172,265,l),
(312,265,ls),
(497,265,o),
(597,334,o),
(597,509,cs),
(597,682,o),
(496,752,o),
(312,752,cs),
(78,752,l),
(78,0,l)
);
},
{
closed = 1;
nodes = (
(172,663,l),
(322,663,ls),
(451,663,o),
(502,618,o),
(502,510,cs),
(502,402,o),
(456,355,o),
(325,355,cs),
(172,355,l)
);
}
);
};
layerId = "438E98ED-2DA7-4574-8792-8200075D96E5";
shapes = (
{
closed = 1;
nodes = (
(172,0,l),
(172,309,l),
(312,309,ls),
(497,309,o),
(597,357,o),
(597,531,cs),
(597,704,o),
(496,752,o),
(312,752,cs),
(78,752,l),
(78,0,l)
);
},
{
closed = 1;
nodes = (
(618,0,l),
(606,20,o),
(596,43,o),
(587,82,cs),
(562,188,ls),
(537,296,o),
(469,377,o),
(373,377,c),
(312,309,l),
(368,309,o),
(446,280,o),
(468,181,cs),
(492,73,ls),
(499,41,o),
(505,17,o),
(516,0,c)
);
},
{
closed = 1;
nodes = (
(172,663,l),
(322,663,ls),
(451,663,o),
(502,637,o),
(502,532,cs),
(502,427,o),
(456,399,o),
(325,399,cs),
(172,399,l)
);
}
);
width = 660;
}
);
unicode = 82;
},
{
glyphname = S;
kernLeft = S;
kernRight = S;
lastChange = "2021-06-26 17:49:46 +0000";
layers = (
{
anchors = (
{
name = bottom;
pos = (352,-13);
},
{
name = top;
pos = (352,752);
}
);
layerId = "438E98ED-2DA7-4574-8792-8200075D96E5";
shapes = (
{
closed = 1;
nodes = (
(537,-14,o),
(658,49,o),
(658,223,cs),
(658,349,o),
(555,409,o),
(443,427,cs),
(285,452,ls),
(200,465,o),
(154,498,o),
(154,546,cs),
(154,650,o),
(255,680,o),
(354,680,cs),
(474,680,o),
(533,611,o),
(550,555,c),
(648,555,l),
(644,649,o),
(560,772,o),
(343,772,cs),
(170,772,o),
(57,684,o),
(57,546,cs),
(57,428,o),
(156,371,o),
(258,355,cs),
(416,330,ls),
(508,315,o),
(560,288,o),
(560,217,cs),
(560,124,o),
(503,80,o),
(356,80,cs),
(212,80,o),
(158,147,o),
(145,220,c),
(48,220,l),
(48,104,o),
(135,-14,o),
(365,-14,c)
);
}
);
width = 704;
}
);
unicode = 83;
},
{
glyphname = Germandbls;
kernLeft = S;
kernRight = S;
lastChange = "2021-06-11 14:58:22 +0000";
layers = (
{
background = {
shapes = (
{
closed = 1;
nodes = (
(545,-14,o),
(666,49,o),
(666,223,cs),
(666,349,o),
(563,409,o),
(451,427,cs),
(293,452,ls),
(208,465,o),
(162,498,o),
(162,546,cs),
(162,650,o),
(263,680,o),
(362,680,cs),
(482,680,o),
(541,611,o),
(558,555,c),
(656,555,l),
(652,649,o),
(568,772,o),
(351,772,cs),
(178,772,o),
(65,684,o),
(65,546,cs),
(65,428,o),
(164,371,o),
(266,355,cs),
(424,330,ls),
(516,315,o),
(568,288,o),
(568,217,cs),
(568,124,o),
(511,80,o),
(364,80,cs),
(220,80,o),
(166,147,o),
(153,220,c),
(56,220,l),
(56,104,o),
(143,-14,o),
(373,-14,c)
);
}
);
};
layerId = "438E98ED-2DA7-4574-8792-8200075D96E5";
shapes = (
{
closed = 1;
nodes = (
(65,546,ls),
(65,684,o),
(178,772,o),
(351,772,cs),
(508,772,o),
(592,699,o),
(637,631,cs),
(655,604,o),
(650,580,o),
(637,563,cs),
(520,410,l),
(602,381,o),
(666,323,o),
(666,223,cs),
(666,49,o),
(499,-77,o),
(225,20,c),
(284,106,l),
(505,26,o),
(568,149,o),
(568,217,cs),
(568,282,o),
(528,302,o),
(422,330,cs),
(372,343,o),
(385,388,o),
(422,432,c),
(548,594,l),
(516,637,o),
(462,680,o),
(362,680,cs),
(263,680,o),
(162,650,o),
(162,546,cs),
(162,0,l),
(65,0,l)
);
}
);
width = 712;
}
);
unicode = 7838;
},
{
glyphname = T;
kernLeft = T;
kernRight = T;
lastChange = "2021-06-27 14:38:17 +0000";
layers = (
{
anchors = (
{
name = bottom;
pos = (314,0);
},
{
name = center;
pos = (325,376);
},
{
name = top;
pos = (325,752);
}
);
layerId = "438E98ED-2DA7-4574-8792-8200075D96E5";
shapes = (
{
closed = 1;
nodes = (
(278,662,l),
(278,0,l),
(372,0,l),
(372,662,l),
(600,662,l),
(600,752,l),
(49,752,l),
(49,662,l)
);
}
);
width = 649;
}
);
unicode = 84;
},
{
glyphname = Tbar;
kernLeft = T;
kernRight = T;
lastChange = "2020-02-25 18:23:20 +0000";
layers = (
{
layerId = "438E98ED-2DA7-4574-8792-8200075D96E5";
shapes = (
{
closed = 1;
nodes = (
(372,0,l),
(372,662,l),
(600,662,l),
(600,752,l),
(49,752,l),
(49,662,l),
(278,662,l),
(278,0,l)
);
},
{
closed = 1;
nodes = (
(532,325,l),
(532,410,l),
(118,410,l),
(118,325,l)
);
}
);
width = 649;
}
);
unicode = 358;
},
{
glyphname = U;
kernLeft = U;
kernRight = U;
lastChange = "2020-07-24 11:03:04 +0000";
layers = (
{
anchors = (
{
name = bottom;
pos = (346,0);
},
{
name = ogonek;
pos = (433,-10);
},
{
name = top;
pos = (346,752);
},
{
name = topright;
pos = (681,752);
}
);
background = {
shapes = (
{
closed = 1;
nodes = (
(602,-14,o),
(699,164,o),
(699,379,cs),
(699,594,o),
(602,772,o),
(350,772,cs),
(98,772,o),
(1,594,o),
(1,379,cs),
(1,164,o),
(98,-14,o),
(350,-14,cs)
);
},
{
closed = 1;
nodes = (
(166,76,o),
(97,197,o),
(97,379,cs),
(97,560,o),
(166,683,o),
(350,683,cs),
(535,683,o),
(603,560,o),
(603,379,cs),
(603,207,o),
(535,76,o),
(350,76,cs)
);
}
);
};
layerId = "438E98ED-2DA7-4574-8792-8200075D96E5";
shapes = (
{
closed = 1;
nodes = (
(608,-14,o),
(635,128,o),
(635,232,cs),
(635,752,l),
(539,752,l),
(539,257,ls),
(539,134,o),
(495,79,o),
(351,79,cs),
(198,79,o),
(163,128,o),
(163,257,cs),
(163,752,l),
(66,752,l),
(66,232,ls),
(66,128,o),
(94,-14,o),
(351,-14,cs)
);
}
);
width = 701;
}
);
unicode = 85;
},
{
glyphname = V;
kernLeft = V;
kernRight = V;
lastChange = "2021-06-14 11:45:40 +0000";
layers = (
{
anchors = (
{
name = bottom;
pos = (375,0);
},
{
name = top;
pos = (375,752);
}
);
layerId = "438E98ED-2DA7-4574-8792-8200075D96E5";
shapes = (
{
closed = 1;
nodes = (
(438,0,l),
(710,752,l),
(607,752,l),
(376,124,l),
(146,752,l),
(41,752,l),
(315,0,l)
);
}
);
width = 750;
}
);
unicode = 86;
},
{
glyphname = W;
kernLeft = W;
kernRight = W;
lastChange = "2020-07-24 11:07:20 +0000";
layers = (
{
anchors = (
{
name = bottom;
pos = (533,0);
},
{
name = top;
pos = (533,752);
}
);
layerId = "438E98ED-2DA7-4574-8792-8200075D96E5";
shapes = (
{
closed = 1;
nodes = (
(355,0,l),
(533,624,l),
(711,0,l),
(832,0,l),
(1022,752,l),
(919,752,l),
(768,111,l),
(598,752,l),
(468,752,l),
(297,111,l),
(148,752,l),
(43,752,l),
(233,0,l)
);
}
);
width = 1065;
}
);
unicode = 87;
},
{
glyphname = X;
kernLeft = X;
kernRight = X;
lastChange = "2021-06-14 11:45:34 +0000";
layers = (
{
anchors = (
{
name = bottom;
pos = (392,0);
},
{
name = top;
pos = (392,752);
}
);
layerId = "438E98ED-2DA7-4574-8792-8200075D96E5";
shapes = (
{
closed = 1;
nodes = (
(139,0,l),
(390,333,l),
(641,0,l),
(761,0,l),
(458,392,l),
(728,752,l),
(613,752,l),
(390,451,l),
(171,752,l),
(48,752,l),
(320,392,l),
(22,0,l)
);
}
);
width = 783;
}
);
unicode = 88;
},
{
glyphname = Y;
kernLeft = Y;
kernRight = Y;
lastChange = "2020-07-24 11:09:27 +0000";
layers = (
{
anchors = (
{
name = bottom;
pos = (324,0);
},
{
name = top;
pos = (324,752);
},
{
name = topleft;
pos = (20,752);
}
);
layerId = "438E98ED-2DA7-4574-8792-8200075D96E5";
shapes = (
{
closed = 1;
nodes = (
(371,0,l),
(371,356,l),
(628,752,l),
(515,752,l),
(324,450,l),
(135,752,l),
(20,752,l),
(277,356,l),
(277,0,l)
);
}
);
width = 648;
}
);
unicode = 89;
},
{
glyphname = Z;
kernLeft = Z;
kernRight = Z;
lastChange = "2020-07-24 11:08:56 +0000";
layers = (
{
anchors = (
{
name = bottom;
pos = (376,0);
},
{
name = center;
pos = (376,376);
},
{
name = top;
pos = (376,752);
}
);
annotations = (
{
pos = (94.985,-204.73);
text = "MAKE CURVE";
type = Text;
}
);
layerId = "438E98ED-2DA7-4574-8792-8200075D96E5";
shapes = (
{
closed = 1;
nodes = (
(688,0,l),
(688,90,l),
(197,90,l),
(688,663,l),
(688,752,l),
(63,752,l),
(63,663,l),
(555,663,l),
(63,90,l),
(63,0,l)
);
}
);
width = 751;
}
);
unicode = 90;
},
{
glyphname = G.ss02;
kernLeft = C;
kernRight = G;
lastChange = "2020-02-29 10:23:26 +0000";
layers = (
{
anchors = (
{
name = bottom;
pos = (399,-12);
},
{
name = top;
pos = (399,752);
}
);
annotations = (
{
pos = (321,215);
text = "bring in";
type = Text;
}
);
background = {
shapes = (
{
closed = 1;
nodes = (
(653,-14,o),
(749,140,o),
(749,335,c),
(749,376,o),
(749,394,o),
(748,425,c),
(396,425,l),
(396,335,l),
(652,335,l),
(652,183,o),
(591,76,o),
(401,76,cs),
(212,76,o),
(147,202,o),
(147,379,cs),
(147,555,o),
(212,683,o),
(401,683,cs),
(540,683,o),
(609,625,o),
(635,555,c),
(736,555,l),
(716,620,o),
(655,772,o),
(401,772,cs),
(149,772,o),
(52,594,o),
(52,379,cs),
(52,164,o),
(149,-14,o),
(401,-14,cs)
);
}
);
};
layerId = "438E98ED-2DA7-4574-8792-8200075D96E5";
shapes = (
{
closed = 1;
nodes = (
(653,-14,o),
(748,146,o),
(748,340,c),
(748,381,o),
(748,394,o),
(747,425,c),
(396,425,l),
(396,335,l),
(651,335,l),
(651,182,o),
(591,76,o),
(401,76,cs),
(212,76,o),
(147,202,o),
(147,379,cs),
(147,555,o),
(212,683,o),
(401,683,cs),
(480,683,o),
(545,668,o),
(586,622,c),
(655,689,l),
(599,746,o),
(515,772,o),
(401,772,cs),
(149,772,o),
(52,594,o),
(52,379,cs),
(52,164,o),
(149,-14,o),
(401,-14,cs)
);
}
);
width = 797;
}
);
},
{
glyphname = S.ss02;
kernLeft = S;
kernRight = S;
lastChange = "2020-07-15 17:52:43 +0000";
layers = (
{
anchors = (
{
name = bottom;
pos = (358,-12);
},
{
name = top;
pos = (348,752);
}
);
background = {
shapes = (
{
closed = 1;
nodes = (
(594,-14,o),
(675,146,o),
(675,340,c),
(675,381,o),
(675,399,o),
(674,430,c),
(337,430,l),
(337,340,l),
(578,340,l),
(578,187,o),
(532,76,o),
(342,76,cs),
(153,76,o),
(88,202,o),
(88,379,cs),
(88,555,o),
(153,683,o),
(342,683,cs),
(421,683,o),
(486,659,o),
(527,613,c),
(596,680,l),
(540,737,o),
(456,772,o),
(342,772,cs),
(90,772,o),
(-7,594,o),
(-7,379,cs),
(-7,164,o),
(90,-14,o),
(342,-14,cs)
);
}
);
};
layerId = "438E98ED-2DA7-4574-8792-8200075D96E5";
shapes = (
{
closed = 1;
nodes = (
(529,-14,o),
(650,49,o),
(650,223,cs),
(650,349,o),
(547,409,o),
(435,427,cs),
(277,452,ls),
(192,465,o),
(146,498,o),
(146,546,cs),
(146,650,o),
(247,680,o),
(346,680,cs),
(431,680,o),
(506,662,o),
(546,612,c),
(616,679,l),
(559,742,o),
(460,772,o),
(335,772,cs),
(162,772,o),
(49,684,o),
(49,546,cs),
(49,428,o),
(148,371,o),
(250,355,cs),
(408,330,ls),
(500,315,o),
(552,288,o),
(552,217,cs),
(552,124,o),
(495,80,o),
(348,80,cs),
(249,80,o),
(175,128,o),
(123,192,c),
(48,126,l),
(94,64,o),
(176,-14,o),
(357,-14,c)
);
}
);
width = 696;
}
);
},
{
glyphname = Q.ss03;
kernLeft = C;
kernRight = D;
lastChange = "2020-07-15 17:53:37 +0000";
layers = (
{
anchors = (
{
name = bottom;
pos = (404,0);
},
{
name = top;
pos = (404,752);
}
);
background = {
shapes = (
{
closed = 1;
nodes = (
(653,-14,o),
(750,164,o),
(750,379,cs),
(750,594,o),
(653,772,o),
(401,772,cs),
(149,772,o),
(52,594,o),
(52,379,cs),
(52,164,o),
(149,-14,o),
(401,-14,cs)
);
},
{
closed = 1;
nodes = (
(217,76,o),
(148,197,o),
(148,379,cs),
(148,560,o),
(217,683,o),
(401,683,cs),
(586,683,o),
(654,560,o),
(654,379,cs),
(654,207,o),
(586,76,o),
(401,76,cs)
);
}
);
};
layerId = "438E98ED-2DA7-4574-8792-8200075D96E5";
shapes = (
{
closed = 1;
nodes = (
(653,-14,o),
(750,164,o),
(750,379,cs),
(750,594,o),
(653,772,o),
(401,772,cs),
(149,772,o),
(52,594,o),
(52,379,cs),
(52,164,o),
(149,-14,o),
(401,-14,cs)
);
},
{
closed = 1;
nodes = (
(719,-76,l),
(589,13,o),
(527,108,o),
(490,197,c),
(377,197,l),
(437,69,o),
(491,1,o),
(589,-76,c)
);
},
{
closed = 1;
nodes = (
(217,75,o),
(147,197,o),
(147,379,cs),
(147,560,o),
(217,683,o),
(401,683,cs),
(586,683,o),
(655,560,o),
(655,379,cs),
(655,197,o),
(579,75,o),
(401,75,cs)
);
}
);
width = 807;
}
);
},
{
glyphname = Q_u;
kernLeft = Q;
kernRight = u;
lastChange = "2021-06-27 10:07:36 +0000";
layers = (
{
anchors = (
{
name = bottom;
pos = (402,0);
},
{
name = top;
pos = (402,752);
}
);
background = {
shapes = (
{
closed = 1;
nodes = (
(653,-14,o),
(750,164,o),
(750,379,cs),
(750,594,o),
(653,772,o),
(401,772,cs),
(149,772,o),
(52,594,o),
(52,379,cs),
(52,164,o),
(149,-14,o),
(401,-14,cs)
);
},
{
closed = 1;
nodes = (
(623,-128,o),
(649,-102,o),
(679,-74,c),
(600,-29,o),
(558,-5,o),
(504,43,c),
(394,43,l),
(450,-29,o),
(526,-110,o),
(604,-147,c)
);
},
{
closed = 1;
nodes = (
(217,75,o),
(147,197,o),
(147,379,cs),
(147,560,o),
(217,683,o),
(401,683,cs),
(586,683,o),
(655,560,o),
(655,379,cs),
(655,200,o),
(585,75,o),
(401,75,cs)
);
}
);
};
layerId = "438E98ED-2DA7-4574-8792-8200075D96E5";
shapes = (
{
closed = 1;
nodes = (
(653,-14,o),
(750,164,o),
(750,379,cs),
(750,594,o),
(653,772,o),
(401,772,cs),
(149,772,o),
(52,594,o),
(52,379,cs),
(52,164,o),
(149,-14,o),
(401,-14,cs)
);
},
{
closed = 1;
nodes = (
(1101,-259,o),
(1139,-205,o),
(1164,-177,c),
(1021,-192,o),
(691,-148,o),
(504,43,c),
(394,43,l),
(576,-196,o),
(901,-270,o),
(1082,-278,c)
);
},
{
closed = 1;
nodes = (
(217,75,o),
(147,197,o),
(147,379,cs),
(147,560,o),
(217,683,o),
(401,683,cs),
(586,683,o),
(655,560,o),
(655,379,cs),
(655,200,o),
(585,75,o),
(401,75,cs)
);
},
{
pos = (800,0);
ref = u;
}
);
width = 1436;
}
);
metricLeft = Q;
metricRight = u;
},
{
glyphname = Q_y;
kernLeft = Q;
kernRight = v;
lastChange = "2021-06-27 06:40:18 +0000";
layers = (
{
anchors = (
{
name = bottom;
pos = (402,0);
},
{
name = top;
pos = (402,752);
}
);
hints = (
{
horizontal = 1;
origin = (2,0);
target = (2,13);
type = Stem;
},
{
origin = (2,8);
target = (2,4);
type = Stem;
}
);
layerId = "438E98ED-2DA7-4574-8792-8200075D96E5";
shapes = (
{
closed = 1;
nodes = (
(653,-14,o),
(750,164,o),
(750,379,cs),
(750,594,o),
(653,772,o),
(401,772,cs),
(149,772,o),
(52,594,o),
(52,379,cs),
(52,164,o),
(149,-14,o),
(401,-14,cs)
);
},
{
closed = 1;
nodes = (
(217,75,o),
(147,197,o),
(147,379,cs),
(147,560,o),
(217,683,o),
(401,683,cs),
(586,683,o),
(655,560,o),
(655,379,cs),
(655,200,o),
(585,75,o),
(401,75,cs)
);
},
{
closed = 1;
nodes = (
(890,-278,l),
(976,-278,o),
(1059,-253,o),
(1117,-99,cs),
(1346,504,l),
(1248,504,l),
(1088,79,l),
(926,504,l),
(827,504,l),
(1043,-38,l),
(1021,-96,ls),
(995,-164,o),
(950,-187,o),
(881,-187,c)
);
},
{
closed = 1;
nodes = (
(881,-187,l),
(712,-187,o),
(593,-115,o),
(504,43,c),
(394,43,l),
(528,-182,o),
(654,-278,o),
(902,-278,c)
);
}
);
width = 1385;
}
);
metricLeft = Q;
metricRight = y;
},
{
glyphname = T_h;
kernLeft = T;
kernRight = a;
lastChange = "2020-03-17 19:44:53 +0000";
layers = (
{
layerId = "438E98ED-2DA7-4574-8792-8200075D96E5";
shapes = (
{
closed = 1;
nodes = (
(641,0,l),
(641,302,ls),
(641,313,o),
(641,326,o),
(643,337,cs),
(654,397,o),
(731,433,o),
(805,433,cs),
(869,433,o),
(924,406,o),
(942,355,cs),
(948,338,o),
(949,321,o),
(949,304,cs),
(949,0,l),
(1040,0,l),
(1040,308,ls),
(1040,456,o),
(970,525,o),
(822,524,cs),
(678,523,o),
(641,450,o),
(641,450,c),
(641,752,l),
(550,752,l),
(550,0,l)
);
},
{
closed = 1;
nodes = (
(349,0,l),
(349,752,l),
(255,752,l),
(255,0,l)
);
},
{
closed = 1;
nodes = (
(641,662,l),
(641,752,l),
(49,752,l),
(49,662,l)
);
}
);
width = 1105;
}
);
metricLeft = T;
metricRight = h;
},
{
glyphname = a;
kernLeft = a;
kernRight = a;
lastChange = "2021-06-26 17:50:31 +0000";
layers = (
{
anchors = (
{
name = bottom;
pos = (251,-14);
},
{
name = ogonek;
pos = (548,0);
},
{
name = top;
pos = (302,524);
}
);
annotations = (
{
pos = (295,414);
text = "in a bit";
type = Text;
}
);
hints = (
{
horizontal = 1;
origin = (0,25);
target = (1,12);
type = Stem;
},
{
horizontal = 1;
place = (237,76);
type = Stem;
},
{
horizontal = 1;
origin = (0,8);
target = (0,15);
type = Stem;
},
{
horizontal = 1;
origin = (0,3);
target = up;
type = BottomGhost;
},
{
origin = (0,22);
target = (1,2);
type = Stem;
},
{
origin = (1,9);
target = (0,4);
type = Stem;
},
{
origin = (0,3);
target = (0,4);
type = Stem;
},
{
origin = (0,18);
target = (0,4);
type = Stem;
}
);
layerId = "438E98ED-2DA7-4574-8792-8200075D96E5";
shapes = (
{
closed = 1;
nodes = (
(381,-14,o),
(425,28,o),
(447,55,c),
(447,0,l),
(538,0,l),
(538,307,ls),
(538,472,o),
(456,518,o),
(320,524,c),
(140,524,o),
(74,441,o),
(71,364,c),
(161,364,l),
(174,408,o),
(216,433,o),
(303,433,cs),
(412,433,o),
(446,402,o),
(446,319,c),
(251,307,ls),
(129,299,o),
(48,275,o),
(48,159,cs),
(48,83,o),
(105,-14,o),
(251,-14,cs)
);
},
{
closed = 1;
nodes = (
(154,77,o),
(140,131,o),
(140,159,cs),
(140,207,o),
(165,220,o),
(261,227,cs),
(279,228,o),
(376,234,o),
(445,237,c),
(445,185,ls),
(445,116,o),
(371,77,o),
(286,77,cs)
);
}
);
width = 603;
}
);
metricRight = n;
unicode = 97;
},
{
glyphname = ae;
kernLeft = a;
kernRight = e;
lastChange = "2021-06-26 17:50:39 +0000";
layers = (
{
anchors = (
{
name = bottom;
pos = (477,0);
},
{
name = top;
pos = (477,504);
}
);
background = {
shapes = (
{
closed = 1;
nodes = (
(352,-14,o),
(397,20,o),
(418,47,c),
(418,0,l),
(509,0,l),
(509,307,ls),
(509,471,o),
(432,518,o),
(291,524,c),
(36,524,o),
(42,364,o),
(42,364,c),
(132,364,l),
(152,402,o),
(187,432,o),
(274,432,cs),
(353,432,o),
(417,392,o),
(417,319,c),
(222,307,ls),
(100,299,o),
(19,275,o),
(19,159,cs),
(19,83,o),
(76,-14,o),
(222,-14,cs)
);
},
{
closed = 1;
nodes = (
(125,77,o),
(111,131,o),
(111,159,cs),
(111,207,o),
(136,220,o),
(232,227,cs),
(256,229,o),
(416,237,o),
(416,237,c),
(416,185,ls),
(416,116,o),
(342,77,o),
(257,77,cs)
);
}
);
};
layerId = "438E98ED-2DA7-4574-8792-8200075D96E5";
shapes = (
{
closed = 1;
nodes = (
(366,-14,o),
(420,7,o),
(462,102,c),
(450,126,l),
(483,49,o),
(534,-14,o),
(651,-14,cs),
(733,-14,o),
(863,6,o),
(884,147,c),
(789,147,l),
(757,87,o),
(701,74,o),
(651,74,cs),
(578,74,o),
(510,119,o),
(510,231,cs),
(510,234,l),
(895,234,l),
(895,496,o),
(771,524,o),
(657,524,cs),
(569,524,o),
(521,489,o),
(482,439,c),
(452,499,o),
(394,520,o),
(311,524,c),
(83,524,o),
(78,364,o),
(78,364,c),
(169,364,l),
(187,402,o),
(218,436,o),
(296,436,cs),
(367,436,o),
(424,392,o),
(424,319,c),
(250,307,ls),
(140,299,o),
(58,275,o),
(58,159,cs),
(58,83,o),
(119,-14,o),
(250,-14,cs)
);
},
{
closed = 1;
nodes = (
(163,74,o),
(150,131,o),
(150,159,cs),
(150,207,o),
(172,220,o),
(258,227,cs),
(280,229,o),
(423,237,o),
(423,237,c),
(423,185,ls),
(423,116,o),
(357,74,o),
(281,74,cs)
);
},
{
closed = 1;
nodes = (
(517,317,ls),
(517,394,o),
(571,436,o),
(651,436,cs),
(719,436,o),
(790,419,o),
(796,316,c),
(517,316,l)
);
}
);
width = 954;
}
);
unicode = 230;
},
{
glyphname = b;
kernLeft = b;
kernRight = b;
lastChange = "2021-06-26 17:50:44 +0000";
layers = (
{
anchors = (
{
name = bottom;
pos = (320,0);
},
{
name = top;
pos = (320,782);
}
);
layerId = "438E98ED-2DA7-4574-8792-8200075D96E5";
shapes = (
{
closed = 1;
nodes = (
(516,-14,o),
(600,124,o),
(599,255,cs),
(598,385,o),
(516,526,o),
(338,524,cs),
(262,523,o),
(201,486,o),
(170,445,c),
(170,782,l),
(78,782,l),
(78,0,l),
(170,0,l),
(170,55,l),
(201,17,o),
(262,-14,o),
(338,-14,cs)
);
},
{
closed = 1;
nodes = (
(226,79,o),
(170,147,o),
(170,255,cs),
(170,363,o),
(226,431,o),
(338,434,cs),
(452,437,o),
(506,364,o),
(506,255,cs),
(506,145,o),
(452,73,o),
(338,76,cs)
);
}
);
width = 639;
}
);
unicode = 98;
},
{
glyphname = c;
kernLeft = c;
kernRight = c;
lastChange = "2021-06-26 17:50:50 +0000";
layers = (
{
anchors = (
{
name = bottom;
pos = (315,-11);
},
{
name = top;
pos = (316,524);
}
);
background = {
shapes = (
{
closed = 1;
nodes = (
(518,-14,o),
(589,135,o),
(589,255,c),
(589,375,o),
(518,524,o),
(316,524,c),
(115,524,o),
(44,375,o),
(44,255,c),
(44,135,o),
(115,-14,o),
(316,-14,c)
);
},
{
closed = 1;
nodes = (
(207,76,o),
(139,142,o),
(139,255,c),
(139,368,o),
(205,434,o),
(316,434,c),
(427,434,o),
(494,368,o),
(494,255,c),
(494,142,o),
(425,76,o),
(316,76,c)
);
}
);
};
layerId = "438E98ED-2DA7-4574-8792-8200075D96E5";
shapes = (
{
closed = 1;
nodes = (
(407,-14,o),
(469,15,o),
(512,59,c),
(447,123,l),
(416,93,o),
(372,76,o),
(316,76,cs),
(207,76,o),
(138,142,o),
(138,255,cs),
(138,368,o),
(205,434,o),
(316,434,cs),
(372,434,o),
(417,418,o),
(447,387,c),
(512,451,l),
(469,494,o),
(406,524,o),
(316,524,cs),
(115,524,o),
(43,375,o),
(43,255,cs),
(43,135,o),
(115,-14,o),
(316,-14,cs)
);
}
);
width = 560;
}
);
unicode = 99;
},
{
glyphname = d;
kernLeft = c;
kernRight = d;
lastChange = "2020-07-15 17:35:48 +0000";
layers = (
{
anchors = (
{
name = bottom;
pos = (319,0);
},
{
name = center;
pos = (319,252);
},
{
name = topright;
pos = (588,601);
}
);
layerId = "438E98ED-2DA7-4574-8792-8200075D96E5";
shapes = (
{
closed = 1;
nodes = (
(377,-14,o),
(438,17,o),
(469,55,c),
(469,0,l),
(561,0,l),
(561,782,l),
(469,782,l),
(469,445,l),
(438,486,o),
(377,524,o),
(301,524,cs),
(123,524,o),
(40,385,o),
(40,255,cs),
(40,124,o),
(123,-14,o),
(301,-14,cs)
);
},
{
closed = 1;
nodes = (
(187,73,o),
(133,145,o),
(133,255,cs),
(133,364,o),
(187,437,o),
(301,434,cs),
(413,431,o),
(469,363,o),
(469,255,cs),
(469,147,o),
(413,79,o),
(301,76,cs)
);
}
);
width = 639;
}
);
metricRight = l;
unicode = 100;
},
{
color = 1;
glyphname = eth;
kernLeft = c;
kernRight = d;
lastChange = "2020-02-25 19:36:20 +0000";
layers = (
{
anchors = (
{
name = bottom;
pos = (319,0);
},
{
name = center;
pos = (319,252);
},
{
name = top;
pos = (516,782);
},
{
name = topright;
pos = (618,504);
}
);
layerId = "438E98ED-2DA7-4574-8792-8200075D96E5";
shapes = (
{
closed = 1;
nodes = (
(387,-14,o),
(443,19,o),
(479,50,cs),
(517,82,o),
(558,154,o),
(558,266,cs),
(558,715,o),
(355,782,o),
(139,782,c),
(139,712,l),
(321,710,o),
(439,622,o),
(469,445,c),
(438,486,o),
(377,524,o),
(301,524,cs),
(123,524,o),
(40,385,o),
(40,255,cs),
(40,124,o),
(123,-14,o),
(301,-14,cs)
);
},
{
closed = 1;
nodes = (
(187,73,o),
(133,145,o),
(133,255,cs),
(133,364,o),
(187,437,o),
(301,434,cs),
(413,431,o),
(469,363,o),
(469,255,cs),
(469,147,o),
(413,79,o),
(301,76,cs)
);
},
{
closed = 1;
nodes = (
(149,550,l),
(539,698,l),
(539,782,l),
(149,636,l)
);
}
);
width = 600;
}
);
unicode = 240;
},
{
glyphname = dcroat;
kernLeft = c;
kernRight = dcroat;
lastChange = "2020-07-26 00:43:01 +0000";
layers = (
{
layerId = "438E98ED-2DA7-4574-8792-8200075D96E5";
shapes = (
{
closed = 1;
nodes = (
(377,-14,o),
(438,16,o),
(469,54,c),
(469,0,l),
(560,0,l),
(560,782,l),
(469,782,l),
(469,445,l),
(438,486,o),
(377,524,o),
(301,524,cs),
(123,524,o),
(40,385,o),
(40,255,cs),
(40,124,o),
(123,-14,o),
(301,-14,cs)
);
},
{
closed = 1;
nodes = (
(187,73,o),
(133,145,o),
(133,255,cs),
(133,364,o),
(187,437,o),
(301,434,cs),
(413,431,o),
(469,363,o),
(469,255,cs),
(469,147,o),
(413,79,o),
(301,76,cs)
);
},
{
closed = 1;
nodes = (
(334,644,l),
(630,644,l),
(630,718,l),
(334,718,l)
);
}
);
width = 631;
}
);
unicode = 273;
},
{
glyphname = e;
kernLeft = c;
kernRight = e;
lastChange = "2020-09-30 10:31:28 +0000";
layers = (
{
anchors = (
{
name = bottom;
pos = (310,-11);
},
{
name = ogonek;
pos = (412,-3);
},
{
name = top;
pos = (306,504);
}
);
annotations = (
{
pos = (221.5,354.253);
text = enlarge;
type = Text;
},
{
pos = (-57.591,292.835);
type = Text;
}
);
background = {
shapes = (
{
closed = 1;
nodes = (
(517,-14,o),
(588,135,o),
(588,255,c),
(588,375,o),
(517,524,o),
(315,524,c),
(114,524,o),
(43,375,o),
(43,255,c),
(43,135,o),
(114,-14,o),
(315,-14,c)
);
},
{
closed = 1;
nodes = (
(206,76,o),
(138,142,o),
(138,255,c),
(138,368,o),
(204,434,o),
(315,434,c),
(426,434,o),
(493,368,o),
(493,255,c),
(493,142,o),
(424,76,o),
(315,76,c)
);
}
);
};
layerId = "438E98ED-2DA7-4574-8792-8200075D96E5";
shapes = (
{
closed = 1;
nodes = (
(410,-14,o),
(510,19,o),
(553,144,c),
(463,144,l),
(429,88,o),
(365,76,o),
(309,76,cs),
(192,76,o),
(139,142,o),
(136,227,c),
(570,227,l),
(570,473,o),
(418,524,o),
(309,524,cs),
(108,524,o),
(43,375,o),
(43,255,cs),
(43,103,o),
(116,-14,o),
(309,-14,cs)
);
},
{
closed = 1;
nodes = (
(153,385,o),
(212,435,o),
(306,435,cs),
(363,435,o),
(458,412,o),
(475,309,c),
(138,309,l)
);
}
);
width = 611;
}
);
unicode = 101;
},
{
glyphname = f;
kernLeft = f;
kernRight = f;
lastChange = "2021-06-26 17:51:04 +0000";
layers = (
{
anchors = (
{
name = bottom;
pos = (196,0);
},
{
name = top;
pos = (196,782);
}
);
layerId = "438E98ED-2DA7-4574-8792-8200075D96E5";
shapes = (
{
closed = 1;
nodes = (
(220,0,l),
(220,422,l),
(336,422,l),
(340,504,l),
(220,504,l),
(220,611,ls),
(220,695,o),
(264,695,o),
(339,690,cs),
(355,689,l),
(361,780,l),
(335,780,ls),
(198,780,o),
(129,779,o),
(129,604,cs),
(129,504,l),
(30,504,l),
(30,422,l),
(129,422,l),
(129,0,l)
);
}
);
width = 392;
}
);
unicode = 102;
},
{
glyphname = g;
kernLeft = gone;
kernRight = gone;
lastChange = "2021-06-26 17:51:20 +0000";
layers = (
{
anchors = (
{
name = bottom;
pos = (295,-278);
},
{
name = top;
pos = (295,504);
}
);
annotations = (
{
pos = (180.915,-107.334);
text = "curve here";
type = Text;
}
);
layerId = "438E98ED-2DA7-4574-8792-8200075D96E5";
shapes = (
{
closed = 1;
nodes = (
(464,-278,o),
(547,-199,o),
(547,-92,cs),
(547,21,o),
(453,77,o),
(339,85,cs),
(222,93,o),
(179,120,o),
(179,148,cs),
(179,165,o),
(183,172,o),
(216,199,c),
(154,223,l),
(115,196,o),
(92,179,o),
(92,129,cs),
(92,36,o),
(188,5,o),
(303,-3,cs),
(416,-11,o),
(454,-38,o),
(454,-95,cs),
(454,-161,o),
(375,-193,o),
(293,-193,cs),
(211,-193,o),
(139,-172,o),
(139,-113,cs),
(139,-62,o),
(176,-38,o),
(250,10,c),
(199,42,l),
(142,-9,o),
(46,-5,o),
(46,-122,cs),
(46,-193,o),
(118,-278,o),
(282,-278,cs)
);
},
{
closed = 1;
nodes = (
(423,157,o),
(501,222,o),
(501,337,cs),
(501,452,o),
(423,516,o),
(285,516,cs),
(146,516,o),
(68,452,o),
(68,337,cs),
(68,222,o),
(146,157,o),
(285,157,cs)
);
},
{
closed = 1;
nodes = (
(196,233,o),
(153,267,o),
(153,337,cs),
(153,406,o),
(196,440,o),
(285,440,cs),
(374,440,o),
(417,406,o),
(417,337,cs),
(417,267,o),
(374,233,o),
(285,233,cs)
);
},
{
closed = 1;
nodes = (
(505,424,o),
(529,439,o),
(571,462,c),
(558,484,o),
(547,501,o),
(529,525,c),
(484,499,o),
(448,467,o),
(416,426,c),
(479,404,l)
);
}
);
width = 590;
}
);
unicode = 103;
},
{
glyphname = h;
kernLeft = b;
kernRight = a;
lastChange = "2020-07-14 02:12:31 +0000";
layers = (
{
anchors = (
{
name = bottom;
pos = (318,0);
},
{
name = center;
pos = (318,450);
},
{
name = top;
pos = (318,900);
}
);
layerId = "438E98ED-2DA7-4574-8792-8200075D96E5";
shapes = (
{
closed = 1;
nodes = (
(170,0,l),
(170,302,ls),
(170,313,o),
(170,326,o),
(172,337,cs),
(183,397,o),
(260,433,o),
(334,433,cs),
(398,433,o),
(454,407,o),
(471,355,cs),
(477,338,o),
(478,321,o),
(478,304,cs),
(478,0,l),
(571,0,l),
(571,308,ls),
(571,456,o),
(492,524,o),
(351,524,cs),
(246,524,o),
(186,481,o),
(170,450,c),
(170,782,l),
(78,782,l),
(78,0,l)
);
}
);
width = 636;
}
);
metricLeft = l;
metricRight = n;
unicode = 104;
},
{
glyphname = hbar;
kernLeft = hbar;
kernRight = a;
lastChange = "2020-07-26 10:48:34 +0000";
layers = (
{
layerId = "438E98ED-2DA7-4574-8792-8200075D96E5";
shapes = (
{
closed = 1;
nodes = (
(165,0,l),
(165,302,ls),
(165,313,o),
(165,326,o),
(167,337,cs),
(178,397,o),
(255,433,o),
(329,433,cs),
(393,433,o),
(448,406,o),
(466,355,cs),
(472,338,o),
(473,321,o),
(473,304,cs),
(473,0,l),
(564,0,l),
(564,308,ls),
(564,456,o),
(494,524,o),
(346,524,cs),
(241,524,o),
(181,481,o),
(165,450,c),
(165,782,l),
(74,782,l),
(74,0,l)
);
},
{
closed = 1;
nodes = (
(4,644,l),
(300,644,l),
(300,718,l),
(4,718,l)
);
}
);
width = 631;
}
);
unicode = 295;
},
{
glyphname = i;
kernLeft = i;
kernRight = i;
lastChange = "2021-06-27 07:16:44 +0000";
layers = (
{
anchors = (
{
name = bottom;
pos = (121,0);
}
);
hints = (
{
horizontal = 1;
origin = (1,11);
target = (1,5);
type = Stem;
},
{
origin = (1,8);
target = (1,2);
type = Stem;
},
{
origin = (0,3);
target = (0,0);
type = Stem;
}
);
layerId = "438E98ED-2DA7-4574-8792-8200075D96E5";
shapes = (
{
closed = 1;
nodes = (
(167,0,l),
(167,504,l),
(76,504,l),
(76,0,l)
);
},
{
closed = 1;
nodes = (
(156,640,o),
(184,668,o),
(184,703,cs),
(184,738,o),
(156,766,o),
(121,766,cs),
(86,766,o),
(58,738,o),
(58,703,cs),
(58,668,o),
(86,640,o),
(121,640,cs)
);
}
);
width = 242;
}
);
unicode = 105;
},
{
glyphname = idotless;
kernLeft = i;
kernRight = i;
lastChange = "2021-06-27 08:14:20 +0000";
layers = (
{
anchors = (
{
name = bottom;
pos = (103,0);
},
{
name = ogonek;
pos = (160,0);
},
{
name = top;
pos = (103,565);
}
);
layerId = "438E98ED-2DA7-4574-8792-8200075D96E5";
shapes = (
{
closed = 1;
nodes = (
(148,0,l),
(148,504,l),
(57,504,l),
(57,0,l)
);
}
);
width = 205;
}
);
unicode = 305;
},
{
glyphname = j;
kernLeft = j;
kernRight = i;
lastChange = "2021-06-26 17:51:49 +0000";
layers = (
{
layerId = "438E98ED-2DA7-4574-8792-8200075D96E5";
shapes = (
{
closed = 1;
nodes = (
(-46,-276,ls),
(91,-276,o),
(160,-272,o),
(160,-41,cs),
(160,504,l),
(69,504,l),
(69,-48,ls),
(69,-173,o),
(33,-186,o),
(-50,-183,cs),
(-80,-182,l),
(-84,-276,l)
);
},
{
closed = 1;
nodes = (
(149,640,o),
(178,668,o),
(178,703,cs),
(178,738,o),
(149,766,o),
(115,766,cs),
(81,766,o),
(52,738,o),
(52,703,cs),
(52,668,o),
(81,640,o),
(115,640,cs)
);
}
);
width = 227;
}
);
unicode = 106;
},
{
glyphname = k;
kernLeft = b;
kernRight = k;
lastChange = "2020-02-24 23:17:51 +0000";
layers = (
{
anchors = (
{
name = bottom;
pos = (285,0);
},
{
name = top;
pos = (285,782);
}
);
layerId = "438E98ED-2DA7-4574-8792-8200075D96E5";
shapes = (
{
closed = 1;
nodes = (
(526,504,l),
(404,504,l),
(125,265,l),
(125,153,l)
);
},
{
closed = 1;
nodes = (
(169,0,l),
(169,782,l),
(78,782,l),
(78,0,l)
);
},
{
closed = 1;
nodes = (
(541,0,l),
(249,339,l),
(184,287,l),
(435,0,l)
);
}
);
width = 570;
}
);
unicode = 107;
},
{
glyphname = kgreenlandic;
kernLeft = m;
kernRight = k;
lastChange = "2021-06-26 17:52:32 +0000";
layers = (
{
anchors = (
{
name = bottom;
pos = (285,0);
},
{
name = top;
pos = (285,782);
}
);
layerId = "438E98ED-2DA7-4574-8792-8200075D96E5";
shapes = (
{
closed = 1;
nodes = (
(526,504,l),
(404,504,l),
(125,265,l),
(125,153,l)
);
},
{
closed = 1;
nodes = (
(169,0,l),
(169,504,l),
(78,504,l),
(78,0,l)
);
},
{
closed = 1;
nodes = (
(541,0,l),
(249,339,l),
(184,287,l),
(435,0,l)
);
}
);
width = 570;
}
);
metricLeft = k;
metricRight = k;
unicode = 312;
},
{
glyphname = khook;
kernLeft = b;
kernRight = k;
lastChange = "2020-07-16 01:27:15 +0000";
layers = (
{
anchors = (
{
name = bottom;
pos = (285,0);
},
{
name = top;
pos = (285,782);
}
);
layerId = "438E98ED-2DA7-4574-8792-8200075D96E5";
shapes = (
{
closed = 1;
nodes = (
(526,504,l),
(404,504,l),
(125,265,l),
(125,153,l)
);
},
{
closed = 1;
nodes = (
(169,0,l),
(169,564,l),
(169,654,o),
(197,712,o),
(368,652,c),
(405,739,l),
(261,806,o),
(78,776,o),
(78,604,c),
(78,0,l)
);
},
{
closed = 1;
nodes = (
(541,0,l),
(249,339,l),
(184,287,l),
(435,0,l)
);
}
);
width = 570;
}
);
metricLeft = k;
metricRight = k;
unicode = 409;
},
{
glyphname = l;
kernLeft = b;
kernRight = d;
lastChange = "2021-06-11 14:58:34 +0000";
layers = (
{
anchors = (
{
name = bottom;
pos = (124,0);
},
{
name = center;
pos = (124,391);
},
{
name = top;
pos = (124,782);
},
{
name = topright;
pos = (197,601);
}
);
hints = (
{
horizontal = 1;
origin = (0,3);
target = (0,2);
type = Stem;
},
{
origin = (0,3);
target = (0,0);
type = Stem;
}
);
layerId = "438E98ED-2DA7-4574-8792-8200075D96E5";
shapes = (
{
closed = 1;
nodes = (
(169,0,l),
(169,782,l),
(78,782,l),
(78,0,l)
);
}
);
width = 247;
}
);
unicode = 108;
},
{
glyphname = lslash;
kernLeft = b;
kernRight = d;
lastChange = "2021-06-12 14:54:02 +0000";
layers = (
{
layerId = "438E98ED-2DA7-4574-8792-8200075D96E5";
shapes = (
{
closed = 1;
nodes = (
(209,0,l),
(209,782,l),
(118,782,l),
(118,0,l)
);
},
{
closed = 1;
nodes = (
(58,330,l),
(269,419,l),
(269,505,l),
(58,416,l)
);
}
);
width = 327;
}
);
unicode = 322;
},
{
glyphname = m;
kernLeft = m;
kernRight = a;
lastChange = "2021-06-11 14:58:34 +0000";
layers = (
{
anchors = (
{
name = bottom;
pos = (457,0);
},
{
name = top;
pos = (457,504);
}
);
hints = (
{
horizontal = 1;
origin = (0,4);
target = (0,31);
type = Stem;
},
{
horizontal = 1;
origin = (0,4);
target = (0,36);
type = Stem;
},
{
origin = (0,37);
target = (0,0);
type = Stem;
},
{
origin = (0,8);
target = (0,9);
type = Stem;
},
{
origin = (0,17);
target = (0,18);
type = Stem;
}
);
layerId = "438E98ED-2DA7-4574-8792-8200075D96E5";
shapes = (
{
closed = 1;
nodes = (
(169,0,l),
(169,331,l),
(168,375,o),
(200,434,o),
(292,434,cs),
(384,434,o),
(418,375,o),
(418,331,c),
(418,0,l),
(507,0,l),
(507,331,l),
(506,375,o),
(538,434,o),
(630,434,cs),
(722,434,o),
(755,375,o),
(755,331,c),
(755,0,l),
(846,0,l),
(846,331,ls),
(846,348,o),
(845,385,o),
(837,411,cs),
(819,477,o),
(748,524,o),
(658,524,cs),
(559,524,o),
(496,464,o),
(487,452,c),
(463,483,o),
(401,524,o),
(320,524,cs),
(220,524,o),
(176,463,o),
(169,452,c),
(169,504,l),
(78,504,l),
(78,0,l)
);
}
);
width = 913;
}
);
unicode = 109;
},
{
glyphname = n;
kernLeft = m;
kernRight = a;
lastChange = "2021-06-26 17:49:55 +0000";
layers = (
{
anchors = (
{
name = bottom;
pos = (320,0);
},
{
name = top;
pos = (320,522);
}
);
hints = (
{
horizontal = 1;
origin = (0,25);
target = up;
type = BottomGhost;
},
{
horizontal = 1;
origin = (0,19);
target = (0,7);
type = Stem;
},
{
horizontal = 1;
origin = (0,24);
target = down;
type = TopGhost;
},
{
origin = (0,25);
target = (0,0);
type = Stem;
},
{
origin = (0,14);
target = (0,15);
type = Stem;
}
);
layerId = "438E98ED-2DA7-4574-8792-8200075D96E5";
shapes = (
{
closed = 1;
nodes = (
(171,0,l),
(171,302,ls),
(171,313,o),
(171,326,o),
(173,337,cs),
(184,397,o),
(261,433,o),
(335,433,cs),
(399,433,o),
(456,406,o),
(472,355,cs),
(477,338,o),
(479,321,o),
(479,304,cs),
(479,0,l),
(572,0,l),
(572,308,ls),
(572,456,o),
(492,525,o),
(352,524,cs),
(247,523,o),
(187,481,o),
(171,450,c),
(171,504,l),
(78,504,l),
(78,0,l)
);
}
);
width = 637;
}
);
unicode = 110;
},
{
glyphname = eng;
kernLeft = m;
kernRight = eng;
lastChange = "2020-07-26 01:10:46 +0000";
layers = (
{
layerId = "438E98ED-2DA7-4574-8792-8200075D96E5";
shapes = (
{
closed = 1;
nodes = (
(169,0,l),
(169,302,ls),
(169,313,o),
(169,326,o),
(171,337,cs),
(182,397,o),
(259,433,o),
(333,433,cs),
(397,433,o),
(452,406,o),
(470,355,cs),
(476,338,o),
(477,321,o),
(477,304,cs),
(477,3,ls),
(477,-166,o),
(451,-188,o),
(358,-185,cs),
(328,-184,l),
(324,-278,l),
(362,-278,ls),
(499,-278,o),
(568,-275,o),
(568,0,cs),
(568,308,ls),
(568,456,o),
(498,525,o),
(350,524,cs),
(245,523,o),
(185,481,o),
(169,450,c),
(169,504,l),
(78,504,l),
(78,0,l)
);
}
);
width = 635;
}
);
unicode = 331;
},
{
glyphname = o;
kernLeft = c;
kernRight = b;
lastChange = "2021-06-11 14:58:34 +0000";
layers = (
{
anchors = (
{
name = bottom;
pos = (314,0);
},
{
name = center;
pos = (314,252);
},
{
name = ogonek;
pos = (378,-10);
},
{
name = top;
pos = (314,504);
},
{
name = topright;
pos = (609,504);
}
);
hints = (
{
horizontal = 1;
origin = (1,11);
target = (0,11);
type = Stem;
},
{
horizontal = 1;
origin = (0,5);
target = (1,5);
type = Stem;
},
{
origin = (0,8);
target = (1,2);
type = Stem;
},
{
origin = (1,8);
target = (0,2);
type = Stem;
}
);
layerId = "438E98ED-2DA7-4574-8792-8200075D96E5";
shapes = (
{
closed = 1;
nodes = (
(515,-14,o),
(586,135,o),
(586,255,cs),
(586,375,o),
(515,524,o),
(313,524,cs),
(112,524,o),
(41,375,o),
(41,255,cs),
(41,135,o),
(112,-14,o),
(313,-14,cs)
);
},
{
closed = 1;
nodes = (
(204,76,o),
(136,142,o),
(136,255,cs),
(136,368,o),
(202,434,o),
(313,434,cs),
(424,434,o),
(491,368,o),
(491,255,cs),
(491,142,o),
(422,76,o),
(313,76,cs)
);
}
);
width = 627;
}
);
unicode = 111;
},
{
glyphname = oslash;
kernLeft = c;
kernRight = b;
lastChange = "2021-06-12 14:54:02 +0000";
layers = (
{
layerId = "438E98ED-2DA7-4574-8792-8200075D96E5";
shapes = (
{
closed = 1;
nodes = (
(515,-14,o),
(586,135,o),
(586,255,cs),
(586,375,o),
(515,524,o),
(313,524,cs),
(112,524,o),
(41,375,o),
(41,255,cs),
(41,135,o),
(112,-14,o),
(313,-14,cs)
);
},
{
closed = 1;
nodes = (
(204,76,o),
(136,142,o),
(136,255,cs),
(136,368,o),
(202,434,o),
(313,434,cs),
(424,434,o),
(491,368,o),
(491,255,cs),
(491,142,o),
(422,76,o),
(313,76,cs)
);
},
{
closed = 1;
nodes = (
(321,210,o),
(357,252,o),
(573,472,c),
(514,525,l),
(302,301,o),
(268,259,o),
(52,39,c),
(108,-15,l)
);
}
);
width = 627;
}
);
unicode = 248;
},
{
glyphname = oe;
kernLeft = c;
kernRight = e;
lastChange = "2021-06-12 14:54:02 +0000";
layers = (
{
anchors = (
{
name = bottom;
pos = (322,0);
},
{
name = top;
pos = (322,504);
}
);
background = {
shapes = (
{
closed = 1;
nodes = (
(388,-14,o),
(442,7,o),
(484,102,c),
(472,126,l),
(505,49,o),
(556,-14,o),
(673,-14,cs),
(755,-14,o),
(885,6,o),
(906,147,c),
(811,147,l),
(779,87,o),
(723,74,o),
(673,74,cs),
(600,74,o),
(532,119,o),
(532,231,cs),
(532,234,l),
(917,234,l),
(917,496,o),
(793,524,o),
(679,524,cs),
(591,524,o),
(543,489,o),
(504,439,c),
(474,499,o),
(416,520,o),
(333,524,c),
(105,524,o),
(100,364,o),
(100,364,c),
(191,364,l),
(209,402,o),
(240,436,o),
(318,436,cs),
(389,436,o),
(446,392,o),
(446,319,c),
(272,307,ls),
(162,299,o),
(80,275,o),
(80,159,cs),
(80,83,o),
(141,-14,o),
(272,-14,cs)
);
},
{
closed = 1;
nodes = (
(185,74,o),
(172,131,o),
(172,159,cs),
(172,207,o),
(194,220,o),
(280,227,cs),
(302,229,o),
(445,237,o),
(445,237,c),
(445,185,ls),
(445,116,o),
(379,74,o),
(303,74,cs)
);
},
{
closed = 1;
nodes = (
(539,317,ls),
(539,394,o),
(593,436,o),
(673,436,cs),
(741,436,o),
(812,419,o),
(818,316,c),
(539,316,l)
);
}
);
};
layerId = "438E98ED-2DA7-4574-8792-8200075D96E5";
shapes = (
{
closed = 1;
nodes = (
(486,415,o),
(491,398,o),
(490,378,c),
(484,102,l),
(472,126,l),
(505,49,o),
(561,-14,o),
(678,-14,cs),
(768,-14,o),
(885,6,o),
(906,147,c),
(821,147,l),
(789,87,o),
(728,74,o),
(678,74,cs),
(608,74,o),
(542,108,o),
(542,231,cs),
(542,234,l),
(917,234,l),
(917,496,o),
(810,524,o),
(684,524,cs),
(596,524,o),
(543,489,o),
(504,439,c)
);
},
{
closed = 1;
nodes = (
(542,317,ls),
(542,394,o),
(604,436,o),
(678,436,cs),
(746,436,o),
(822,419,o),
(828,316,c),
(542,316,l)
);
},
{
closed = 1;
nodes = (
(497,427,l),
(452,482,o),
(378,523,o),
(302,524,cs),
(124,526,o),
(41,386,o),
(41,255,cs),
(41,125,o),
(125,-13,o),
(303,-13,cs),
(379,-13,o),
(474,21,o),
(505,72,c)
);
},
{
closed = 1;
nodes = (
(188,73,o),
(134,146,o),
(134,255,cs),
(134,365,o),
(188,437,o),
(302,434,cs),
(414,431,o),
(470,363,o),
(470,255,cs),
(470,147,o),
(414,79,o),
(302,76,cs)
);
}
);
width = 958;
}
);
unicode = 339;
},
{
glyphname = p;
kernLeft = m;
kernRight = b;
lastChange = "2021-06-11 14:58:34 +0000";
layers = (
{
anchors = (
{
name = bottom;
pos = (320,0);
},
{
name = top;
pos = (320,504);
}
);
hints = (
{
horizontal = 1;
origin = (1,11);
target = (0,4);
type = Stem;
},
{
horizontal = 1;
origin = (0,14);
target = (1,5);
type = Stem;
},
{
horizontal = 1;
origin = (0,15);
target = (1,5);
type = Stem;
},
{
origin = (0,16);
target = (0,0);
type = Stem;
},
{
origin = (1,8);
target = (0,7);
type = Stem;
}
);
layerId = "438E98ED-2DA7-4574-8792-8200075D96E5";
shapes = (
{
closed = 1;
nodes = (
(170,-278,l),
(170,59,l),
(201,18,o),
(262,-14,o),
(338,-14,cs),
(516,-14,o),
(599,125,o),
(599,255,cs),
(599,386,o),
(516,524,o),
(338,524,cs),
(262,524,o),
(201,488,o),
(170,450,c),
(170,504,l),
(78,504,l),
(78,-278,l)
);
},
{
closed = 1;
nodes = (
(226,79,o),
(170,147,o),
(170,255,cs),
(170,363,o),
(226,431,o),
(338,434,cs),
(452,437,o),
(506,365,o),
(506,255,cs),
(506,146,o),
(452,73,o),
(338,76,cs)
);
}
);
width = 639;
}
);
unicode = 112;
},
{
color = 1;
glyphname = thorn;
kernLeft = m;
kernRight = b;
lastChange = "2020-07-14 02:14:22 +0000";
layers = (
{
layerId = "438E98ED-2DA7-4574-8792-8200075D96E5";
shapes = (
{
closed = 1;
nodes = (
(169,-278,l),
(169,59,l),
(200,18,o),
(261,-14,o),
(337,-14,cs),
(515,-14,o),
(598,125,o),
(598,255,cs),
(598,386,o),
(515,524,o),
(337,524,cs),
(261,524,o),
(200,488,o),
(169,450,c),
(169,782,l),
(78,782,l),
(78,-278,l)
);
},
{
closed = 1;
nodes = (
(225,79,o),
(169,147,o),
(169,255,cs),
(169,363,o),
(225,431,o),
(337,434,cs),
(451,437,o),
(505,365,o),
(505,255,cs),
(505,146,o),
(451,73,o),
(337,76,cs)
);
}
);
width = 638;
}
);
metricLeft = l;
metricRight = p;
unicode = 254;
},
{
glyphname = q;
kernLeft = c;
kernRight = q;
lastChange = "2020-03-17 19:59:20 +0000";
layers = (
{
anchors = (
{
name = bottom;
pos = (319,0);
},
{
name = top;
pos = (319,504);
}
);
layerId = "438E98ED-2DA7-4574-8792-8200075D96E5";
shapes = (
{
closed = 1;
nodes = (
(561,-278,l),
(561,504,l),
(469,504,l),
(469,450,l),
(438,488,o),
(377,523,o),
(301,524,cs),
(123,526,o),
(40,386,o),
(40,255,cs),
(40,125,o),
(123,-14,o),
(301,-14,cs),
(377,-14,o),
(438,18,o),
(469,59,c),
(469,-278,l)
);
},
{
closed = 1;
nodes = (
(187,73,o),
(133,146,o),
(133,255,cs),
(133,365,o),
(187,437,o),
(301,434,cs),
(413,431,o),
(469,363,o),
(469,255,cs),
(469,147,o),
(413,79,o),
(301,76,cs)
);
}
);
width = 639;
}
);
unicode = 113;
},
{
glyphname = qpdigraph;
kernLeft = c;
kernRight = b;
lastChange = "2021-06-27 09:57:58 +0000";
layers = (
{
layerId = "438E98ED-2DA7-4574-8792-8200075D96E5";
shapes = (
{
pos = (391,0);
ref = p;
},
{
closed = 1;
nodes = (
(561,-278,l),
(561,504,l),
(469,504,l),
(469,450,l),
(438,488,o),
(377,523,o),
(301,524,cs),
(123,526,o),
(40,386,o),
(40,255,cs),
(40,125,o),
(123,-14,o),
(301,-14,cs),
(377,-14,o),
(438,18,o),
(469,59,c),
(469,-278,l)
);
},
{
closed = 1;
nodes = (
(187,73,o),
(133,146,o),
(133,255,cs),
(133,365,o),
(187,437,o),
(301,434,cs),
(413,431,o),
(469,363,o),
(469,255,cs),
(469,147,o),
(413,79,o),
(301,76,cs)
);
}
);
width = 1030;
}
);
metricLeft = q;
metricRight = p;
unicode = 569;
},
{
glyphname = r;
kernLeft = m;
kernRight = r;
lastChange = "2020-03-17 19:49:06 +0000";
layers = (
{
anchors = (
{
name = bottom;
pos = (125,0);
},
{
name = top;
pos = (216,504);
}
);
layerId = "438E98ED-2DA7-4574-8792-8200075D96E5";
shapes = (
{
closed = 1;
nodes = (
(171,0,l),
(171,302,ls),
(171,313,o),
(171,326,o),
(173,337,cs),
(184,397,o),
(261,433,o),
(335,433,cs),
(349,433,o),
(362,432,o),
(375,429,c),
(393,522,l),
(380,524,o),
(367,524,o),
(352,524,cs),
(247,524,o),
(187,481,o),
(171,450,c),
(171,504,l),
(78,504,l),
(78,0,l)
);
}
);
width = 429;
}
);
unicode = 114;
},
{
glyphname = s;
kernLeft = s;
kernRight = s;
lastChange = "2021-06-26 17:52:46 +0000";
layers = (
{
anchors = (
{
name = bottom;
pos = (303,-11);
},
{
name = top;
pos = (285,504);
}
);
layerId = "438E98ED-2DA7-4574-8792-8200075D96E5";
shapes = (
{
closed = 1;
nodes = (
(432,-14,o),
(516,40,o),
(516,160,cs),
(516,245,o),
(444,287,o),
(356,300,cs),
(233,318,ls),
(171,327,o),
(154,339,o),
(154,372,cs),
(154,428,o),
(220,437,o),
(286,437,cs),
(350,437,o),
(403,412,o),
(417,376,c),
(510,376,l),
(507,440,o),
(442,524,o),
(276,524,cs),
(145,524,o),
(59,478,o),
(59,372,cs),
(59,275,o),
(135,239,o),
(213,228,cs),
(331,211,ls),
(396,202,o),
(420,190,o),
(420,152,cs),
(420,95,o),
(377,76,o),
(285,76,cs),
(208,76,o),
(160,99,o),
(149,146,c),
(54,146,l),
(54,77,o),
(118,-14,o),
(301,-14,c)
);
}
);
width = 569;
}
);
unicode = 115;
},
{
glyphname = germandbls;
kernLeft = u;
kernRight = three;
lastChange = "2021-06-26 17:52:48 +0000";
layers = (
{
layerId = "438E98ED-2DA7-4574-8792-8200075D96E5";
shapes = (
{
closed = 1;
nodes = (
(162,0,l),
(162,566,ls),
(162,668,o),
(239,704,o),
(317,704,cs),
(398,704,o),
(449,669,o),
(449,582,cs),
(449,513,o),
(369,470,o),
(304,449,cs),
(257,434,o),
(259,366,o),
(304,358,cs),
(380,344,o),
(466,298,o),
(466,207,cs),
(466,106,o),
(362,76,o),
(269,76,c),
(269,-14,l),
(457,-14,o),
(561,85,o),
(561,207,cs),
(561,295,o),
(520,364,o),
(443,409,c),
(500,445,o),
(538,508,o),
(538,582,cs),
(538,710,o),
(465,796,o),
(311,796,cs),
(158,796,o),
(65,704,o),
(65,566,cs),
(65,0,l)
);
}
);
width = 595;
}
);
unicode = 223;
},
{
glyphname = longs;
kernLeft = f;
kernRight = longs;
lastChange = "2021-06-26 17:53:51 +0000";
layers = (
{
anchors = (
{
name = bottom;
pos = (196,0);
},
{
name = top;
pos = (196,504);
}
);
layerId = "438E98ED-2DA7-4574-8792-8200075D96E5";
shapes = (
{
closed = 1;
nodes = (
(220,0,l),
(220,611,ls),
(220,699,o),
(264,695,o),
(339,690,cs),
(355,689,l),
(361,780,l),
(335,780,ls),
(198,780,o),
(129,779,o),
(129,604,cs),
(129,0,l)
);
},
{
closed = 1;
nodes = (
(196,422,l),
(200,504,l),
(30,504,l),
(30,422,l)
);
}
);
width = 388;
}
);
unicode = 383;
},
{
glyphname = t;
kernLeft = t;
kernRight = t;
lastChange = "2021-06-26 17:53:48 +0000";
layers = (
{
anchors = (
{
name = bottom;
pos = (253,6);
},
{
name = center;
pos = (204,252);
},
{
name = top;
pos = (204,683);
},
{
name = topright;
pos = (252,504);
}
);
layerId = "438E98ED-2DA7-4574-8792-8200075D96E5";
shapes = (
{
closed = 1;
nodes = (
(366,0,l),
(363,91,l),
(334,90,ls),
(261,87,o),
(225,89,o),
(225,169,cs),
(225,683,l),
(134,683,l),
(134,176,ls),
(134,0,o),
(193,0,o),
(330,0,cs)
);
},
{
closed = 1;
nodes = (
(369,422,l),
(368,504,l),
(35,504,l),
(35,422,l)
);
},
{
closed = 0;
nodes = (
(134,683,l)
);
}
);
width = 407;
}
);
unicode = 116;
},
{
glyphname = tbar;
kernLeft = t;
kernRight = t;
lastChange = "2021-06-16 13:09:05 +0000";
layers = (
{
layerId = "438E98ED-2DA7-4574-8792-8200075D96E5";
shapes = (
{
closed = 1;
nodes = (
(366,0,l),
(363,91,l),
(334,90,ls),
(261,87,o),
(225,89,o),
(225,169,cs),
(225,683,l),
(134,683,l),
(134,176,ls),
(134,0,o),
(193,0,o),
(330,0,cs)
);
},
{
closed = 1;
nodes = (
(369,422,l),
(368,504,l),
(35,504,l),
(35,422,l)
);
},
{
closed = 0;
nodes = (
(134,683,l)
);
},
{
closed = 1;
nodes = (
(369,237,l),
(368,305,l),
(35,305,l),
(35,237,l)
);
}
);
width = 408;
}
);
unicode = 359;
},
{
glyphname = u;
kernLeft = u;
kernRight = u;
lastChange = "2021-06-26 17:54:22 +0000";
layers = (
{
anchors = (
{
name = bottom;
pos = (318,0);
},
{
name = ogonek;
pos = (572,10);
},
{
name = top;
pos = (318,504);
},
{
name = topright;
pos = (616,504);
}
);
layerId = "438E98ED-2DA7-4574-8792-8200075D96E5";
shapes = (
{
closed = 1;
nodes = (
(390,-14,o),
(450,26,o),
(465,55,c),
(465,0,l),
(558,0,l),
(558,504,l),
(465,504,l),
(465,202,ls),
(465,191,o),
(465,178,o),
(463,167,cs),
(452,107,o),
(378,78,o),
(304,78,cs),
(210,78,o),
(164,113,o),
(164,201,cs),
(164,504,l),
(71,504,l),
(71,197,ls),
(71,52,o),
(141,-14,o),
(285,-14,cs)
);
}
);
width = 636;
}
);
unicode = 117;
},
{
glyphname = v;
kernLeft = v;
kernRight = v;
lastChange = "2021-06-26 17:54:28 +0000";
layers = (
{
anchors = (
{
name = bottom;
pos = (291,0);
},
{
name = top;
pos = (291,504);
}
);
hints = (
{
horizontal = 1;
origin = (0,6);
target = (0,5);
type = Stem;
},
{
origin = (0,5);
target = (0,1);
type = Stem;
}
);
layerId = "438E98ED-2DA7-4574-8792-8200075D96E5";
shapes = (
{
closed = 1;
nodes = (
(346,0,l),
(549,504,l),
(450,504,l),
(291,96,l),
(133,504,l),
(34,504,l),
(238,0,l)
);
}
);
width = 582;
}
);
unicode = 118;
},
{
glyphname = w;
kernLeft = w;
kernRight = w;
lastChange = "2021-06-26 17:54:37 +0000";
layers = (
{
anchors = (
{
name = bottom;
pos = (416,0);
},
{
name = top;
pos = (416,504);
}
);
annotations = (
{
pos = (252.451,598.955);
text = thicker;
type = Text;
}
);
layerId = "438E98ED-2DA7-4574-8792-8200075D96E5";
shapes = (
{
closed = 1;
nodes = (
(303,0,l),
(416,381,l),
(531,0,l),
(644,0,l),
(798,504,l),
(702,504,l),
(587,97,l),
(459,504,l),
(373,504,l),
(245,97,l),
(130,504,l),
(35,504,l),
(189,0,l)
);
}
);
width = 832;
}
);
unicode = 119;
},
{
glyphname = x;
kernLeft = x;
kernRight = x;
lastChange = "2021-06-26 17:54:44 +0000";
layers = (
{
anchors = (
{
name = bottom;
pos = (292,0);
},
{
name = top;
pos = (292,504);
}
);
layerId = "438E98ED-2DA7-4574-8792-8200075D96E5";
shapes = (
{
closed = 1;
nodes = (
(137,0,l),
(290,213,l),
(444,0,l),
(552,0,l),
(350,267,l),
(529,504,l),
(426,504,l),
(293,325,l),
(157,504,l),
(46,504,l),
(231,267,l),
(32,0,l)
);
}
);
width = 584;
}
);
unicode = 120;
},
{
glyphname = y;
kernLeft = y;
kernRight = v;
lastChange = "2021-06-26 17:54:58 +0000";
layers = (
{
anchors = (
{
name = bottom;
pos = (291,0);
},
{
name = top;
pos = (291,504);
}
);
guides = (
{
angle = 69;
pos = (271,19);
}
);
hints = (
{
horizontal = 1;
origin = (0,15);
target = (0,14);
type = Stem;
},
{
origin = (0,8);
target = (0,4);
type = Stem;
}
);
layerId = "438E98ED-2DA7-4574-8792-8200075D96E5";
shapes = (
{
closed = 1;
nodes = (
(156,-278,ls),
(245,-278,o),
(259,-268,o),
(323,-99,cs),
(552,504,l),
(454,504,l),
(294,79,l),
(132,504,l),
(33,504,l),
(249,-38,l),
(223,-107,ls),
(195,-180,o),
(177,-189,o),
(104,-187,cs),
(68,-186,l),
(65,-278,l)
);
}
);
width = 591;
}
);
unicode = 121;
},
{
glyphname = z;
kernLeft = z;
kernRight = z;
lastChange = "2021-06-26 17:55:04 +0000";
layers = (
{
anchors = (
{
name = bottom;
pos = (274,0);
},
{
name = center;
pos = (274,252);
},
{
name = top;
pos = (274,504);
}
);
layerId = "438E98ED-2DA7-4574-8792-8200075D96E5";
shapes = (
{
closed = 1;
nodes = (
(165,82,l),
(495,423,l),
(382,423,l),
(50,82,l)
);
},
{
closed = 1;
nodes = (
(495,0,l),
(495,82,l),
(50,82,l),
(50,0,l)
);
},
{
closed = 1;
nodes = (
(495,423,l),
(495,504,l),
(50,504,l),
(50,423,l)
);
}
);
width = 547;
}
);
unicode = 122;
},
{
glyphname = a.ss01;
kernLeft = c;
kernRight = q;
lastChange = "2020-07-15 17:37:17 +0000";
layers = (
{
anchors = (
{
name = bottom;
pos = (319,0);
},
{
name = ogonek;
pos = (570,0);
},
{
name = top;
pos = (319,504);
}
);
layerId = "438E98ED-2DA7-4574-8792-8200075D96E5";
shapes = (
{
closed = 1;
nodes = (
(377,-14,o),
(438,18,o),
(469,59,c),
(469,0,l),
(560,0,l),
(560,504,l),
(469,504,l),
(469,450,l),
(438,488,o),
(377,524,o),
(301,524,cs),
(123,524,o),
(40,386,o),
(40,255,cs),
(40,125,o),
(123,-14,o),
(301,-14,cs)
);
},
{
closed = 1;
nodes = (
(187,74,o),
(133,146,o),
(133,255,cs),
(133,365,o),
(187,437,o),
(301,434,cs),
(413,431,o),
(469,363,o),
(469,255,cs),
(469,147,o),
(413,78,o),
(301,76,cs)
);
}
);
width = 638;
}
);
},
{
glyphname = a.ss02;
kernLeft = a;
kernRight = a;
lastChange = "2020-07-15 17:34:53 +0000";
layers = (
{
anchors = (
{
name = bottom;
pos = (301,0);
},
{
name = ogonek;
pos = (545,0);
},
{
name = top;
pos = (301,504);
}
);
layerId = "438E98ED-2DA7-4574-8792-8200075D96E5";
shapes = (
{
closed = 1;
nodes = (
(378,-14,o),
(423,28,o),
(444,55,c),
(444,0,l),
(535,0,l),
(535,307,ls),
(535,471,o),
(458,518,o),
(317,524,cs),
(152,525,o),
(93,448,o),
(93,448,c),
(157,385,l),
(188,415,o),
(240,434,o),
(300,434,cs),
(379,434,o),
(443,392,o),
(443,319,c),
(248,307,ls),
(126,299,o),
(45,275,o),
(45,159,cs),
(45,83,o),
(102,-14,o),
(248,-14,cs)
);
},
{
closed = 1;
nodes = (
(151,77,o),
(137,131,o),
(137,159,cs),
(137,207,o),
(162,220,o),
(258,227,cs),
(282,229,o),
(442,237,o),
(442,237,c),
(442,185,ls),
(442,116,o),
(368,77,o),
(283,77,cs)
);
}
);
width = 601;
}
);
},
{
glyphname = e.ss02;
kernLeft = c;
kernRight = e;
lastChange = "2020-02-27 19:09:38 +0000";
layers = (
{
anchors = (
{
name = bottom;
pos = (316,-11);
},
{
name = ogonek;
pos = (415,-4);
},
{
name = top;
pos = (310,504);
}
);
annotations = (
{
pos = (485.336,650.134);
text = thinner;
type = Text;
}
);
background = {
shapes = (
{
closed = 1;
nodes = (
(411,-14,o),
(473,15,o),
(516,59,c),
(451,123,l),
(420,93,o),
(376,76,o),
(320,76,cs),
(211,76,o),
(142,142,o),
(142,255,cs),
(142,368,o),
(209,434,o),
(320,434,cs),
(376,434,o),
(421,418,o),
(451,387,c),
(516,451,l),
(473,494,o),
(410,524,o),
(320,524,cs),
(119,524,o),
(47,375,o),
(47,255,cs),
(47,135,o),
(119,-14,o),
(320,-14,cs)
);
}
);
};
layerId = "438E98ED-2DA7-4574-8792-8200075D96E5";
shapes = (
{
closed = 1;
nodes = (
(421,-14,o),
(495,22,o),
(540,93,c),
(475,151,l),
(434,102,o),
(401,76,o),
(314,76,cs),
(213,76,o),
(151,133,o),
(143,231,cs),
(143,234,l),
(574,234,l),
(574,480,o),
(412,524,o),
(313,524,cs),
(112,524,o),
(47,375,o),
(47,255,cs),
(47,135,o),
(113,-14,o),
(314,-14,cs)
);
},
{
closed = 1;
nodes = (
(150,317,ls),
(169,392,o),
(224,434,o),
(313,434,cs),
(369,434,o),
(447,419,o),
(477,316,c),
(150,316,l)
);
}
);
width = 619;
}
);
},
{
glyphname = g.ss02;
kernLeft = g;
kernRight = g;
lastChange = "2020-07-17 21:04:40 +0000";
layers = (
{
anchors = (
{
name = bottom;
pos = (341,-275);
},
{
name = top;
pos = (314,504);
}
);
background = {
shapes = (
{
closed = 0;
nodes = (
(133,-208,l),
(198,-144,l)
);
}
);
};
layerId = "438E98ED-2DA7-4574-8792-8200075D96E5";
shapes = (
{
closed = 1;
nodes = (
(459,-274,o),
(567,-242,o),
(567,-63,cs),
(567,497,l),
(476,497,l),
(476,444,l),
(447,483,o),
(384,516,o),
(311,516,cs),
(122,516,o),
(54,383,o),
(54,251,cs),
(54,119,o),
(122,-14,o),
(311,-14,c),
(384,-14,o),
(447,19,o),
(476,58,c),
(476,-66,ls),
(476,-158,o),
(440,-188,o),
(334,-188,cs),
(258,-188,o),
(196,-171,o),
(155,-100,c),
(83,-152,l),
(145,-250,o),
(228,-278,o),
(350,-278,c)
);
},
{
closed = 1;
nodes = (
(221,76,o),
(150,151,o),
(150,251,cs),
(150,348,o),
(220,426,o),
(311,426,cs),
(312,426,ls),
(407,426,o),
(473,358,o),
(476,251,c),
(473,147,o),
(410,76,o),
(312,76,cs),
(311,76,ls)
);
}
);
width = 641;
}
);
},
{
glyphname = s.ss02;
kernLeft = s;
kernRight = s;
lastChange = "2020-02-27 19:08:42 +0000";
layers = (
{
anchors = (
{
name = bottom;
pos = (297,-12);
},
{
name = top;
pos = (285,504);
}
);
background = {
shapes = (
{
closed = 0;
nodes = (
(98,47,l),
(163,111,l),
(398,408,l),
(463,472,l)
);
},
{
closed = 1;
nodes = (
(439,-10,o),
(517,31,o),
(517,161,cs),
(517,260,o),
(417,291,o),
(354,300,cs),
(234,317,ls),
(172,326,o),
(149,337,o),
(149,370,cs),
(149,431,o),
(211,447,o),
(287,447,cs),
(371,447,o),
(407,412,o),
(421,376,c),
(511,376,l),
(511,376,o),
(504,524,o),
(277,524,cs),
(146,524,o),
(60,478,o),
(60,370,cs),
(60,273,o),
(136,242,o),
(214,231,cs),
(332,214,ls),
(393,205,o),
(427,187,o),
(427,152,cs),
(427,81,o),
(368,66,o),
(286,66,cs),
(199,66,o),
(160,99,o),
(149,146,c),
(55,146,l),
(55,146,o),
(51,-14,o),
(302,-14,c)
);
}
);
};
layerId = "438E98ED-2DA7-4574-8792-8200075D96E5";
shapes = (
{
closed = 1;
nodes = (
(430,-14,o),
(517,31,o),
(517,161,cs),
(517,260,o),
(417,291,o),
(354,300,cs),
(234,317,ls),
(172,326,o),
(149,337,o),
(149,370,cs),
(149,431,o),
(211,447,o),
(287,447,cs),
(344,447,o),
(403,424,o),
(429,379,c),
(490,439,l),
(441,499,o),
(371,524,o),
(277,524,cs),
(146,524,o),
(60,478,o),
(60,370,cs),
(60,273,o),
(136,242,o),
(214,231,cs),
(332,214,ls),
(393,205,o),
(427,187,o),
(427,152,cs),
(427,81,o),
(368,66,o),
(286,66,cs),
(222,66,o),
(165,85,o),
(119,153,c),
(54,93,l),
(104,14,o),
(185,-14,o),
(302,-14,c)
);
}
);
width = 570;
}
);
},
{
glyphname = g.ss04;
kernLeft = g;
kernRight = g;
lastChange = "2020-07-28 05:05:38 +0000";
layers = (
{
anchors = (
{
name = bottom;
pos = (342,-275);
},
{
name = top;
pos = (321,504);
}
);
hints = (
{
horizontal = 1;
origin = (0,21);
target = (0,28);
type = Stem;
},
{
horizontal = 1;
origin = (1,13);
target = (0,14);
type = Stem;
},
{
horizontal = 1;
origin = (0,8);
target = (1,5);
type = Stem;
},
{
horizontal = 1;
origin = (1,5);
target = (0,4);
type = Stem;
},
{
origin = (0,11);
target = (1,2);
type = Stem;
},
{
origin = (0,18);
target = (0,2);
type = Stem;
}
);
layerId = "438E98ED-2DA7-4574-8792-8200075D96E5";
shapes = (
{
closed = 1;
nodes = (
(459,-274,o),
(567,-242,o),
(567,-63,cs),
(567,497,l),
(476,497,l),
(476,444,l),
(447,483,o),
(384,516,o),
(311,516,cs),
(122,516,o),
(54,383,o),
(54,251,cs),
(54,119,o),
(122,-14,o),
(311,-14,c),
(384,-14,o),
(447,19,o),
(476,58,c),
(476,-66,ls),
(476,-164,o),
(440,-191,o),
(334,-191,cs),
(213,-191,o),
(176,-134,o),
(166,-75,c),
(76,-75,l),
(84,-144,o),
(118,-278,o),
(350,-278,c)
);
},
{
closed = 1;
nodes = (
(221,76,o),
(150,151,o),
(150,251,cs),
(150,348,o),
(220,426,o),
(311,426,cs),
(312,426,ls),
(407,426,o),
(473,358,o),
(476,251,c),
(473,147,o),
(410,76,o),
(312,76,cs),
(311,76,ls)
);
}
);
width = 641;
}
);
},
{
glyphname = c_h;
kernLeft = c;
kernRight = a;
lastChange = "2021-06-27 04:02:11 +0000";
layers = (
{
layerId = "438E98ED-2DA7-4574-8792-8200075D96E5";
shapes = (
{
ref = c;
},
{
pos = (538,0);
ref = h;
},
{
closed = 1;
nodes = (
(512,451,l),
(463,496,o),
(447,548,o),
(447,592,cs),
(447,669,o),
(525,688,o),
(616,687,c),
(616,782,l),
(457,782,o),
(371,712,o),
(371,602,cs),
(371,539,o),
(415,476,o),
(446,453,c)
);
}
);
width = 1174;
}
);
metricLeft = c;
metricRight = h;
},
{
glyphname = c_k;
kernLeft = c;
kernRight = k;
lastChange = "2021-06-27 04:02:02 +0000";
layers = (
{
layerId = "438E98ED-2DA7-4574-8792-8200075D96E5";
shapes = (
{
ref = c;
},
{
pos = (538,0);
ref = k;
},
{
closed = 1;
nodes = (
(512,451,l),
(463,496,o),
(447,548,o),
(447,592,cs),
(447,669,o),
(525,688,o),
(616,687,c),
(616,782,l),
(457,782,o),
(371,712,o),
(371,602,cs),
(371,539,o),
(415,476,o),
(446,453,c)
);
}
);
width = 1108;
}
);
metricLeft = c;
metricRight = k;
},
{
glyphname = c_l;
kernLeft = c;
kernRight = d;
lastChange = "2021-06-27 07:02:24 +0000";
layers = (
{
layerId = "438E98ED-2DA7-4574-8792-8200075D96E5";
shapes = (
{
ref = c;
},
{
pos = (538,0);
ref = l;
},
{
closed = 1;
nodes = (
(512,451,l),
(463,496,o),
(447,548,o),
(447,592,cs),
(447,669,o),
(525,688,o),
(616,687,c),
(616,782,l),
(457,782,o),
(371,712,o),
(371,602,cs),
(371,539,o),
(415,476,o),
(446,453,c)
);
}
);
width = 785;
}
);
metricLeft = c;
metricRight = l;
},
{
glyphname = c_t;
kernLeft = c;
kernRight = t;
lastChange = "2021-06-26 18:10:04 +0000";
layers = (
{
layerId = "438E98ED-2DA7-4574-8792-8200075D96E5";
shapes = (
{
closed = 1;
nodes = (
(512,451,l),
(463,496,o),
(447,548,o),
(447,592,cs),
(447,659,o),
(479,709,o),
(570,708,cs),
(656,707,o),
(684,677,o),
(684,635,c),
(739,639,o),
(775,631,o),
(775,649,cs),
(775,667,o),
(783,686,o),
(783,703,cs),
(783,730,o),
(767,752,o),
(738,764,cs),
(703,778,o),
(645,790,o),
(590,790,cs),
(431,790,o),
(371,712,o),
(371,602,cs),
(371,539,o),
(415,476,o),
(446,453,c)
);
},
{
ref = c;
},
{
pos = (550,0);
ref = t;
}
);
width = 957;
}
);
metricLeft = c;
metricRight = t;
},
{
glyphname = f_b;
kernLeft = f;
kernRight = b;
lastChange = "2020-03-19 18:54:47 +0000";
layers = (
{
background = {
shapes = (
{
closed = 1;
nodes = (
(220,0,l),
(220,611,ls),
(220,699,o),
(264,695,o),
(339,690,cs),
(419,685,l),
(419,782,l),
(335,782,ls),
(198,782,o),
(129,779,o),
(129,604,cs),
(129,0,l)
);
},
{
closed = 0;
nodes = (
(219,0,l),
(129,0,l)
);
},
{
closed = 1;
nodes = (
(426,422,l),
(430,504,l),
(30,504,l),
(30,422,l)
);
},
{
pos = (340,0);
ref = l;
}
);
};
layerId = "438E98ED-2DA7-4574-8792-8200075D96E5";
shapes = (
{
closed = 1;
nodes = (
(220,0,l),
(220,611,ls),
(220,699,o),
(264,695,o),
(339,690,cs),
(419,685,l),
(419,782,l),
(335,782,ls),
(198,782,o),
(129,779,o),
(129,604,cs),
(129,0,l)
);
},
{
closed = 1;
nodes = (
(426,422,l),
(430,504,l),
(30,504,l),
(30,422,l)
);
},
{
pos = (340,0);
ref = b;
}
);
width = 979;
}
);
metricLeft = f;
metricRight = b;
},
{
glyphname = f_f;
kernLeft = f;
kernRight = f;
lastChange = "2021-06-16 13:09:25 +0000";
layers = (
{
layerId = "438E98ED-2DA7-4574-8792-8200075D96E5";
shapes = (
{
closed = 1;
nodes = (
(220,0,l),
(220,611,ls),
(220,699,o),
(265,697,o),
(339,690,cs),
(350,689,l),
(356,780,l),
(335,780,ls),
(198,780,o),
(129,779,o),
(129,604,cs),
(129,0,l)
);
},
{
closed = 1;
nodes = (
(336,422,l),
(340,504,l),
(30,504,l),
(30,422,l)
);
},
{
pos = (290,0);
ref = f;
}
);
width = 682;
}
);
metricLeft = f;
metricRight = f;
},
{
glyphname = f_f_b;
kernLeft = f;
kernRight = b;
lastChange = "2021-06-16 13:09:38 +0000";
layers = (
{
anchors = (
{
name = bottom;
pos = (96,0);
},
{
name = top;
pos = (96,782);
}
);
background = {
shapes = (
{
closed = 1;
nodes = (
(220,0,l),
(220,611,ls),
(220,699,o),
(265,697,o),
(339,690,cs),
(350,689,l),
(356,780,l),
(335,780,ls),
(198,780,o),
(129,779,o),
(129,604,cs),
(129,0,l)
);
},
{
closed = 0;
nodes = (
(219,0,l),
(129,0,l)
);
},
{
closed = 1;
nodes = (
(336,422,l),
(340,504,l),
(30,504,l),
(30,422,l)
);
},
{
pos = (290,0);
ref = f;
}
);
};
layerId = "438E98ED-2DA7-4574-8792-8200075D96E5";
shapes = (
{
closed = 1;
nodes = (
(220,0,l),
(220,611,ls),
(220,699,o),
(265,697,o),
(339,690,cs),
(350,689,l),
(356,780,l),
(335,780,ls),
(198,780,o),
(129,779,o),
(129,604,cs),
(129,0,l)
);
},
{
closed = 1;
nodes = (
(336,422,l),
(340,504,l),
(30,504,l),
(30,422,l)
);
},
{
pos = (290,0);
ref = f_b;
}
);
width = 1269;
}
);
metricLeft = f;
metricRight = b;
},
{
glyphname = f_f_h;
kernLeft = f;
kernRight = a;
lastChange = "2021-06-16 13:09:48 +0000";
layers = (
{
background = {
shapes = (
{
closed = 1;
nodes = (
(220,0,l),
(220,611,ls),
(220,699,o),
(265,697,o),
(339,690,cs),
(350,689,l),
(356,780,l),
(335,780,ls),
(198,780,o),
(129,779,o),
(129,604,cs),
(129,0,l)
);
},
{
closed = 0;
nodes = (
(219,0,l),
(129,0,l)
);
},
{
closed = 1;
nodes = (
(336,422,l),
(340,504,l),
(30,504,l),
(30,422,l)
);
},
{
pos = (290,0);
ref = f;
}
);
};
layerId = "438E98ED-2DA7-4574-8792-8200075D96E5";
shapes = (
{
closed = 1;
nodes = (
(220,0,l),
(220,611,ls),
(220,699,o),
(265,697,o),
(339,690,cs),
(350,689,l),
(356,780,l),
(335,780,ls),
(198,780,o),
(129,779,o),
(129,604,cs),
(129,0,l)
);
},
{
closed = 1;
nodes = (
(336,422,l),
(340,504,l),
(30,504,l),
(30,422,l)
);
},
{
pos = (290,0);
ref = f_h;
}
);
width = 1270;
}
);
metricLeft = f;
metricRight = h;
},
{
glyphname = f_f_i;
kernLeft = f;
kernRight = i;
lastChange = "2021-06-16 13:14:14 +0000";
layers = (
{
background = {
shapes = (
{
pos = (290,0);
ref = f;
}
);
};
layerId = "438E98ED-2DA7-4574-8792-8200075D96E5";
shapes = (
{
closed = 1;
nodes = (
(220,0,l),
(220,611,ls),
(220,699,o),
(265,697,o),
(339,690,cs),
(350,689,l),
(356,780,l),
(335,780,ls),
(198,780,o),
(129,779,o),
(129,604,cs),
(129,0,l)
);
},
{
closed = 1;
nodes = (
(336,422,l),
(340,504,l),
(30,504,l),
(30,422,l)
);
},
{
closed = 1;
nodes = (
(510,0,l),
(510,611,ls),
(510,699,o),
(584,713,o),
(629,690,cs),
(717,645,l),
(769,762,l),
(732,776,o),
(683,779,o),
(625,780,cs),
(489,782,o),
(419,779,o),
(419,604,cs),
(419,0,l)
);
},
{
closed = 1;
nodes = (
(770,422,l),
(774,504,l),
(320,504,l),
(320,422,l)
);
},
{
closed = 1;
nodes = (
(800,0,l),
(800,504,l),
(709,504,l),
(709,0,l)
);
},
{
closed = 1;
nodes = (
(779,639,o),
(808,667,o),
(808,703,cs),
(808,739,o),
(779,767,o),
(744,767,cs),
(709,767,o),
(680,739,o),
(680,703,cs),
(680,667,o),
(709,639,o),
(744,639,cs)
);
}
);
width = 866;
}
);
metricLeft = f;
metricRight = i;
},
{
glyphname = f_f_j;
kernLeft = f;
kernRight = i;
lastChange = "2021-06-16 13:11:00 +0000";
layers = (
{
layerId = "438E98ED-2DA7-4574-8792-8200075D96E5";
shapes = (
{
closed = 1;
nodes = (
(220,0,l),
(220,611,ls),
(220,699,o),
(265,697,o),
(339,690,cs),
(350,689,l),
(356,780,l),
(335,780,ls),
(198,780,o),
(129,779,o),
(129,604,cs),
(129,0,l)
);
},
{
closed = 1;
nodes = (
(336,422,l),
(340,504,l),
(30,504,l),
(30,422,l)
);
},
{
pos = (290,0);
ref = f_j;
}
);
width = 858;
}
);
metricLeft = f;
metricRight = j;
},
{
glyphname = f_f_k;
kernLeft = f;
kernRight = k;
lastChange = "2021-06-16 13:11:24 +0000";
layers = (
{
background = {
shapes = (
{
closed = 1;
nodes = (
(220,0,l),
(220,611,ls),
(220,699,o),
(265,697,o),
(339,690,cs),
(350,689,l),
(356,780,l),
(335,780,ls),
(198,780,o),
(129,779,o),
(129,604,cs),
(129,0,l)
);
},
{
closed = 0;
nodes = (
(219,0,l),
(129,0,l)
);
},
{
closed = 1;
nodes = (
(336,422,l),
(340,504,l),
(30,504,l),
(30,422,l)
);
},
{
pos = (290,0);
ref = f;
}
);
};
layerId = "438E98ED-2DA7-4574-8792-8200075D96E5";
shapes = (
{
closed = 1;
nodes = (
(220,0,l),
(220,611,ls),
(220,699,o),
(265,697,o),
(339,690,cs),
(350,689,l),
(356,780,l),
(335,780,ls),
(198,780,o),
(129,779,o),
(129,604,cs),
(129,0,l)
);
},
{
closed = 1;
nodes = (
(336,422,l),
(340,504,l),
(30,504,l),
(30,422,l)
);
},
{
pos = (290,0);
ref = f_k;
}
);
width = 1200;
}
);
metricLeft = f;
metricRight = k;
},
{
glyphname = f_f_l;
kernLeft = f;
kernRight = d;
lastChange = "2021-06-16 13:11:36 +0000";
layers = (
{
layerId = "438E98ED-2DA7-4574-8792-8200075D96E5";
shapes = (
{
closed = 1;
nodes = (
(220,0,l),
(220,611,ls),
(220,699,o),
(265,697,o),
(339,690,cs),
(350,689,l),
(356,780,l),
(335,780,ls),
(198,780,o),
(129,779,o),
(129,604,cs),
(129,0,l)
);
},
{
closed = 1;
nodes = (
(336,422,l),
(340,504,l),
(30,504,l),
(30,422,l)
);
},
{
closed = 1;
nodes = (
(510,0,l),
(510,611,ls),
(510,699,o),
(554,695,o),
(629,690,cs),
(709,685,l),
(709,782,l),
(625,782,ls),
(488,782,o),
(419,779,o),
(419,604,cs),
(419,0,l)
);
},
{
closed = 1;
nodes = (
(716,422,l),
(720,504,l),
(320,504,l),
(320,422,l)
);
},
{
pos = (630,0);
ref = l;
}
);
width = 877;
}
);
metricLeft = f;
metricRight = l;
},
{
glyphname = f_f_t;
kernLeft = f;
kernRight = t;
lastChange = "2021-06-16 13:11:57 +0000";
layers = (
{
anchors = (
{
name = bottom_1;
pos = (111,0);
},
{
name = bottom_2;
pos = (440,0);
},
{
name = bottom_3;
pos = (769,0);
},
{
name = caret_1;
pos = (276,0);
},
{
name = caret_2;
pos = (604,0);
},
{
name = top_1;
pos = (111,782);
},
{
name = top_2;
pos = (440,782);
},
{
name = top_3;
pos = (769,782);
}
);
background = {
shapes = (
{
closed = 1;
nodes = (
(220,0,l),
(220,611,ls),
(220,699,o),
(265,697,o),
(339,690,cs),
(350,689,l),
(356,780,l),
(335,780,ls),
(198,780,o),
(129,779,o),
(129,604,cs),
(129,0,l)
);
},
{
closed = 0;
nodes = (
(219,0,l),
(129,0,l)
);
},
{
closed = 1;
nodes = (
(336,422,l),
(340,504,l),
(30,504,l),
(30,422,l)
);
},
{
pos = (290,0);
ref = f;
}
);
};
layerId = "438E98ED-2DA7-4574-8792-8200075D96E5";
shapes = (
{
closed = 1;
nodes = (
(336,422,l),
(340,504,l),
(30,504,l),
(30,422,l)
);
},
{
closed = 1;
nodes = (
(220,0,l),
(220,611,ls),
(220,699,o),
(265,697,o),
(339,690,cs),
(350,689,l),
(356,780,l),
(335,780,ls),
(198,780,o),
(129,779,o),
(129,604,cs),
(129,0,l)
);
},
{
pos = (290,0);
ref = f_t;
}
);
width = 982;
}
);
metricLeft = f;
metricRight = t;
},
{
glyphname = f_h;
kernLeft = f;
kernRight = a;
lastChange = "2021-06-16 13:12:40 +0000";
layers = (
{
background = {
shapes = (
{
closed = 1;
nodes = (
(220,0,l),
(220,611,ls),
(220,699,o),
(264,695,o),
(339,690,cs),
(419,685,l),
(419,782,l),
(335,782,ls),
(198,782,o),
(129,779,o),
(129,604,cs),
(129,0,l)
);
},
{
closed = 0;
nodes = (
(129,0,l),
(219,0,l)
);
},
{
closed = 1;
nodes = (
(426,422,l),
(430,504,l),
(30,504,l),
(30,422,l)
);
},
{
pos = (340,0);
ref = l;
}
);
};
layerId = "438E98ED-2DA7-4574-8792-8200075D96E5";
shapes = (
{
closed = 1;
nodes = (
(220,0,l),
(220,611,ls),
(220,699,o),
(264,695,o),
(339,690,cs),
(422,685,l),
(422,782,l),
(335,782,ls),
(198,782,o),
(129,779,o),
(129,604,cs),
(129,0,l)
);
},
{
closed = 1;
nodes = (
(426,422,l),
(430,504,l),
(30,504,l),
(30,422,l)
);
},
{
pos = (344,0);
ref = h;
}
);
width = 980;
}
);
metricLeft = f;
metricRight = h;
},
{
glyphname = f_idieresis;
kernLeft = f;
kernRight = i;
lastChange = "2021-06-27 07:43:54 +0000";
layers = (
{
anchors = (
{
name = bottom;
pos = (196,0);
},
{
name = top;
pos = (196,782);
}
);
layerId = "438E98ED-2DA7-4574-8792-8200075D96E5";
shapes = (
{
closed = 1;
nodes = (
(220,0,l),
(220,422,l),
(516,422,l),
(520,504,l),
(220,504,l),
(220,611,ls),
(220,699,o),
(291,714,o),
(333,693,cs),
(433,642,l),
(481,752,l),
(447,769,o),
(393,779,o),
(335,780,cs),
(199,782,o),
(129,779,o),
(129,605,cs),
(129,504,l),
(30,504,l),
(30,422,l),
(129,422,l),
(129,0,l)
);
},
{
pos = (447,0);
ref = idieresis;
},
{
closed = 1;
nodes = (
(488,638,o),
(515,664,o),
(515,698,cs),
(515,732,o),
(488,758,o),
(455,758,cs),
(422,758,o),
(395,732,o),
(395,698,cs),
(395,664,o),
(422,638,o),
(455,638,cs)
);
}
);
width = 652;
}
);
metricLeft = f;
metricRight = idieresis;
},
{
glyphname = f_j;
kernLeft = f;
kernRight = i;
lastChange = "2021-06-16 13:12:53 +0000";
layers = (
{
layerId = "438E98ED-2DA7-4574-8792-8200075D96E5";
shapes = (
{
closed = 1;
nodes = (
(220,0,l),
(220,611,ls),
(220,699,o),
(269,726,o),
(339,690,cs),
(427,645,l),
(479,762,l),
(442,776,o),
(393,776,o),
(335,780,cs),
(199,789,o),
(129,779,o),
(129,604,cs),
(129,0,l)
);
},
{
closed = 1;
nodes = (
(480,422,l),
(484,504,l),
(30,504,l),
(30,422,l)
);
},
{
closed = 1;
nodes = (
(304,-276,ls),
(441,-276,o),
(510,-272,o),
(510,-41,cs),
(510,504,l),
(419,504,l),
(419,-48,ls),
(419,-173,o),
(373,-185,o),
(300,-183,cs),
(270,-182,l),
(266,-276,l)
);
},
{
closed = 1;
nodes = (
(490,639,o),
(519,667,o),
(519,703,cs),
(519,739,o),
(490,767,o),
(455,767,cs),
(420,767,o),
(391,739,o),
(391,703,cs),
(391,667,o),
(420,639,o),
(455,639,cs)
);
}
);
width = 568;
}
);
metricLeft = f;
metricRight = j;
},
{
glyphname = f_k;
kernLeft = f;
kernRight = k;
lastChange = "2021-06-16 13:13:03 +0000";
layers = (
{
background = {
shapes = (
{
closed = 1;
nodes = (
(220,0,l),
(220,611,ls),
(220,699,o),
(264,695,o),
(339,690,cs),
(419,685,l),
(419,782,l),
(335,782,ls),
(198,782,o),
(129,779,o),
(129,604,cs),
(129,0,l)
);
},
{
closed = 0;
nodes = (
(129,0,l),
(219,0,l)
);
},
{
closed = 1;
nodes = (
(426,422,l),
(430,504,l),
(30,504,l),
(30,422,l)
);
},
{
pos = (340,0);
ref = l;
}
);
};
layerId = "438E98ED-2DA7-4574-8792-8200075D96E5";
shapes = (
{
closed = 1;
nodes = (
(220,0,l),
(220,611,ls),
(220,699,o),
(264,695,o),
(339,690,cs),
(419,685,l),
(419,782,l),
(335,782,ls),
(198,782,o),
(129,779,o),
(129,604,cs),
(129,0,l)
);
},
{
closed = 1;
nodes = (
(426,422,l),
(430,504,l),
(30,504,l),
(30,422,l)
);
},
{
pos = (340,0);
ref = k;
}
);
width = 910;
}
);
metricLeft = f;
metricRight = k;
},
{
glyphname = f_t;
kernLeft = f;
kernRight = t;
lastChange = "2021-06-26 14:08:46 +0000";
layers = (
{
background = {
shapes = (
{
closed = 1;
nodes = (
(220,0,l),
(220,611,ls),
(220,699,o),
(294,713,o),
(339,690,cs),
(427,645,l),
(479,762,l),
(442,776,o),
(393,779,o),
(335,780,cs),
(199,782,o),
(129,779,o),
(129,604,cs),
(129,0,l)
);
},
{
closed = 0;
nodes = (
(219,0,l),
(129,0,l)
);
},
{
closed = 1;
nodes = (
(480,422,l),
(484,504,l),
(30,504,l),
(30,422,l)
);
},
{
closed = 1;
nodes = (
(510,0,l),
(510,504,l),
(419,504,l),
(419,0,l)
);
},
{
closed = 1;
nodes = (
(489,639,o),
(518,667,o),
(518,703,cs),
(518,739,o),
(489,767,o),
(454,767,cs),
(419,767,o),
(390,739,o),
(390,703,cs),
(390,667,o),
(419,639,o),
(454,639,cs)
);
}
);
};
layerId = "438E98ED-2DA7-4574-8792-8200075D96E5";
shapes = (
{
closed = 1;
nodes = (
(220,0,l),
(220,422,l),
(386,422,l),
(390,504,l),
(220,504,l),
(220,611,ls),
(220,699,o),
(293,696,o),
(325,694,cs),
(361,692,o),
(390,677,o),
(406,660,c),
(415,651,o),
(419,642,o),
(419,635,c),
(424,646,l),
(433,642,o),
(443,639,o),
(454,639,cs),
(474,639,o),
(510,631,o),
(510,649,cs),
(510,667,o),
(518,686,o),
(518,703,cs),
(518,730,o),
(502,752,o),
(478,762,c),
(473,764,ls),
(437,776,o),
(390,779,o),
(335,780,cs),
(199,782,o),
(129,779,o),
(129,604,cs),
(129,504,l),
(30,504,l),
(30,422,l),
(129,422,l),
(129,0,l)
);
},
{
pos = (285,0);
ref = t;
}
);
width = 692;
}
);
metricLeft = f;
metricRight = t;
},
{
glyphname = fi;
kernLeft = f;
kernRight = i;
lastChange = "2021-06-16 13:13:29 +0000";
layers = (
{
background = {
shapes = (
{
closed = 1;
nodes = (
(220,0,l),
(220,611,ls),
(220,699,o),
(264,695,o),
(339,690,cs),
(355,689,l),
(361,780,l),
(335,780,ls),
(198,780,o),
(129,779,o),
(129,604,cs),
(129,0,l)
);
}
);
};
hints = (
{
horizontal = 1;
origin = (3,11);
target = (0,6);
type = Stem;
},
{
origin = (3,8);
target = (3,2);
type = Stem;
},
{
origin = (1,3);
target = (1,0);
type = Stem;
}
);
layerId = "438E98ED-2DA7-4574-8792-8200075D96E5";
shapes = (
{
closed = 1;
nodes = (
(220,0,l),
(220,611,ls),
(220,699,o),
(294,713,o),
(339,690,cs),
(427,645,l),
(479,762,l),
(442,776,o),
(393,779,o),
(335,780,cs),
(199,782,o),
(129,779,o),
(129,604,cs),
(129,0,l)
);
},
{
closed = 1;
nodes = (
(510,0,l),
(510,504,l),
(419,504,l),
(419,0,l)
);
},
{
closed = 1;
nodes = (
(480,422,l),
(484,504,l),
(30,504,l),
(30,422,l)
);
},
{
closed = 1;
nodes = (
(489,639,o),
(518,667,o),
(518,703,cs),
(518,739,o),
(489,767,o),
(454,767,cs),
(419,767,o),
(390,739,o),
(390,703,cs),
(390,667,o),
(419,639,o),
(454,639,cs)
);
}
);
width = 576;
}
);
metricLeft = f;
metricRight = i;
unicode = 64257;
},
{
glyphname = fl;
kernLeft = f;
kernRight = d;
lastChange = "2021-06-16 13:13:46 +0000";
layers = (
{
background = {
shapes = (
{
closed = 1;
nodes = (
(490,639,o),
(519,667,o),
(519,703,cs),
(519,739,o),
(490,767,o),
(455,767,cs),
(420,767,o),
(391,739,o),
(391,703,cs),
(391,667,o),
(420,639,o),
(455,639,cs)
);
}
);
};
layerId = "438E98ED-2DA7-4574-8792-8200075D96E5";
shapes = (
{
closed = 1;
nodes = (
(220,0,l),
(220,611,ls),
(220,699,o),
(264,695,o),
(339,690,cs),
(419,685,l),
(419,782,l),
(335,782,ls),
(198,782,o),
(129,779,o),
(129,604,cs),
(129,0,l)
);
},
{
closed = 1;
nodes = (
(426,422,l),
(430,504,l),
(30,504,l),
(30,422,l)
);
},
{
pos = (340,0);
ref = l;
}
);
width = 587;
}
);
metricLeft = f;
metricRight = l;
unicode = 64258;
},
{
glyphname = g_i;
lastChange = "2021-07-04 10:33:39 +0000";
layers = (
{
anchors = (
{
name = bottom;
pos = (295,-278);
},
{
name = top;
pos = (295,504);
}
);
background = {
shapes = (
{
closed = 1;
nodes = (
(505,424,o),
(529,439,o),
(571,462,c),
(558,484,o),
(547,501,o),
(529,525,c),
(484,499,o),
(448,467,o),
(416,426,c),
(479,404,l)
);
}
);
};
layerId = "438E98ED-2DA7-4574-8792-8200075D96E5";
shapes = (
{
closed = 1;
nodes = (
(464,-278,o),
(547,-199,o),
(547,-92,cs),
(547,21,o),
(453,77,o),
(339,85,cs),
(222,93,o),
(179,120,o),
(179,148,cs),
(179,165,o),
(183,172,o),
(216,199,c),
(154,223,l),
(115,196,o),
(92,179,o),
(92,129,cs),
(92,36,o),
(188,5,o),
(303,-3,cs),
(416,-11,o),
(454,-38,o),
(454,-95,cs),
(454,-161,o),
(375,-193,o),
(293,-193,cs),
(211,-193,o),
(139,-172,o),
(139,-113,cs),
(139,-62,o),
(176,-38,o),
(250,10,c),
(199,42,l),
(142,-9,o),
(46,-5,o),
(46,-122,cs),
(46,-193,o),
(118,-278,o),
(282,-278,cs)
);
},
{
closed = 1;
nodes = (
(423,157,o),
(501,222,o),
(501,337,cs),
(501,452,o),
(423,516,o),
(285,516,cs),
(146,516,o),
(68,452,o),
(68,337,cs),
(68,222,o),
(146,157,o),
(285,157,cs)
);
},
{
closed = 1;
nodes = (
(196,233,o),
(153,267,o),
(153,337,cs),
(153,406,o),
(196,440,o),
(285,440,cs),
(374,440,o),
(417,406,o),
(417,337,cs),
(417,267,o),
(374,233,o),
(285,233,cs)
);
},
{
closed = 1;
nodes = (
(485,554,o),
(581,640,o),
(711,640,c),
(709,766,l),
(593,766,o),
(434,618,o),
(376,456,c),
(439,434,l)
);
},
{
pos = (590,0);
ref = i;
}
);
width = 832;
}
);
metricLeft = g;
metricRight = i;
},
{
glyphname = longs_t;
kernLeft = f;
kernRight = t;
lastChange = "2021-06-26 14:08:15 +0000";
layers = (
{
anchors = (
{
name = bottom;
pos = (538,6);
},
{
name = center;
pos = (489,252);
},
{
name = top;
pos = (489,683);
},
{
name = topright;
pos = (537,504);
}
);
layerId = "438E98ED-2DA7-4574-8792-8200075D96E5";
shapes = (
{
closed = 1;
nodes = (
(220,0,l),
(220,422,l),
(220,504,l),
(220,611,ls),
(220,699,o),
(293,696,o),
(325,694,cs),
(361,692,o),
(390,677,o),
(406,660,c),
(415,651,o),
(419,642,o),
(419,635,c),
(424,646,l),
(433,642,o),
(443,639,o),
(454,639,cs),
(474,639,o),
(510,631,o),
(510,649,cs),
(510,667,o),
(518,686,o),
(518,703,cs),
(518,730,o),
(502,752,o),
(478,762,c),
(473,764,ls),
(438,778,o),
(390,779,o),
(335,780,cs),
(199,782,o),
(129,779,o),
(129,604,cs),
(129,504,l),
(30,504,l),
(30,422,l),
(129,422,l),
(129,0,l)
);
},
{
closed = 1;
nodes = (
(651,0,l),
(648,91,l),
(619,90,ls),
(546,87,o),
(510,89,o),
(510,169,cs),
(510,683,l),
(419,683,l),
(419,176,ls),
(419,0,o),
(478,0,o),
(615,0,cs)
);
},
{
closed = 1;
nodes = (
(654,422,l),
(653,504,l),
(320,504,l),
(320,422,l)
);
},
{
closed = 0;
nodes = (
(419,683,l)
);
}
);
width = 692;
}
);
metricLeft = longs;
metricRight = t;
},
{
glyphname = s_h;
kernLeft = s;
kernRight = a;
lastChange = "2021-06-27 07:00:33 +0000";
layers = (
{
layerId = "438E98ED-2DA7-4574-8792-8200075D96E5";
shapes = (
{
ref = s;
},
{
pos = (538,0);
ref = h;
},
{
closed = 1;
nodes = (
(495,427,l),
(477,459,o),
(442,519,o),
(442,593,cs),
(442,670,o),
(515,688,o),
(616,687,c),
(616,782,l),
(447,782,o),
(366,720,o),
(366,603,cs),
(366,525,o),
(419,446,o),
(445,408,c)
);
}
);
width = 1174;
}
);
metricLeft = s;
metricRight = h;
},
{
glyphname = s_k;
kernLeft = s;
kernRight = k;
lastChange = "2021-06-27 06:59:57 +0000";
layers = (
{
layerId = "438E98ED-2DA7-4574-8792-8200075D96E5";
shapes = (
{
ref = s;
},
{
pos = (538,0);
ref = k;
},
{
closed = 1;
nodes = (
(495,427,l),
(477,459,o),
(442,519,o),
(442,593,cs),
(442,670,o),
(515,688,o),
(616,687,c),
(616,782,l),
(447,782,o),
(366,720,o),
(366,603,cs),
(366,525,o),
(419,446,o),
(445,408,c)
);
}
);
width = 1108;
}
);
metricLeft = s;
metricRight = k;
},
{
glyphname = s_l;
kernLeft = s;
kernRight = d;
lastChange = "2021-06-27 07:00:13 +0000";
layers = (
{
layerId = "438E98ED-2DA7-4574-8792-8200075D96E5";
shapes = (
{
ref = s;
},
{
pos = (538,0);
ref = l;
},
{
closed = 1;
nodes = (
(495,427,l),
(477,459,o),
(442,519,o),
(442,593,cs),
(442,670,o),
(515,688,o),
(616,687,c),
(616,782,l),
(447,782,o),
(366,720,o),
(366,603,cs),
(366,525,o),
(419,446,o),
(445,408,c)
);
}
);
width = 785;
}
);
metricLeft = s;
metricRight = l;
},
{
glyphname = s_p;
kernLeft = s;
kernRight = b;
lastChange = "2021-06-27 06:54:21 +0000";
layers = (
{
anchors = (
{
name = bottom;
pos = (872,0);
},
{
name = top;
pos = (872,504);
}
);
background = {
shapes = (
{
closed = 1;
nodes = (
(512,451,l),
(463,496,o),
(447,548,o),
(447,592,cs),
(447,669,o),
(525,688,o),
(616,687,c),
(616,782,l),
(457,782,o),
(371,712,o),
(371,602,cs),
(371,539,o),
(415,476,o),
(446,453,c)
);
}
);
};
hints = (
{
horizontal = 1;
origin = (1,16);
target = up;
type = BottomGhost;
},
{
horizontal = 1;
origin = (1,4);
target = (2,11);
type = Stem;
},
{
horizontal = 1;
origin = (1,10);
target = (2,5);
type = Stem;
},
{
horizontal = 1;
origin = (3,6);
target = (1,15);
type = Stem;
},
{
origin = (3,10);
target = (3,3);
type = Stem;
},
{
origin = (1,16);
target = (1,0);
type = Stem;
},
{
origin = (2,8);
target = (1,7);
type = Stem;
}
);
layerId = "438E98ED-2DA7-4574-8792-8200075D96E5";
shapes = (
{
ref = s;
},
{
closed = 1;
nodes = (
(708,-278,l),
(708,59,l),
(739,18,o),
(800,-14,o),
(876,-14,cs),
(1054,-14,o),
(1137,125,o),
(1137,255,cs),
(1137,386,o),
(1054,524,o),
(876,524,cs),
(800,524,o),
(739,488,o),
(708,450,c),
(708,782,l),
(616,782,l),
(616,-278,l)
);
},
{
closed = 1;
nodes = (
(764,79,o),
(708,147,o),
(708,255,cs),
(708,363,o),
(764,431,o),
(876,434,cs),
(990,437,o),
(1044,365,o),
(1044,255,cs),
(1044,146,o),
(990,73,o),
(876,76,cs)
);
},
{
closed = 1;
nodes = (
(495,427,l),
(477,459,o),
(442,519,o),
(442,593,cs),
(442,670,o),
(515,688,o),
(616,687,c),
(616,782,l),
(447,782,o),
(366,720,o),
(366,603,cs),
(366,525,o),
(419,446,o),
(445,408,c)
);
}
);
width = 1177;
}
);
metricLeft = s;
metricRight = p;
},
{
glyphname = s_t;
kernLeft = s;
kernRight = t;
lastChange = "2021-06-26 17:36:26 +0000";
layers = (
{
layerId = "438E98ED-2DA7-4574-8792-8200075D96E5";
shapes = (
{
ref = s;
},
{
pos = (549,0);
ref = t;
},
{
closed = 1;
nodes = (
(495,427,l),
(477,459,o),
(442,519,o),
(442,593,cs),
(442,660,o),
(478,709,o),
(569,708,cs),
(655,707,o),
(683,677,o),
(683,635,c),
(738,639,o),
(774,631,o),
(774,649,cs),
(774,667,o),
(782,686,o),
(782,703,cs),
(782,730,o),
(766,752,o),
(737,764,cs),
(702,778,o),
(644,790,o),
(589,790,cs),
(430,790,o),
(366,710,o),
(366,603,cs),
(366,525,o),
(419,446,o),
(445,408,c)
);
}
);
width = 956;
}
);
metricLeft = s;
metricRight = t;
},
{
glyphname = longs_b;
kernLeft = f;
kernRight = b;
lastChange = "2021-06-26 13:52:14 +0000";
layers = (
{
layerId = "438E98ED-2DA7-4574-8792-8200075D96E5";
shapes = (
{
closed = 1;
nodes = (
(220,0,l),
(220,611,ls),
(220,699,o),
(264,695,o),
(339,690,cs),
(419,685,l),
(419,782,l),
(335,782,ls),
(198,782,o),
(129,779,o),
(129,604,cs),
(129,0,l)
);
},
{
closed = 1;
nodes = (
(190,422,l),
(194,504,l),
(30,504,l),
(30,422,l)
);
},
{
pos = (340,0);
ref = b;
}
);
width = 979;
}
);
metricLeft = longs;
metricRight = b;
},
{
glyphname = longs_h;
kernLeft = f;
kernRight = a;
lastChange = "2021-06-27 04:02:22 +0000";
layers = (
{
layerId = "438E98ED-2DA7-4574-8792-8200075D96E5";
shapes = (
{
closed = 1;
nodes = (
(220,0,l),
(220,611,ls),
(220,699,o),
(264,695,o),
(339,690,cs),
(422,685,l),
(422,782,l),
(335,782,ls),
(198,782,o),
(129,779,o),
(129,604,cs),
(129,0,l)
);
},
{
closed = 1;
nodes = (
(196,422,l),
(200,504,l),
(30,504,l),
(30,422,l)
);
},
{
pos = (344,0);
ref = h;
}
);
width = 980;
}
);
metricLeft = longs;
metricRight = h;
},
{
glyphname = longs_i;
kernLeft = f;
kernRight = i;
lastChange = "2021-06-27 03:38:05 +0000";
layers = (
{
hints = (
{
horizontal = 1;
origin = (3,11);
target = (0,6);
type = Stem;
},
{
origin = (3,8);
target = (3,2);
type = Stem;
},
{
origin = (1,3);
target = (1,0);
type = Stem;
}
);
layerId = "438E98ED-2DA7-4574-8792-8200075D96E5";
shapes = (
{
closed = 1;
nodes = (
(220,0,l),
(220,611,ls),
(220,699,o),
(294,713,o),
(339,690,cs),
(427,645,l),
(479,762,l),
(442,776,o),
(393,779,o),
(335,780,cs),
(199,782,o),
(129,779,o),
(129,604,cs),
(129,0,l)
);
},
{
closed = 1;
nodes = (
(510,0,l),
(510,504,l),
(419,504,l),
(419,0,l)
);
},
{
closed = 1;
nodes = (
(190,422,l),
(194,504,l),
(30,504,l),
(30,422,l)
);
},
{
closed = 1;
nodes = (
(489,639,o),
(518,667,o),
(518,703,cs),
(518,739,o),
(489,767,o),
(454,767,cs),
(419,767,o),
(390,739,o),
(390,703,cs),
(390,667,o),
(419,639,o),
(454,639,cs)
);
}
);
width = 576;
}
);
metricLeft = longs;
metricRight = i;
},
{
glyphname = longs_idieresis;
kernLeft = f;
kernRight = i;
lastChange = "2021-06-27 07:59:52 +0000";
layers = (
{
layerId = "438E98ED-2DA7-4574-8792-8200075D96E5";
shapes = (
{
pos = (447,0);
ref = idieresis;
},
{
closed = 1;
nodes = (
(220,0,l),
(220,422,l),
(220,504,l),
(220,611,ls),
(220,699,o),
(291,714,o),
(333,693,cs),
(433,642,l),
(481,752,l),
(447,769,o),
(393,779,o),
(335,780,cs),
(199,782,o),
(129,779,o),
(129,605,cs),
(129,504,l),
(30,504,l),
(30,422,l),
(129,422,l),
(129,0,l)
);
},
{
closed = 1;
nodes = (
(488,638,o),
(515,664,o),
(515,698,cs),
(515,732,o),
(488,758,o),
(455,758,cs),
(422,758,o),
(395,732,o),
(395,698,cs),
(395,664,o),
(422,638,o),
(455,638,cs)
);
}
);
width = 652;
}
);
metricLeft = longs;
metricRight = idieresis;
},
{
glyphname = longs_j;
kernLeft = f;
kernRight = j;
lastChange = "2021-06-26 13:52:26 +0000";
layers = (
{
layerId = "438E98ED-2DA7-4574-8792-8200075D96E5";
shapes = (
{
closed = 1;
nodes = (
(220,0,l),
(220,611,ls),
(220,699,o),
(269,726,o),
(339,690,cs),
(427,645,l),
(479,762,l),
(442,776,o),
(393,776,o),
(335,780,cs),
(199,789,o),
(129,779,o),
(129,604,cs),
(129,0,l)
);
},
{
closed = 1;
nodes = (
(190,422,l),
(194,504,l),
(30,504,l),
(30,422,l)
);
},
{
closed = 1;
nodes = (
(304,-276,ls),
(441,-276,o),
(510,-272,o),
(510,-41,cs),
(510,504,l),
(419,504,l),
(419,-48,ls),
(419,-173,o),
(373,-185,o),
(300,-183,cs),
(270,-182,l),
(266,-276,l)
);
},
{
closed = 1;
nodes = (
(490,639,o),
(519,667,o),
(519,703,cs),
(519,739,o),
(490,767,o),
(455,767,cs),
(420,767,o),
(391,739,o),
(391,703,cs),
(391,667,o),
(420,639,o),
(455,639,cs)
);
}
);
width = 568;
}
);
metricLeft = longs;
metricRight = j;
},
{
glyphname = longs_k;
kernLeft = f;
kernRight = k;
lastChange = "2021-06-26 13:52:30 +0000";
layers = (
{
layerId = "438E98ED-2DA7-4574-8792-8200075D96E5";
shapes = (
{
closed = 1;
nodes = (
(220,0,l),
(220,611,ls),
(220,699,o),
(264,695,o),
(339,690,cs),
(419,685,l),
(419,782,l),
(335,782,ls),
(198,782,o),
(129,779,o),
(129,604,cs),
(129,0,l)
);
},
{
closed = 1;
nodes = (
(196,422,l),
(200,504,l),
(30,504,l),
(30,422,l)
);
},
{
pos = (340,0);
ref = k;
}
);
width = 910;
}
);
metricLeft = longs;
metricRight = k;
},
{
glyphname = longs_l;
kernLeft = f;
kernRight = l;
lastChange = "2021-06-26 13:52:34 +0000";
layers = (
{
layerId = "438E98ED-2DA7-4574-8792-8200075D96E5";
shapes = (
{
closed = 1;
nodes = (
(220,0,l),
(220,611,ls),
(220,699,o),
(264,695,o),
(339,690,cs),
(419,685,l),
(419,782,l),
(335,782,ls),
(198,782,o),
(129,779,o),
(129,604,cs),
(129,0,l)
);
},
{
closed = 1;
nodes = (
(206,422,l),
(210,504,l),
(30,504,l),
(30,422,l)
);
},
{
pos = (340,0);
ref = l;
}
);
width = 587;
}
);
metricLeft = longs;
metricRight = l;
},
{
glyphname = A.sc;
kernLeft = A.sc;
kernRight = A.sc;
lastChange = "2021-06-26 17:55:28 +0000";
layers = (
{
anchors = (
{
name = bottom;
pos = (316,0);
},
{
name = ogonek;
pos = (594,0);
},
{
name = top;
pos = (316,575);
}
);
layerId = "438E98ED-2DA7-4574-8792-8200075D96E5";
shapes = (
{
closed = 1;
nodes = (
(143,0,l),
(355,575,l),
(267,575,l),
(44,0,l)
);
},
{
closed = 1;
nodes = (
(455,147,l),
(455,230,l),
(172,230,l),
(172,147,l)
);
},
{
closed = 1;
nodes = (
(588,0,l),
(365,575,l),
(279,575,l),
(490,0,l)
);
}
);
width = 632;
}
);
},
{
glyphname = AE.sc;
kernLeft = A.sc;
kernRight = E.sc;
lastChange = "2021-06-13 02:26:12 +0000";
layers = (
{
anchors = (
{
name = bottom;
pos = (439,0);
},
{
name = top;
pos = (439,575);
}
);
layerId = "438E98ED-2DA7-4574-8792-8200075D96E5";
shapes = (
{
closed = 1;
nodes = (
(143,0,l),
(355,575,l),
(267,575,l),
(44,0,l)
);
},
{
closed = 1;
nodes = (
(435,147,l),
(435,230,l),
(341,230,o),
(246,230,o),
(152,230,c),
(152,147,l)
);
},
{
closed = 1;
nodes = (
(427,484,l),
(427,575,l),
(288,575,l),
(288,484,l)
);
},
{
pos = (262,0);
ref = E.sc;
}
);
width = 842;
}
);
metricLeft = A.sc;
metricRight = E.sc;
},
{
glyphname = B.sc;
kernLeft = H.sc;
kernRight = B.sc;
lastChange = "2021-06-14 09:26:50 +0000";
layers = (
{
anchors = (
{
name = bottom;
pos = (309,0);
},
{
name = top;
pos = (309,575);
}
);
layerId = "438E98ED-2DA7-4574-8792-8200075D96E5";
shapes = (
{
closed = 1;
nodes = (
(349,0,ls),
(448,0,o),
(521,49,o),
(521,162,cs),
(521,255,o),
(466,297,o),
(430,297,c),
(448,297,o),
(506,325,o),
(506,423,cs),
(506,524,o),
(436,575,o),
(328,575,cs),
(95,575,l),
(95,0,l)
);
},
{
closed = 1;
nodes = (
(189,252,l),
(331,252,ls),
(399,252,o),
(429,239,o),
(429,168,cs),
(429,105,o),
(398,90,o),
(333,90,cs),
(189,90,l)
);
},
{
closed = 1;
nodes = (
(189,486,l),
(327,486,ls),
(377,486,o),
(414,479,o),
(414,418,cs),
(414,360,o),
(389,342,o),
(328,342,cs),
(189,342,l)
);
}
);
width = 585;
}
);
metricLeft = H.sc;
},
{
glyphname = C.sc;
kernLeft = O.sc;
kernRight = C.sc;
lastChange = "2021-06-13 10:24:38 +0000";
layers = (
{
anchors = (
{
name = bottom;
pos = (364,-14);
},
{
name = top;
pos = (364,589);
}
);
background = {
shapes = (
{
closed = 0;
nodes = (
(575,53,l),
(504,124,l)
);
},
{
closed = 0;
nodes = (
(487,460,l),
(558,530,l)
);
}
);
};
layerId = "438E98ED-2DA7-4574-8792-8200075D96E5";
shapes = (
{
closed = 1;
nodes = (
(452,-14,o),
(523,17,o),
(566,61,c),
(503,124,l),
(469,87,o),
(415,75,o),
(364,75,cs),
(232,75,o),
(168,157,o),
(168,288,cs),
(168,413,o),
(232,500,o),
(364,500,cs),
(423,500,o),
(463,488,o),
(494,457,c),
(558,519,l),
(516,564,o),
(452,589,o),
(364,589,cs),
(169,589,o),
(74,449,o),
(74,288,cs),
(74,122,o),
(169,-14,o),
(364,-14,cs)
);
}
);
width = 623;
}
);
metricLeft = O.sc;
},
{
glyphname = D.sc;
kernLeft = H.sc;
kernRight = O.sc;
lastChange = "2021-06-13 10:35:11 +0000";
layers = (
{
anchors = (
{
name = bottom;
pos = (324,0);
},
{
name = center;
pos = (324,288);
},
{
name = top;
pos = (324,575);
}
);
layerId = "438E98ED-2DA7-4574-8792-8200075D96E5";
shapes = (
{
closed = 1;
nodes = (
(282,0,ls),
(461,0,o),
(581,70,o),
(581,298,cs),
(581,512,o),
(455,575,o),
(282,575,cs),
(95,575,l),
(95,0,l)
);
},
{
closed = 1;
nodes = (
(189,485,l),
(282,485,ls),
(426,485,o),
(485,443,o),
(485,298,cs),
(485,136,o),
(427,90,o),
(282,90,cs),
(189,90,l)
);
}
);
width = 639;
}
);
metricLeft = H.sc;
},
{
glyphname = Eth.sc;
kernLeft = Eth.sc;
kernRight = O.sc;
lastChange = "2021-06-14 09:46:21 +0000";
layers = (
{
layerId = "438E98ED-2DA7-4574-8792-8200075D96E5";
shapes = (
{
closed = 1;
nodes = (
(32,249,l),
(296,249,l),
(296,336,l),
(32,336,l)
);
},
{
ref = D.sc;
}
);
width = 639;
}
);
metricRight = D.sc;
},
{
glyphname = E.sc;
kernLeft = H.sc;
kernRight = E.sc;
lastChange = "2021-06-18 10:27:30 +0000";
layers = (
{
anchors = (
{
name = bottom;
pos = (290,0);
},
{
name = ogonek;
pos = (507,0);
},
{
name = top;
pos = (290,575);
},
{
name = topleft;
pos = (20,575);
}
);
layerId = "438E98ED-2DA7-4574-8792-8200075D96E5";
shapes = (
{
closed = 1;
nodes = (
(189,0,l),
(189,575,l),
(95,575,l),
(95,0,l)
);
},
{
closed = 1;
nodes = (
(495,0,l),
(495,90,l),
(118,90,l),
(118,0,l)
);
},
{
closed = 1;
nodes = (
(473,249,l),
(473,339,l),
(118,339,l),
(118,249,l)
);
},
{
closed = 1;
nodes = (
(490,484,l),
(490,575,l),
(118,575,l),
(118,484,l)
);
}
);
width = 580;
}
);
metricLeft = H.sc;
},
{
glyphname = F.sc;
kernLeft = H.sc;
kernRight = F.sc;
lastChange = "2021-06-12 12:57:20 +0000";
layers = (
{
anchors = (
{
name = bottom;
pos = (284,0);
},
{
name = top;
pos = (284,575);
}
);
layerId = "438E98ED-2DA7-4574-8792-8200075D96E5";
shapes = (
{
closed = 1;
nodes = (
(189,0,l),
(189,249,l),
(468,249,l),
(468,339,l),
(189,339,l),
(189,484,l),
(489,484,l),
(489,575,l),
(95,575,l),
(95,0,l)
);
}
);
width = 537;
}
);
metricLeft = H.sc;
},
{
glyphname = G.sc;
kernLeft = O.sc;
kernRight = G.sc;
lastChange = "2021-06-24 14:51:38 +0000";
layers = (
{
anchors = (
{
name = bottom;
pos = (350,0);
},
{
name = top;
pos = (350,575);
}
);
layerId = "438E98ED-2DA7-4574-8792-8200075D96E5";
shapes = (
{
closed = 1;
nodes = (
(549,-14,o),
(629,91,o),
(629,238,c),
(629,270,o),
(629,291,o),
(629,328,c),
(361,328,l),
(361,238,l),
(541,238,l),
(541,133,o),
(492,76,o),
(358,76,cs),
(225,76,o),
(169,164,o),
(169,288,cs),
(169,411,o),
(225,500,o),
(358,500,cs),
(453,500,o),
(496,477,o),
(517,426,c),
(618,426,l),
(606,476,o),
(550,589,o),
(358,589,cs),
(167,589,o),
(74,451,o),
(74,288,cs),
(74,125,o),
(167,-14,o),
(358,-14,cs)
);
}
);
width = 699;
}
);
metricLeft = O.sc;
},
{
glyphname = H.sc;
kernLeft = H.sc;
kernRight = H.sc;
lastChange = "2021-06-16 09:51:50 +0000";
layers = (
{
anchors = (
{
name = bottom;
pos = (342,0);
},
{
name = center;
pos = (342,288);
},
{
name = top;
pos = (342,575);
},
{
name = topleft;
pos = (85,575);
}
);
hints = (
{
horizontal = 1;
origin = (0,1);
target = (0,8);
type = Stem;
},
{
origin = (0,11);
target = (0,0);
type = Stem;
},
{
origin = (0,3);
target = (0,4);
type = Stem;
}
);
layerId = "438E98ED-2DA7-4574-8792-8200075D96E5";
shapes = (
{
closed = 1;
nodes = (
(189,0,l),
(189,251,l),
(505,251,l),
(505,0,l),
(599,0,l),
(599,575,l),
(505,575,l),
(505,341,l),
(189,341,l),
(189,575,l),
(95,575,l),
(95,0,l)
);
}
);
width = 694;
}
);
},
{
glyphname = Hbar.sc;
kernLeft = H.sc;
kernRight = H.sc;
lastChange = "2021-06-12 13:02:06 +0000";
layers = (
{
layerId = "438E98ED-2DA7-4574-8792-8200075D96E5";
shapes = (
{
closed = 1;
nodes = (
(78,421,l),
(685,421,l),
(685,507,l),
(78,507,l)
);
},
{
pos = (40,0);
ref = H.sc;
}
);
width = 763;
}
);
},
{
glyphname = Hturned.sc;
kernLeft = Hturned.sc;
kernRight = H.sc;
lastChange = "2021-06-14 11:16:35 +0000";
layers = (
{
layerId = "438E98ED-2DA7-4574-8792-8200075D96E5";
shapes = (
{
closed = 1;
nodes = (
(449,575,l),
(449,357,ls),
(449,348,o),
(449,336,o),
(448,327,cs),
(445,288,o),
(359,265,o),
(304,265,cs),
(246,265,o),
(196,275,o),
(182,313,cs),
(178,324,o),
(177,343,o),
(177,355,cs),
(177,575,l),
(84,575,l),
(84,352,ls),
(84,243,o),
(161,173,o),
(289,173,cs),
(383,173,o),
(434,217,o),
(449,242,c),
(449,0,l),
(541,0,l),
(541,575,l)
);
}
);
width = 636;
}
);
metricRight = H.sc;
},
{
glyphname = I.sc;
kernLeft = H.sc;
kernRight = H.sc;
lastChange = "2021-06-18 10:26:07 +0000";
layers = (
{
anchors = (
{
name = bottom;
pos = (145,0);
},
{
name = ogonek;
pos = (205,0);
},
{
name = top;
pos = (145,575);
},
{
name = topleft;
pos = (37,575);
}
);
layerId = "438E98ED-2DA7-4574-8792-8200075D96E5";
shapes = (
{
closed = 1;
nodes = (
(195,0,l),
(195,575,l),
(95,575,l),
(95,0,l)
);
}
);
width = 290;
}
);
metricLeft = H.sc;
metricRight = H.sc;
},
{
glyphname = J.sc;
kernLeft = J.sc;
kernRight = J.sc;
lastChange = "2021-06-14 09:29:02 +0000";
layers = (
{
anchors = (
{
name = bottom;
pos = (36,-14);
},
{
name = top;
pos = (217,575);
}
);
background = {
shapes = (
{
closed = 0;
nodes = (
(251,255,ls),
(251,93,o),
(208,74,o),
(135,76,cs),
(105,77,l),
(101,-17,l),
(139,-17,ls),
(276,-17,o),
(345,-13,o),
(345,218,cs)
);
}
);
};
layerId = "438E98ED-2DA7-4574-8792-8200075D96E5";
shapes = (
{
closed = 1;
nodes = (
(250,-14,o),
(345,-13,o),
(345,232,cs),
(345,575,l),
(251,575,l),
(251,252,ls),
(251,85,o),
(192,73,o),
(40,84,c),
(36,-14,l)
);
}
);
width = 418;
}
);
},
{
glyphname = K.sc;
kernLeft = H.sc;
kernRight = K.sc;
lastChange = "2021-06-13 10:18:21 +0000";
layers = (
{
anchors = (
{
name = bottom;
pos = (317,0);
},
{
name = top;
pos = (317,575);
}
);
layerId = "438E98ED-2DA7-4574-8792-8200075D96E5";
shapes = (
{
closed = 1;
nodes = (
(189,0,l),
(189,575,l),
(95,575,l),
(95,0,l)
);
},
{
closed = 1;
nodes = (
(570,575,l),
(449,575,l),
(161,282,l),
(185,180,l)
);
},
{
closed = 1;
nodes = (
(580,0,l),
(281,317,l),
(198,274,l),
(458,0,l)
);
}
);
width = 633;
}
);
metricLeft = H.sc;
},
{
glyphname = Khook.sc;
kernLeft = H.sc;
kernRight = K.sc;
lastChange = "2021-06-13 10:19:07 +0000";
layers = (
{
anchors = (
{
name = bottom;
pos = (317,0);
},
{
name = top;
pos = (317,575);
}
);
layerId = "438E98ED-2DA7-4574-8792-8200075D96E5";
shapes = (
{
closed = 1;
nodes = (
(189,0,l),
(189,575,l),
(95,575,l),
(95,0,l)
);
},
{
closed = 1;
nodes = (
(326,382,ls),
(384,471,o),
(420,499,o),
(444,499,cs),
(470,499,o),
(494,489,o),
(513,457,c),
(570,515,l),
(538,576,o),
(485,589,o),
(440,589,cs),
(370,589,o),
(302,506,o),
(261,443,cs),
(154,277,l),
(178,155,l)
);
},
{
closed = 1;
nodes = (
(580,0,l),
(274,322,l),
(192,279,l),
(458,0,l)
);
}
);
width = 633;
}
);
metricLeft = K.sc;
metricRight = K.sc;
},
{
glyphname = L.sc;
kernLeft = H.sc;
kernRight = L.sc;
lastChange = "2021-06-14 09:45:25 +0000";
layers = (
{
anchors = (
{
name = bottom;
pos = (269,0);
},
{
name = center;
pos = (269,288);
},
{
name = top;
pos = (140,575);
},
{
name = topright;
pos = (351,439);
}
);
layerId = "438E98ED-2DA7-4574-8792-8200075D96E5";
shapes = (
{
closed = 1;
nodes = (
(474,0,l),
(474,90,l),
(189,90,l),
(189,575,l),
(95,575,l),
(95,0,l)
);
}
);
width = 531;
}
);
metricLeft = H.sc;
},
{
glyphname = Lslash.sc;
kernLeft = H.sc;
kernRight = L.sc;
lastChange = "2021-06-12 13:02:31 +0000";
layers = (
{
layerId = "438E98ED-2DA7-4574-8792-8200075D96E5";
shapes = (
{
closed = 1;
nodes = (
(80,217,l),
(380,345,l),
(380,436,l),
(80,308,l)
);
},
{
pos = (30,0);
ref = L.sc;
}
);
width = 610;
}
);
},
{
glyphname = M.sc;
kernLeft = H.sc;
kernRight = H.sc;
lastChange = "2021-06-12 13:02:42 +0000";
layers = (
{
anchors = (
{
name = bottom;
pos = (438,0);
},
{
name = top;
pos = (438,575);
}
);
layerId = "438E98ED-2DA7-4574-8792-8200075D96E5";
shapes = (
{
closed = 1;
nodes = (
(189,0,l),
(189,410,l),
(403,74,l),
(481,74,l),
(687,410,l),
(687,0,l),
(781,0,l),
(781,575,l),
(687,575,l),
(442,186,l),
(189,575,l),
(95,575,l),
(95,0,l)
);
}
);
width = 876;
}
);
metricLeft = H.sc;
metricRight = H.sc;
},
{
glyphname = N.sc;
kernLeft = H.sc;
kernRight = H.sc;
lastChange = "2021-06-12 13:02:57 +0000";
layers = (
{
anchors = (
{
name = bottom;
pos = (363,0);
},
{
name = top;
pos = (363,575);
}
);
layerId = "438E98ED-2DA7-4574-8792-8200075D96E5";
shapes = (
{
closed = 1;
nodes = (
(189,0,l),
(189,428,l),
(537,0,l),
(631,0,l),
(631,575,l),
(537,575,l),
(537,147,l),
(189,575,l),
(95,575,l),
(95,0,l)
);
}
);
width = 726;
}
);
metricLeft = H.sc;
metricRight = H.sc;
},
{
glyphname = Eng.sc;
kernLeft = H.sc;
kernRight = H.sc;
lastChange = "2021-06-12 13:03:03 +0000";
layers = (
{
layerId = "438E98ED-2DA7-4574-8792-8200075D96E5";
shapes = (
{
closed = 1;
nodes = (
(537,20,l),
(537,-139,o),
(502,-159,o),
(360,-150,c),
(356,-248,l),
(560,-248,o),
(631,-237,o),
(631,0,c)
);
},
{
ref = N.sc;
}
);
width = 726;
}
);
metricLeft = N.sc;
metricRight = H.sc;
},
{
glyphname = O.sc;
kernLeft = O.sc;
kernRight = O.sc;
lastChange = "2021-06-16 07:20:29 +0000";
layers = (
{
anchors = (
{
name = bottom;
pos = (365,0);
},
{
name = center;
pos = (365,288);
},
{
name = ogonek;
pos = (434,-10);
},
{
name = top;
pos = (365,575);
},
{
name = topleft;
pos = (-15,575);
},
{
name = topright;
pos = (745,575);
}
);
hints = (
{
horizontal = 1;
origin = (0,11);
target = (1,11);
type = Stem;
},
{
horizontal = 1;
origin = (1,5);
target = (0,5);
type = Stem;
},
{
origin = (0,8);
target = (1,2);
type = Stem;
},
{
origin = (1,8);
target = (0,2);
type = Stem;
}
);
layerId = "438E98ED-2DA7-4574-8792-8200075D96E5";
shapes = (
{
closed = 1;
nodes = (
(561,-14,o),
(658,121,o),
(658,287,cs),
(658,453,o),
(561,589,o),
(366,589,cs),
(171,589,o),
(74,453,o),
(74,287,cs),
(74,121,o),
(171,-14,o),
(366,-14,cs)
);
},
{
closed = 1;
nodes = (
(239,76,o),
(170,150,o),
(170,287,cs),
(170,423,o),
(239,500,o),
(366,500,cs),
(494,500,o),
(562,423,o),
(562,287,cs),
(562,158,o),
(494,76,o),
(366,76,cs)
);
}
);
width = 732;
}
);
},
{
glyphname = Oslash.sc;
kernLeft = O.sc;
kernRight = O.sc;
lastChange = "2021-06-12 13:01:47 +0000";
layers = (
{
anchors = (
{
name = bottom;
pos = (412,0);
},
{
name = top;
pos = (412,575);
}
);
background = {
shapes = (
{
closed = 1;
nodes = (
(337,159,o),
(536,395,o),
(736,629,c),
(669,682,l),
(473,444,o),
(276,208,o),
(76,-26,c),
(141,-79,l)
);
}
);
};
layerId = "438E98ED-2DA7-4574-8792-8200075D96E5";
shapes = (
{
closed = 1;
nodes = (
(376,221,o),
(441,299,o),
(635,529,c),
(568,582,l),
(377,350,o),
(314,274,o),
(112,34,c),
(177,-19,l)
);
},
{
ref = O.sc;
}
);
width = 732;
}
);
metricLeft = O.sc;
metricRight = O.sc;
},
{
glyphname = OE.sc;
kernLeft = O.sc;
kernRight = E.sc;
lastChange = "2021-06-12 12:59:20 +0000";
layers = (
{
anchors = (
{
name = bottom;
pos = (522,0);
},
{
name = top;
pos = (522,575);
}
);
hints = (
{
horizontal = 1;
origin = (0,11);
target = (1,11);
type = Stem;
},
{
horizontal = 1;
origin = (1,5);
target = (0,5);
type = Stem;
},
{
origin = (0,8);
target = (1,2);
type = Stem;
},
{
origin = (1,8);
target = (0,2);
type = Stem;
}
);
layerId = "438E98ED-2DA7-4574-8792-8200075D96E5";
shapes = (
{
closed = 1;
nodes = (
(561,-14,o),
(658,141,o),
(658,287,cs),
(658,433,o),
(561,589,o),
(366,589,cs),
(171,589,o),
(74,453,o),
(74,287,cs),
(74,121,o),
(171,-14,o),
(366,-14,cs)
);
},
{
closed = 1;
nodes = (
(239,76,o),
(170,150,o),
(170,287,cs),
(170,423,o),
(239,500,o),
(366,500,cs),
(494,500,o),
(562,423,o),
(562,287,cs),
(562,158,o),
(494,76,o),
(366,76,cs)
);
},
{
pos = (465,0);
ref = E.sc;
}
);
width = 1045;
}
);
metricLeft = O.sc;
metricRight = E.sc;
},
{
glyphname = P.sc;
kernLeft = H.sc;
kernRight = P.sc;
lastChange = "2021-06-12 12:59:31 +0000";
layers = (
{
anchors = (
{
name = bottom;
pos = (299,0);
},
{
name = top;
pos = (299,575);
}
);
layerId = "438E98ED-2DA7-4574-8792-8200075D96E5";
shapes = (
{
closed = 1;
nodes = (
(189,0,l),
(189,223,l),
(305,223,ls),
(465,223,o),
(534,257,o),
(534,400,cs),
(534,541,o),
(468,575,o),
(305,575,cs),
(95,575,l),
(95,0,l)
);
},
{
closed = 1;
nodes = (
(189,486,l),
(306,486,ls),
(414,486,o),
(439,470,o),
(439,401,cs),
(439,331,o),
(417,313,o),
(308,313,cs),
(189,313,l)
);
}
);
width = 583;
}
);
metricLeft = H.sc;
},
{
glyphname = Thorn.sc;
kernLeft = H.sc;
kernRight = P.sc;
lastChange = "2021-06-12 13:03:11 +0000";
layers = (
{
anchors = (
{
name = bottom;
pos = (302,0);
},
{
name = top;
pos = (302,575);
}
);
layerId = "438E98ED-2DA7-4574-8792-8200075D96E5";
shapes = (
{
closed = 1;
nodes = (
(189,0,l),
(189,129,l),
(308,129,ls),
(453,129,o),
(524,175,o),
(524,303,cs),
(524,429,o),
(458,480,o),
(308,480,cs),
(189,480,l),
(189,575,l),
(95,575,l),
(95,0,l)
);
},
{
closed = 1;
nodes = (
(189,391,l),
(306,391,ls),
(391,391,o),
(429,383,o),
(429,304,cs),
(429,224,o),
(398,218,o),
(308,218,cs),
(189,218,l)
);
}
);
width = 597;
}
);
metricLeft = H.sc;
},
{
glyphname = Q.sc;
kernLeft = O.sc;
kernRight = O.sc;
lastChange = "2021-06-12 13:03:22 +0000";
layers = (
{
anchors = (
{
name = bottom;
pos = (402,0);
},
{
name = top;
pos = (402,575);
}
);
background = {
shapes = (
{
closed = 1;
nodes = (
(623,-128,o),
(649,-102,o),
(679,-74,c),
(600,-29,o),
(558,-5,o),
(504,43,c),
(394,43,l),
(450,-29,o),
(526,-110,o),
(604,-147,c)
);
}
);
};
layerId = "438E98ED-2DA7-4574-8792-8200075D96E5";
shapes = (
{
closed = 1;
nodes = (
(558,-94,o),
(590,-65,o),
(613,-45,c),
(568,-18,o),
(539,1,o),
(495,40,c),
(384,40,l),
(423,-20,o),
(483,-79,o),
(537,-115,c)
);
},
{
ref = O.sc;
}
);
width = 732;
}
);
metricLeft = O.sc;
metricRight = O.sc;
},
{
glyphname = R.sc;
kernLeft = H.sc;
kernRight = R.sc;
lastChange = "2021-06-12 12:59:46 +0000";
layers = (
{
anchors = (
{
name = bottom;
pos = (304,0);
},
{
name = top;
pos = (304,575);
}
);
layerId = "438E98ED-2DA7-4574-8792-8200075D96E5";
shapes = (
{
closed = 1;
nodes = (
(189,0,l),
(189,224,l),
(305,224,ls),
(455,224,o),
(534,265,o),
(534,402,cs),
(534,537,o),
(474,575,o),
(305,575,cs),
(95,575,l),
(95,0,l)
);
},
{
closed = 1;
nodes = (
(553,0,l),
(544,15,o),
(535,33,o),
(528,62,cs),
(509,142,ls),
(490,224,o),
(444,276,o),
(351,276,c),
(295,224,l),
(337,224,o),
(395,229,o),
(415,137,cs),
(433,55,ls),
(438,31,o),
(444,13,o),
(452,0,c)
);
},
{
closed = 1;
nodes = (
(189,486,l),
(312,486,ls),
(410,486,o),
(439,474,o),
(439,406,cs),
(439,334,o),
(414,313,o),
(315,313,cs),
(189,313,l)
);
}
);
width = 612;
}
);
metricLeft = H.sc;
},
{
glyphname = S.sc;
kernLeft = S.sc;
kernRight = S.sc;
lastChange = "2021-06-14 11:06:19 +0000";
layers = (
{
anchors = (
{
name = bottom;
pos = (311,0);
},
{
name = top;
pos = (311,575);
}
);
layerId = "438E98ED-2DA7-4574-8792-8200075D96E5";
shapes = (
{
closed = 1;
nodes = (
(460,-14,o),
(555,24,o),
(555,168,cs),
(555,274,o),
(494,316,o),
(382,333,cs),
(259,352,ls),
(198,361,o),
(172,376,o),
(172,415,cs),
(172,485,o),
(251,498,o),
(313,498,cs),
(391,498,o),
(436,464,o),
(449,421,c),
(547,421,l),
(547,504,o),
(467,589,o),
(304,589,cs),
(176,589,o),
(76,532,o),
(76,415,cs),
(76,317,o),
(133,275,o),
(239,258,cs),
(361,239,ls),
(439,227,o),
(458,218,o),
(458,164,cs),
(458,92,o),
(413,79,o),
(314,79,cs),
(218,79,o),
(176,109,o),
(166,166,c),
(68,166,l),
(68,76,o),
(138,-14,o),
(321,-14,c)
);
}
);
width = 624;
}
);
},
{
glyphname = Germandbls.sc;
kernLeft = Germandbls.sc;
kernRight = B.sc;
lastChange = "2021-06-14 11:12:39 +0000";
layers = (
{
layerId = "438E98ED-2DA7-4574-8792-8200075D96E5";
shapes = (
{
closed = 1;
nodes = (
(87,399,ls),
(87,526,o),
(186,594,o),
(329,594,cs),
(461,594,o),
(509,562,o),
(554,510,cs),
(586,473,o),
(575,432,o),
(562,414,cs),
(485,309,l),
(548,286,o),
(595,247,o),
(595,169,cs),
(595,25,o),
(434,-60,o),
(222,17,c),
(281,103,l),
(326,87,o),
(362,81,o),
(391,81,cs),
(473,81,o),
(497,126,o),
(497,165,cs),
(497,215,o),
(482,231,o),
(401,251,cs),
(372,258,o),
(374,302,o),
(394,331,c),
(482,452,l),
(444,490,o),
(409,503,o),
(332,503,cs),
(255,503,o),
(183,479,o),
(183,399,cs),
(183,-3,l),
(87,-3,l)
);
}
);
width = 687;
}
);
},
{
glyphname = T.sc;
kernLeft = T.sc;
kernRight = T.sc;
lastChange = "2021-06-14 11:17:31 +0000";
layers = (
{
anchors = (
{
name = bottom;
pos = (302,0);
},
{
name = center;
pos = (302,288);
},
{
name = top;
pos = (302,575);
}
);
layerId = "438E98ED-2DA7-4574-8792-8200075D96E5";
shapes = (
{
closed = 1;
nodes = (
(255,485,l),
(255,0,l),
(349,0,l),
(349,485,l),
(539,485,l),
(539,575,l),
(65,575,l),
(65,485,l)
);
}
);
width = 603;
}
);
},
{
glyphname = Tbar.sc;
kernLeft = T.sc;
kernRight = T.sc;
lastChange = "2021-06-12 13:04:01 +0000";
layers = (
{
layerId = "438E98ED-2DA7-4574-8792-8200075D96E5";
shapes = (
{
closed = 1;
nodes = (
(482,243,l),
(482,328,l),
(122,328,l),
(122,243,l)
);
},
{
ref = T.sc;
}
);
width = 603;
}
);
metricLeft = T.sc;
metricRight = T.sc;
},
{
glyphname = U.sc;
kernLeft = U.sc;
kernRight = U.sc;
lastChange = "2021-06-14 11:23:21 +0000";
layers = (
{
anchors = (
{
name = bottom;
pos = (311,0);
},
{
name = ogonek;
pos = (375,-11);
},
{
name = top;
pos = (311,575);
},
{
name = topright;
pos = (530,575);
}
);
layerId = "438E98ED-2DA7-4574-8792-8200075D96E5";
shapes = (
{
closed = 1;
nodes = (
(525,-14,o),
(552,108,o),
(552,184,cs),
(552,575,l),
(456,575,l),
(456,203,ls),
(456,106,o),
(412,79,o),
(311,79,cs),
(203,79,o),
(166,104,o),
(166,203,cs),
(166,575,l),
(69,575,l),
(69,184,ls),
(69,109,o),
(97,-14,o),
(311,-14,cs)
);
}
);
width = 621;
}
);
},
{
glyphname = V.sc;
kernLeft = V.sc;
kernRight = V.sc;
lastChange = "2021-06-14 11:37:15 +0000";
layers = (
{
anchors = (
{
name = bottom;
pos = (335,0);
},
{
name = top;
pos = (335,575);
}
);
layerId = "438E98ED-2DA7-4574-8792-8200075D96E5";
shapes = (
{
closed = 1;
nodes = (
(408,0,l),
(618,575,l),
(514,575,l),
(336,96,l),
(158,575,l),
(53,575,l),
(265,0,l)
);
}
);
width = 670;
}
);
},
{
glyphname = W.sc;
kernLeft = W.sc;
kernRight = W.sc;
lastChange = "2021-06-14 11:37:19 +0000";
layers = (
{
anchors = (
{
name = bottom;
pos = (463,0);
},
{
name = top;
pos = (463,575);
}
);
layerId = "438E98ED-2DA7-4574-8792-8200075D96E5";
shapes = (
{
closed = 1;
nodes = (
(335,0,l),
(463,453,l),
(590,0,l),
(718,0,l),
(868,575,l),
(764,575,l),
(652,98,l),
(527,575,l),
(399,575,l),
(273,98,l),
(162,575,l),
(57,575,l),
(207,0,l)
);
}
);
width = 925;
}
);
},
{
glyphname = X.sc;
kernLeft = X.sc;
kernRight = X.sc;
lastChange = "2021-06-14 11:41:28 +0000";
layers = (
{
anchors = (
{
name = bottom;
pos = (363,0);
},
{
name = top;
pos = (363,575);
}
);
layerId = "438E98ED-2DA7-4574-8792-8200075D96E5";
shapes = (
{
closed = 1;
nodes = (
(176,0,l),
(361,246,l),
(545,0,l),
(665,0,l),
(430,301,l),
(637,575,l),
(522,575,l),
(361,358,l),
(206,575,l),
(83,575,l),
(290,301,l),
(59,0,l)
);
}
);
width = 724;
}
);
},
{
glyphname = Y.sc;
kernLeft = Y.sc;
kernRight = Y.sc;
lastChange = "2021-06-14 11:45:51 +0000";
layers = (
{
anchors = (
{
name = bottom;
pos = (297,0);
},
{
name = top;
pos = (297,575);
},
{
name = topleft;
pos = (36,575);
}
);
layerId = "438E98ED-2DA7-4574-8792-8200075D96E5";
shapes = (
{
closed = 1;
nodes = (
(343,0,l),
(343,271,l),
(558,575,l),
(445,575,l),
(297,366,l),
(149,575,l),
(36,575,l),
(251,271,l),
(251,0,l)
);
}
);
width = 593;
}
);
},
{
glyphname = Z.sc;
kernLeft = Z.sc;
kernRight = Z.sc;
lastChange = "2021-06-14 11:49:49 +0000";
layers = (
{
anchors = (
{
name = bottom;
pos = (306,0);
},
{
name = center;
pos = (306,288);
},
{
name = top;
pos = (306,575);
}
);
layerId = "438E98ED-2DA7-4574-8792-8200075D96E5";
shapes = (
{
closed = 1;
nodes = (
(552,0,l),
(552,90,l),
(188,90,l),
(552,486,l),
(552,575,l),
(59,575,l),
(59,486,l),
(424,486,l),
(59,90,l),
(59,0,l)
);
}
);
width = 611;
}
);
},
{
glyphname = a.sc;
kernLeft = A.sc;
kernRight = A.sc;
lastChange = "2021-06-25 07:21:05 +0000";
layers = (
{
anchors = (
{
name = bottom;
pos = (316,0);
},
{
name = ogonek;
pos = (594,0);
},
{
name = top;
pos = (316,575);
}
);
layerId = "438E98ED-2DA7-4574-8792-8200075D96E5";
shapes = (
{
closed = 1;
nodes = (
(143,0,l),
(355,575,l),
(267,575,l),
(44,0,l)
);
},
{
closed = 1;
nodes = (
(455,147,l),
(455,230,l),
(172,230,l),
(172,147,l)
);
},
{
closed = 1;
nodes = (
(588,0,l),
(365,575,l),
(279,575,l),
(490,0,l)
);
}
);
width = 632;
}
);
},
{
glyphname = ae.sc;
kernLeft = A.sc;
kernRight = E.sc;
lastChange = "2021-06-26 08:27:26 +0000";
layers = (
{
anchors = (
{
name = bottom;
pos = (439,0);
},
{
name = top;
pos = (439,575);
}
);
layerId = "438E98ED-2DA7-4574-8792-8200075D96E5";
shapes = (
{
closed = 1;
nodes = (
(143,0,l),
(355,575,l),
(267,575,l),
(44,0,l)
);
},
{
closed = 1;
nodes = (
(435,147,l),
(435,230,l),
(341,230,o),
(246,230,o),
(152,230,c),
(152,147,l)
);
},
{
closed = 1;
nodes = (
(427,484,l),
(427,575,l),
(288,575,l),
(288,484,l)
);
},
{
pos = (262,0);
ref = E.sc;
}
);
width = 842;
}
);
metricLeft = A.sc;
metricRight = E.sc;
},
{
glyphname = b.sc;
kernLeft = H.sc;
kernRight = B.sc;
lastChange = "2021-06-25 07:21:10 +0000";
layers = (
{
anchors = (
{
name = bottom;
pos = (309,0);
},
{
name = top;
pos = (309,575);
}
);
layerId = "438E98ED-2DA7-4574-8792-8200075D96E5";
shapes = (
{
closed = 1;
nodes = (
(349,0,ls),
(448,0,o),
(521,49,o),
(521,162,cs),
(521,255,o),
(466,297,o),
(430,297,c),
(448,297,o),
(506,325,o),
(506,423,cs),
(506,524,o),
(436,575,o),
(328,575,cs),
(95,575,l),
(95,0,l)
);
},
{
closed = 1;
nodes = (
(189,252,l),
(331,252,ls),
(399,252,o),
(429,239,o),
(429,168,cs),
(429,105,o),
(398,90,o),
(333,90,cs),
(189,90,l)
);
},
{
closed = 1;
nodes = (
(189,486,l),
(327,486,ls),
(377,486,o),
(414,479,o),
(414,418,cs),
(414,360,o),
(389,342,o),
(328,342,cs),
(189,342,l)
);
}
);
width = 585;
}
);
metricLeft = H.sc;
},
{
glyphname = c.sc;
kernLeft = O.sc;
kernRight = C.sc;
lastChange = "2021-06-25 07:21:18 +0000";
layers = (
{
anchors = (
{
name = bottom;
pos = (364,-14);
},
{
name = top;
pos = (364,589);
}
);
background = {
shapes = (
{
closed = 0;
nodes = (
(575,53,l),
(504,124,l)
);
},
{
closed = 0;
nodes = (
(487,460,l),
(558,530,l)
);
}
);
};
layerId = "438E98ED-2DA7-4574-8792-8200075D96E5";
shapes = (
{
closed = 1;
nodes = (
(452,-14,o),
(523,17,o),
(566,61,c),
(503,124,l),
(469,87,o),
(415,75,o),
(364,75,cs),
(232,75,o),
(168,157,o),
(168,288,cs),
(168,413,o),
(232,500,o),
(364,500,cs),
(423,500,o),
(463,488,o),
(494,457,c),
(558,519,l),
(516,564,o),
(452,589,o),
(364,589,cs),
(169,589,o),
(74,449,o),
(74,288,cs),
(74,122,o),
(169,-14,o),
(364,-14,cs)
);
}
);
width = 623;
}
);
metricLeft = O.sc;
},
{
glyphname = d.sc;
kernLeft = H.sc;
kernRight = O.sc;
lastChange = "2021-06-25 07:21:23 +0000";
layers = (
{
anchors = (
{
name = bottom;
pos = (324,0);
},
{
name = center;
pos = (324,288);
},
{
name = top;
pos = (324,575);
}
);
layerId = "438E98ED-2DA7-4574-8792-8200075D96E5";
shapes = (
{
closed = 1;
nodes = (
(282,0,ls),
(461,0,o),
(581,70,o),
(581,298,cs),
(581,512,o),
(455,575,o),
(282,575,cs),
(95,575,l),
(95,0,l)
);
},
{
closed = 1;
nodes = (
(189,485,l),
(282,485,ls),
(426,485,o),
(485,443,o),
(485,298,cs),
(485,136,o),
(427,90,o),
(282,90,cs),
(189,90,l)
);
}
);
width = 639;
}
);
metricLeft = H.sc;
},
{
glyphname = eth.sc;
kernLeft = Eth.sc;
kernRight = O.sc;
lastChange = "2021-06-25 07:21:29 +0000";
layers = (
{
layerId = "438E98ED-2DA7-4574-8792-8200075D96E5";
shapes = (
{
closed = 1;
nodes = (
(32,249,l),
(296,249,l),
(296,336,l),
(32,336,l)
);
},
{
ref = D.sc;
}
);
width = 639;
}
);
metricRight = D.sc;
},
{
glyphname = e.sc;
kernLeft = H.sc;
kernRight = E.sc;
lastChange = "2021-06-25 07:21:29 +0000";
layers = (
{
anchors = (
{
name = bottom;
pos = (290,0);
},
{
name = ogonek;
pos = (507,0);
},
{
name = top;
pos = (290,575);
},
{
name = topleft;
pos = (20,575);
}
);
layerId = "438E98ED-2DA7-4574-8792-8200075D96E5";
shapes = (
{
closed = 1;
nodes = (
(189,0,l),
(189,575,l),
(95,575,l),
(95,0,l)
);
},
{
closed = 1;
nodes = (
(495,0,l),
(495,90,l),
(118,90,l),
(118,0,l)
);
},
{
closed = 1;
nodes = (
(473,249,l),
(473,339,l),
(118,339,l),
(118,249,l)
);
},
{
closed = 1;
nodes = (
(490,484,l),
(490,575,l),
(118,575,l),
(118,484,l)
);
}
);
width = 580;
}
);
metricLeft = H.sc;
},
{
glyphname = f.sc;
kernLeft = H.sc;
kernRight = F.sc;
lastChange = "2021-06-25 07:21:33 +0000";
layers = (
{
anchors = (
{
name = bottom;
pos = (284,0);
},
{
name = top;
pos = (284,575);
}
);
layerId = "438E98ED-2DA7-4574-8792-8200075D96E5";
shapes = (
{
closed = 1;
nodes = (
(189,0,l),
(189,249,l),
(468,249,l),
(468,339,l),
(189,339,l),
(189,484,l),
(489,484,l),
(489,575,l),
(95,575,l),
(95,0,l)
);
}
);
width = 537;
}
);
metricLeft = H.sc;
},
{
glyphname = g.sc;
kernLeft = O.sc;
kernRight = G.sc;
lastChange = "2021-06-25 07:21:37 +0000";
layers = (
{
anchors = (
{
name = bottom;
pos = (350,0);
},
{
name = top;
pos = (350,575);
}
);
layerId = "438E98ED-2DA7-4574-8792-8200075D96E5";
shapes = (
{
closed = 1;
nodes = (
(549,-14,o),
(629,91,o),
(629,238,c),
(629,270,o),
(629,291,o),
(629,328,c),
(361,328,l),
(361,238,l),
(541,238,l),
(541,133,o),
(492,76,o),
(358,76,cs),
(225,76,o),
(169,164,o),
(169,288,cs),
(169,411,o),
(225,500,o),
(358,500,cs),
(453,500,o),
(496,477,o),
(517,426,c),
(618,426,l),
(606,476,o),
(550,589,o),
(358,589,cs),
(167,589,o),
(74,451,o),
(74,288,cs),
(74,125,o),
(167,-14,o),
(358,-14,cs)
);
}
);
width = 699;
}
);
metricLeft = O.sc;
},
{
glyphname = h.sc;
kernLeft = H.sc;
kernRight = H.sc;
lastChange = "2021-06-25 07:21:42 +0000";
layers = (
{
anchors = (
{
name = bottom;
pos = (342,0);
},
{
name = center;
pos = (342,288);
},
{
name = top;
pos = (342,575);
},
{
name = topleft;
pos = (85,575);
}
);
hints = (
{
horizontal = 1;
origin = (0,1);
target = (0,8);
type = Stem;
},
{
origin = (0,11);
target = (0,0);
type = Stem;
},
{
origin = (0,3);
target = (0,4);
type = Stem;
}
);
layerId = "438E98ED-2DA7-4574-8792-8200075D96E5";
shapes = (
{
closed = 1;
nodes = (
(189,0,l),
(189,251,l),
(505,251,l),
(505,0,l),
(599,0,l),
(599,575,l),
(505,575,l),
(505,341,l),
(189,341,l),
(189,575,l),
(95,575,l),
(95,0,l)
);
}
);
width = 694;
}
);
},
{
glyphname = hbar.sc;
kernLeft = H.sc;
kernRight = H.sc;
lastChange = "2021-06-25 07:21:42 +0000";
layers = (
{
layerId = "438E98ED-2DA7-4574-8792-8200075D96E5";
shapes = (
{
closed = 1;
nodes = (
(78,421,l),
(685,421,l),
(685,507,l),
(78,507,l)
);
},
{
pos = (40,0);
ref = H.sc;
}
);
width = 763;
}
);
},
{
glyphname = hturned.sc;
kernLeft = Hturned.sc;
kernRight = H.sc;
lastChange = "2021-06-25 07:21:42 +0000";
layers = (
{
layerId = "438E98ED-2DA7-4574-8792-8200075D96E5";
shapes = (
{
closed = 1;
nodes = (
(449,575,l),
(449,357,ls),
(449,348,o),
(449,336,o),
(448,327,cs),
(445,288,o),
(359,265,o),
(304,265,cs),
(246,265,o),
(196,275,o),
(182,313,cs),
(178,324,o),
(177,343,o),
(177,355,cs),
(177,575,l),
(84,575,l),
(84,352,ls),
(84,243,o),
(161,173,o),
(289,173,cs),
(383,173,o),
(434,217,o),
(449,242,c),
(449,0,l),
(541,0,l),
(541,575,l)
);
}
);
width = 636;
}
);
metricRight = H.sc;
},
{
glyphname = i.sc;
kernLeft = H.sc;
kernRight = H.sc;
lastChange = "2021-06-25 07:21:46 +0000";
layers = (
{
anchors = (
{
name = bottom;
pos = (145,0);
},
{
name = ogonek;
pos = (205,0);
},
{
name = top;
pos = (145,575);
},
{
name = topleft;
pos = (37,575);
}
);
layerId = "438E98ED-2DA7-4574-8792-8200075D96E5";
shapes = (
{
closed = 1;
nodes = (
(195,0,l),
(195,575,l),
(95,575,l),
(95,0,l)
);
}
);
width = 290;
}
);
metricLeft = H.sc;
metricRight = H.sc;
},
{
glyphname = j.sc;
kernLeft = J.sc;
kernRight = J.sc;
lastChange = "2021-06-25 07:21:50 +0000";
layers = (
{
anchors = (
{
name = bottom;
pos = (36,-14);
},
{
name = top;
pos = (217,575);
}
);
background = {
shapes = (
{
closed = 0;
nodes = (
(251,255,ls),
(251,93,o),
(208,74,o),
(135,76,cs),
(105,77,l),
(101,-17,l),
(139,-17,ls),
(276,-17,o),
(345,-13,o),
(345,218,cs)
);
}
);
};
layerId = "438E98ED-2DA7-4574-8792-8200075D96E5";
shapes = (
{
closed = 1;
nodes = (
(250,-14,o),
(345,-13,o),
(345,232,cs),
(345,575,l),
(251,575,l),
(251,252,ls),
(251,85,o),
(192,73,o),
(40,84,c),
(36,-14,l)
);
}
);
width = 418;
}
);
},
{
glyphname = k.sc;
kernLeft = H.sc;
kernRight = K.sc;
lastChange = "2021-06-25 07:21:55 +0000";
layers = (
{
anchors = (
{
name = bottom;
pos = (317,0);
},
{
name = top;
pos = (317,575);
}
);
layerId = "438E98ED-2DA7-4574-8792-8200075D96E5";
shapes = (
{
closed = 1;
nodes = (
(189,0,l),
(189,575,l),
(95,575,l),
(95,0,l)
);
},
{
closed = 1;
nodes = (
(570,575,l),
(449,575,l),
(161,282,l),
(185,180,l)
);
},
{
closed = 1;
nodes = (
(580,0,l),
(281,317,l),
(198,274,l),
(458,0,l)
);
}
);
width = 633;
}
);
metricLeft = H.sc;
},
{
glyphname = khook.sc;
kernLeft = H.sc;
kernRight = K.sc;
lastChange = "2021-06-25 07:21:55 +0000";
layers = (
{
anchors = (
{
name = bottom;
pos = (317,0);
},
{
name = top;
pos = (317,575);
}
);
layerId = "438E98ED-2DA7-4574-8792-8200075D96E5";
shapes = (
{
closed = 1;
nodes = (
(189,0,l),
(189,575,l),
(95,575,l),
(95,0,l)
);
},
{
closed = 1;
nodes = (
(326,382,ls),
(384,471,o),
(420,499,o),
(444,499,cs),
(470,499,o),
(494,489,o),
(513,457,c),
(570,515,l),
(538,576,o),
(485,589,o),
(440,589,cs),
(370,589,o),
(302,506,o),
(261,443,cs),
(154,277,l),
(178,155,l)
);
},
{
closed = 1;
nodes = (
(580,0,l),
(274,322,l),
(192,279,l),
(458,0,l)
);
}
);
width = 633;
}
);
metricLeft = K.sc;
metricRight = K.sc;
},
{
glyphname = l.sc;
kernLeft = H.sc;
kernRight = L.sc;
lastChange = "2021-06-25 07:21:59 +0000";
layers = (
{
anchors = (
{
name = bottom;
pos = (269,0);
},
{
name = center;
pos = (269,288);
},
{
name = top;
pos = (140,575);
},
{
name = topright;
pos = (351,439);
}
);
layerId = "438E98ED-2DA7-4574-8792-8200075D96E5";
shapes = (
{
closed = 1;
nodes = (
(474,0,l),
(474,90,l),
(189,90,l),
(189,575,l),
(95,575,l),
(95,0,l)
);
}
);
width = 531;
}
);
metricLeft = H.sc;
},
{
glyphname = lslash.sc;
kernLeft = H.sc;
kernRight = L.sc;
lastChange = "2021-06-25 07:21:59 +0000";
layers = (
{
layerId = "438E98ED-2DA7-4574-8792-8200075D96E5";
shapes = (
{
closed = 1;
nodes = (
(80,217,l),
(380,345,l),
(380,436,l),
(80,308,l)
);
},
{
pos = (30,0);
ref = L.sc;
}
);
width = 610;
}
);
},
{
glyphname = m.sc;
kernLeft = H.sc;
kernRight = H.sc;
lastChange = "2021-06-25 07:20:35 +0000";
layers = (
{
anchors = (
{
name = bottom;
pos = (438,0);
},
{
name = top;
pos = (438,575);
}
);
layerId = "438E98ED-2DA7-4574-8792-8200075D96E5";
shapes = (
{
closed = 1;
nodes = (
(189,0,l),
(189,410,l),
(403,74,l),
(481,74,l),
(687,410,l),
(687,0,l),
(781,0,l),
(781,575,l),
(687,575,l),
(442,186,l),
(189,575,l),
(95,575,l),
(95,0,l)
);
}
);
width = 876;
}
);
metricLeft = H.sc;
metricRight = H.sc;
},
{
glyphname = n.sc;
kernLeft = H.sc;
kernRight = H.sc;
lastChange = "2021-06-25 07:20:35 +0000";
layers = (
{
anchors = (
{
name = bottom;
pos = (363,0);
},
{
name = top;
pos = (363,575);
}
);
layerId = "438E98ED-2DA7-4574-8792-8200075D96E5";
shapes = (
{
closed = 1;
nodes = (
(189,0,l),
(189,428,l),
(537,0,l),
(631,0,l),
(631,575,l),
(537,575,l),
(537,147,l),
(189,575,l),
(95,575,l),
(95,0,l)
);
}
);
width = 726;
}
);
metricLeft = H.sc;
metricRight = H.sc;
},
{
glyphname = eng.sc;
kernLeft = H.sc;
kernRight = H.sc;
lastChange = "2021-06-25 07:21:29 +0000";
layers = (
{
layerId = "438E98ED-2DA7-4574-8792-8200075D96E5";
shapes = (
{
closed = 1;
nodes = (
(537,20,l),
(537,-139,o),
(502,-159,o),
(360,-150,c),
(356,-248,l),
(560,-248,o),
(631,-237,o),
(631,0,c)
);
},
{
ref = N.sc;
}
);
width = 726;
}
);
metricLeft = N.sc;
metricRight = H.sc;
},
{
glyphname = o.sc;
kernLeft = O.sc;
kernRight = O.sc;
lastChange = "2021-06-25 07:20:35 +0000";
layers = (
{
anchors = (
{
name = bottom;
pos = (365,0);
},
{
name = center;
pos = (365,288);
},
{
name = ogonek;
pos = (434,-10);
},
{
name = top;
pos = (365,575);
},
{
name = topleft;
pos = (-15,575);
},
{
name = topright;
pos = (745,575);
}
);
hints = (
{
horizontal = 1;
origin = (0,11);
target = (1,11);
type = Stem;
},
{
horizontal = 1;
origin = (1,5);
target = (0,5);
type = Stem;
},
{
origin = (0,8);
target = (1,2);
type = Stem;
},
{
origin = (1,8);
target = (0,2);
type = Stem;
}
);
layerId = "438E98ED-2DA7-4574-8792-8200075D96E5";
shapes = (
{
closed = 1;
nodes = (
(561,-14,o),
(658,121,o),
(658,287,cs),
(658,453,o),
(561,589,o),
(366,589,cs),
(171,589,o),
(74,453,o),
(74,287,cs),
(74,121,o),
(171,-14,o),
(366,-14,cs)
);
},
{
closed = 1;
nodes = (
(239,76,o),
(170,150,o),
(170,287,cs),
(170,423,o),
(239,500,o),
(366,500,cs),
(494,500,o),
(562,423,o),
(562,287,cs),
(562,158,o),
(494,76,o),
(366,76,cs)
);
}
);
width = 732;
}
);
},
{
glyphname = oslash.sc;
kernLeft = O.sc;
kernRight = O.sc;
lastChange = "2021-06-25 07:20:35 +0000";
layers = (
{
anchors = (
{
name = bottom;
pos = (412,0);
},
{
name = top;
pos = (412,575);
}
);
background = {
shapes = (
{
closed = 1;
nodes = (
(337,159,o),
(536,395,o),
(736,629,c),
(669,682,l),
(473,444,o),
(276,208,o),
(76,-26,c),
(141,-79,l)
);
}
);
};
layerId = "438E98ED-2DA7-4574-8792-8200075D96E5";
shapes = (
{
closed = 1;
nodes = (
(376,221,o),
(441,299,o),
(635,529,c),
(568,582,l),
(377,350,o),
(314,274,o),
(112,34,c),
(177,-19,l)
);
},
{
ref = O.sc;
}
);
width = 732;
}
);
metricLeft = O.sc;
metricRight = O.sc;
},
{
glyphname = oe.sc;
kernLeft = O.sc;
kernRight = E.sc;
lastChange = "2021-06-26 08:27:10 +0000";
layers = (
{
anchors = (
{
name = bottom;
pos = (522,0);
},
{
name = top;
pos = (522,575);
}
);
hints = (
{
horizontal = 1;
origin = (0,11);
target = (1,11);
type = Stem;
},
{
horizontal = 1;
origin = (1,5);
target = (0,5);
type = Stem;
},
{
origin = (0,8);
target = (1,2);
type = Stem;
},
{
origin = (1,8);
target = (0,2);
type = Stem;
}
);
layerId = "438E98ED-2DA7-4574-8792-8200075D96E5";
shapes = (
{
closed = 1;
nodes = (
(561,-14,o),
(658,141,o),
(658,287,cs),
(658,433,o),
(561,589,o),
(366,589,cs),
(171,589,o),
(74,453,o),
(74,287,cs),
(74,121,o),
(171,-14,o),
(366,-14,cs)
);
},
{
closed = 1;
nodes = (
(239,76,o),
(170,150,o),
(170,287,cs),
(170,423,o),
(239,500,o),
(366,500,cs),
(494,500,o),
(562,423,o),
(562,287,cs),
(562,158,o),
(494,76,o),
(366,76,cs)
);
},
{
pos = (465,0);
ref = E.sc;
}
);
width = 1045;
}
);
metricLeft = O.sc;
metricRight = E.sc;
},
{
glyphname = p.sc;
kernLeft = H.sc;
kernRight = P.sc;
lastChange = "2021-06-25 07:20:35 +0000";
layers = (
{
anchors = (
{
name = bottom;
pos = (299,0);
},
{
name = top;
pos = (299,575);
}
);
layerId = "438E98ED-2DA7-4574-8792-8200075D96E5";
shapes = (
{
closed = 1;
nodes = (
(189,0,l),
(189,223,l),
(305,223,ls),
(465,223,o),
(534,257,o),
(534,400,cs),
(534,541,o),
(468,575,o),
(305,575,cs),
(95,575,l),
(95,0,l)
);
},
{
closed = 1;
nodes = (
(189,486,l),
(306,486,ls),
(414,486,o),
(439,470,o),
(439,401,cs),
(439,331,o),
(417,313,o),
(308,313,cs),
(189,313,l)
);
}
);
width = 583;
}
);
metricLeft = H.sc;
},
{
glyphname = thorn.sc;
kernLeft = H.sc;
kernRight = P.sc;
lastChange = "2021-06-25 07:20:35 +0000";
layers = (
{
anchors = (
{
name = bottom;
pos = (302,0);
},
{
name = top;
pos = (302,575);
}
);
layerId = "438E98ED-2DA7-4574-8792-8200075D96E5";
shapes = (
{
closed = 1;
nodes = (
(189,0,l),
(189,129,l),
(308,129,ls),
(453,129,o),
(524,175,o),
(524,303,cs),
(524,429,o),
(458,480,o),
(308,480,cs),
(189,480,l),
(189,575,l),
(95,575,l),
(95,0,l)
);
},
{
closed = 1;
nodes = (
(189,391,l),
(306,391,ls),
(391,391,o),
(429,383,o),
(429,304,cs),
(429,224,o),
(398,218,o),
(308,218,cs),
(189,218,l)
);
}
);
width = 597;
}
);
metricLeft = H.sc;
},
{
glyphname = q.sc;
kernLeft = O.sc;
kernRight = O.sc;
lastChange = "2021-06-25 07:20:35 +0000";
layers = (
{
anchors = (
{
name = bottom;
pos = (402,0);
},
{
name = top;
pos = (402,575);
}
);
background = {
shapes = (
{
closed = 1;
nodes = (
(623,-128,o),
(649,-102,o),
(679,-74,c),
(600,-29,o),
(558,-5,o),
(504,43,c),
(394,43,l),
(450,-29,o),
(526,-110,o),
(604,-147,c)
);
}
);
};
layerId = "438E98ED-2DA7-4574-8792-8200075D96E5";
shapes = (
{
closed = 1;
nodes = (
(558,-94,o),
(590,-65,o),
(613,-45,c),
(568,-18,o),
(539,1,o),
(495,40,c),
(384,40,l),
(423,-20,o),
(483,-79,o),
(537,-115,c)
);
},
{
ref = O.sc;
}
);
width = 732;
}
);
metricLeft = O.sc;
metricRight = O.sc;
},
{
glyphname = r.sc;
kernLeft = H.sc;
kernRight = R.sc;
lastChange = "2021-06-25 07:20:35 +0000";
layers = (
{
anchors = (
{
name = bottom;
pos = (304,0);
},
{
name = top;
pos = (304,575);
}
);
layerId = "438E98ED-2DA7-4574-8792-8200075D96E5";
shapes = (
{
closed = 1;
nodes = (
(189,0,l),
(189,224,l),
(305,224,ls),
(455,224,o),
(534,265,o),
(534,402,cs),
(534,537,o),
(474,575,o),
(305,575,cs),
(95,575,l),
(95,0,l)
);
},
{
closed = 1;
nodes = (
(553,0,l),
(544,15,o),
(535,33,o),
(528,62,cs),
(509,142,ls),
(490,224,o),
(444,276,o),
(351,276,c),
(295,224,l),
(337,224,o),
(395,229,o),
(415,137,cs),
(433,55,ls),
(438,31,o),
(444,13,o),
(452,0,c)
);
},
{
closed = 1;
nodes = (
(189,486,l),
(312,486,ls),
(410,486,o),
(439,474,o),
(439,406,cs),
(439,334,o),
(414,313,o),
(315,313,cs),
(189,313,l)
);
}
);
width = 612;
}
);
metricLeft = H.sc;
},
{
glyphname = s.sc;
kernLeft = S.sc;
kernRight = S.sc;
lastChange = "2021-06-25 07:20:35 +0000";
layers = (
{
anchors = (
{
name = bottom;
pos = (311,0);
},
{
name = top;
pos = (311,575);
}
);
layerId = "438E98ED-2DA7-4574-8792-8200075D96E5";
shapes = (
{
closed = 1;
nodes = (
(460,-14,o),
(555,24,o),
(555,168,cs),
(555,274,o),
(494,316,o),
(382,333,cs),
(259,352,ls),
(198,361,o),
(172,376,o),
(172,415,cs),
(172,485,o),
(251,498,o),
(313,498,cs),
(391,498,o),
(436,464,o),
(449,421,c),
(547,421,l),
(547,504,o),
(467,589,o),
(304,589,cs),
(176,589,o),
(76,532,o),
(76,415,cs),
(76,317,o),
(133,275,o),
(239,258,cs),
(361,239,ls),
(439,227,o),
(458,218,o),
(458,164,cs),
(458,92,o),
(413,79,o),
(314,79,cs),
(218,79,o),
(176,109,o),
(166,166,c),
(68,166,l),
(68,76,o),
(138,-14,o),
(321,-14,c)
);
}
);
width = 624;
}
);
},
{
glyphname = germandbls.sc;
kernLeft = Germandbls.sc;
kernRight = B.sc;
lastChange = "2021-06-25 07:21:37 +0000";
layers = (
{
layerId = "438E98ED-2DA7-4574-8792-8200075D96E5";
shapes = (
{
closed = 1;
nodes = (
(87,399,ls),
(87,526,o),
(186,594,o),
(329,594,cs),
(461,594,o),
(509,562,o),
(554,510,cs),
(586,473,o),
(575,432,o),
(562,414,cs),
(485,309,l),
(548,286,o),
(595,247,o),
(595,169,cs),
(595,25,o),
(434,-60,o),
(222,17,c),
(281,103,l),
(326,87,o),
(362,81,o),
(391,81,cs),
(473,81,o),
(497,126,o),
(497,165,cs),
(497,215,o),
(482,231,o),
(401,251,cs),
(372,258,o),
(374,302,o),
(394,331,c),
(482,452,l),
(444,490,o),
(409,503,o),
(332,503,cs),
(255,503,o),
(183,479,o),
(183,399,cs),
(183,-3,l),
(87,-3,l)
);
}
);
width = 687;
}
);
},
{
glyphname = t.sc;
kernLeft = T.sc;
kernRight = T.sc;
lastChange = "2021-06-25 07:20:35 +0000";
layers = (
{
anchors = (
{
name = bottom;
pos = (302,0);
},
{
name = center;
pos = (302,288);
},
{
name = top;
pos = (302,575);
}
);
layerId = "438E98ED-2DA7-4574-8792-8200075D96E5";
shapes = (
{
closed = 1;
nodes = (
(255,485,l),
(255,0,l),
(349,0,l),
(349,485,l),
(539,485,l),
(539,575,l),
(65,575,l),
(65,485,l)
);
}
);
width = 603;
}
);
},
{
glyphname = tbar.sc;
kernLeft = T.sc;
kernRight = T.sc;
lastChange = "2021-06-25 07:20:35 +0000";
layers = (
{
layerId = "438E98ED-2DA7-4574-8792-8200075D96E5";
shapes = (
{
closed = 1;
nodes = (
(482,243,l),
(482,328,l),
(122,328,l),
(122,243,l)
);
},
{
ref = T.sc;
}
);
width = 603;
}
);
metricLeft = T.sc;
metricRight = T.sc;
},
{
glyphname = u.sc;
kernLeft = U.sc;
kernRight = U.sc;
lastChange = "2021-06-25 07:20:35 +0000";
layers = (
{
anchors = (
{
name = bottom;
pos = (311,0);
},
{
name = ogonek;
pos = (375,-11);
},
{
name = top;
pos = (311,575);
},
{
name = topright;
pos = (530,575);
}
);
layerId = "438E98ED-2DA7-4574-8792-8200075D96E5";
shapes = (
{
closed = 1;
nodes = (
(525,-14,o),
(552,108,o),
(552,184,cs),
(552,575,l),
(456,575,l),
(456,203,ls),
(456,106,o),
(412,79,o),
(311,79,cs),
(203,79,o),
(166,104,o),
(166,203,cs),
(166,575,l),
(69,575,l),
(69,184,ls),
(69,109,o),
(97,-14,o),
(311,-14,cs)
);
}
);
width = 621;
}
);
},
{
glyphname = v.sc;
kernLeft = V.sc;
kernRight = V.sc;
lastChange = "2021-06-25 07:20:35 +0000";
layers = (
{
anchors = (
{
name = bottom;
pos = (335,0);
},
{
name = top;
pos = (335,575);
}
);
layerId = "438E98ED-2DA7-4574-8792-8200075D96E5";
shapes = (
{
closed = 1;
nodes = (
(408,0,l),
(618,575,l),
(514,575,l),
(336,96,l),
(158,575,l),
(53,575,l),
(265,0,l)
);
}
);
width = 670;
}
);
},
{
glyphname = w.sc;
kernLeft = W.sc;
kernRight = W.sc;
lastChange = "2021-06-25 07:20:35 +0000";
layers = (
{
anchors = (
{
name = bottom;
pos = (463,0);
},
{
name = top;
pos = (463,575);
}
);
layerId = "438E98ED-2DA7-4574-8792-8200075D96E5";
shapes = (
{
closed = 1;
nodes = (
(335,0,l),
(463,453,l),
(590,0,l),
(718,0,l),
(868,575,l),
(764,575,l),
(652,98,l),
(527,575,l),
(399,575,l),
(273,98,l),
(162,575,l),
(57,575,l),
(207,0,l)
);
}
);
width = 925;
}
);
},
{
glyphname = x.sc;
kernLeft = X.sc;
kernRight = X.sc;
lastChange = "2021-06-25 07:20:35 +0000";
layers = (
{
anchors = (
{
name = bottom;
pos = (363,0);
},
{
name = top;
pos = (363,575);
}
);
layerId = "438E98ED-2DA7-4574-8792-8200075D96E5";
shapes = (
{
closed = 1;
nodes = (
(176,0,l),
(361,246,l),
(545,0,l),
(665,0,l),
(430,301,l),
(637,575,l),
(522,575,l),
(361,358,l),
(206,575,l),
(83,575,l),
(290,301,l),
(59,0,l)
);
}
);
width = 724;
}
);
},
{
glyphname = y.sc;
kernLeft = Y.sc;
kernRight = Y.sc;
lastChange = "2021-06-25 07:20:35 +0000";
layers = (
{
anchors = (
{
name = bottom;
pos = (297,0);
},
{
name = top;
pos = (297,575);
},
{
name = topleft;
pos = (36,575);
}
);
layerId = "438E98ED-2DA7-4574-8792-8200075D96E5";
shapes = (
{
closed = 1;
nodes = (
(343,0,l),
(343,271,l),
(558,575,l),
(445,575,l),
(297,366,l),
(149,575,l),
(36,575,l),
(251,271,l),
(251,0,l)
);
}
);
width = 593;
}
);
},
{
glyphname = z.sc;
kernLeft = Z.sc;
kernRight = Z.sc;
lastChange = "2021-06-25 07:20:35 +0000";
layers = (
{
anchors = (
{
name = bottom;
pos = (306,0);
},
{
name = center;
pos = (306,288);
},
{
name = top;
pos = (306,575);
}
);
layerId = "438E98ED-2DA7-4574-8792-8200075D96E5";
shapes = (
{
closed = 1;
nodes = (
(552,0,l),
(552,90,l),
(188,90,l),
(552,486,l),
(552,575,l),
(59,575,l),
(59,486,l),
(424,486,l),
(59,90,l),
(59,0,l)
);
}
);
width = 611;
}
);
},
{
glyphname = G.ss02.sc;
kernLeft = O.sc;
kernRight = G.sc;
lastChange = "2021-06-14 12:17:53 +0000";
layers = (
{
anchors = (
{
name = bottom;
pos = (350,0);
},
{
name = top;
pos = (350,575);
}
);
background = {
shapes = (
{
closed = 0;
nodes = (
(487,461,l),
(556,528,l)
);
}
);
};
layerId = "438E98ED-2DA7-4574-8792-8200075D96E5";
shapes = (
{
closed = 1;
nodes = (
(549,-14,o),
(629,91,o),
(629,238,c),
(629,270,o),
(629,291,o),
(629,328,c),
(361,328,l),
(361,238,l),
(541,238,l),
(541,133,o),
(492,76,o),
(358,76,cs),
(225,76,o),
(169,164,o),
(169,288,cs),
(169,411,o),
(225,500,o),
(358,500,cs),
(424,500,o),
(465,489,o),
(491,465,c),
(555,527,l),
(515,561,o),
(453,589,o),
(358,589,cs),
(167,589,o),
(74,451,o),
(74,288,cs),
(74,125,o),
(167,-14,o),
(358,-14,cs)
);
}
);
width = 699;
}
);
metricLeft = O.sc;
metricRight = G.sc;
},
{
glyphname = S.ss02.sc;
kernLeft = S.sc;
kernRight = S.sc;
lastChange = "2021-06-14 12:18:06 +0000";
layers = (
{
anchors = (
{
name = bottom;
pos = (324,0);
},
{
name = top;
pos = (324,575);
}
);
background = {
shapes = (
{
closed = 0;
nodes = (
(458,451,l),
(528,518,l)
);
},
{
closed = 0;
nodes = (
(103,62,l),
(173,129,l)
);
}
);
};
layerId = "438E98ED-2DA7-4574-8792-8200075D96E5";
shapes = (
{
closed = 1;
nodes = (
(473,-14,o),
(578,24,o),
(578,168,cs),
(578,274,o),
(502,317,o),
(390,334,cs),
(267,353,ls),
(206,362,o),
(166,376,o),
(166,415,cs),
(166,485,o),
(254,497,o),
(321,497,cs),
(384,497,o),
(442,478,o),
(467,450,c),
(538,517,l),
(496,558,o),
(411,589,o),
(312,589,cs),
(179,589,o),
(69,532,o),
(69,415,cs),
(69,317,o),
(141,274,o),
(247,257,cs),
(369,238,ls),
(451,225,o),
(480,218,o),
(480,164,cs),
(480,92,o),
(426,80,o),
(322,80,cs),
(245,80,o),
(177,95,o),
(140,147,c),
(68,83,l),
(119,12,o),
(218,-14,o),
(329,-14,c)
);
}
);
width = 647;
}
);
metricLeft = S.sc;
metricRight = S.sc;
},
{
glyphname = g.ss02.sc;
kernLeft = O.sc;
kernRight = G.sc;
lastChange = "2021-06-25 07:21:37 +0000";
layers = (
{
anchors = (
{
name = bottom;
pos = (350,0);
},
{
name = top;
pos = (350,575);
}
);
background = {
shapes = (
{
closed = 0;
nodes = (
(487,461,l),
(556,528,l)
);
}
);
};
layerId = "438E98ED-2DA7-4574-8792-8200075D96E5";
shapes = (
{
closed = 1;
nodes = (
(549,-14,o),
(629,91,o),
(629,238,c),
(629,270,o),
(629,291,o),
(629,328,c),
(361,328,l),
(361,238,l),
(541,238,l),
(541,133,o),
(492,76,o),
(358,76,cs),
(225,76,o),
(169,164,o),
(169,288,cs),
(169,411,o),
(225,500,o),
(358,500,cs),
(424,500,o),
(465,489,o),
(491,465,c),
(555,527,l),
(515,561,o),
(453,589,o),
(358,589,cs),
(167,589,o),
(74,451,o),
(74,288,cs),
(74,125,o),
(167,-14,o),
(358,-14,cs)
);
}
);
width = 699;
}
);
metricLeft = O.sc;
metricRight = G.sc;
},
{
glyphname = s.ss02.sc;
kernLeft = S.sc;
kernRight = S.sc;
lastChange = "2021-06-25 07:20:35 +0000";
layers = (
{
anchors = (
{
name = bottom;
pos = (324,0);
},
{
name = top;
pos = (324,575);
}
);
background = {
shapes = (
{
closed = 0;
nodes = (
(458,451,l),
(528,518,l)
);
},
{
closed = 0;
nodes = (
(103,62,l),
(173,129,l)
);
}
);
};
layerId = "438E98ED-2DA7-4574-8792-8200075D96E5";
shapes = (
{
closed = 1;
nodes = (
(473,-14,o),
(578,24,o),
(578,168,cs),
(578,274,o),
(502,317,o),
(390,334,cs),
(267,353,ls),
(206,362,o),
(166,376,o),
(166,415,cs),
(166,485,o),
(254,497,o),
(321,497,cs),
(384,497,o),
(442,478,o),
(467,450,c),
(538,517,l),
(496,558,o),
(411,589,o),
(312,589,cs),
(179,589,o),
(69,532,o),
(69,415,cs),
(69,317,o),
(141,274,o),
(247,257,cs),
(369,238,ls),
(451,225,o),
(480,218,o),
(480,164,cs),
(480,92,o),
(426,80,o),
(322,80,cs),
(245,80,o),
(177,95,o),
(140,147,c),
(68,83,l),
(119,12,o),
(218,-14,o),
(329,-14,c)
);
}
);
width = 647;
}
);
metricLeft = S.sc;
metricRight = S.sc;
},
{
glyphname = Q.ss03.sc;
kernLeft = O.sc;
kernRight = O.sc;
lastChange = "2021-06-12 13:04:43 +0000";
layers = (
{
anchors = (
{
name = bottom;
pos = (404,0);
},
{
name = top;
pos = (404,752);
}
);
layerId = "438E98ED-2DA7-4574-8792-8200075D96E5";
shapes = (
{
closed = 1;
nodes = (
(649,-46,l),
(542,48,o),
(507,85,o),
(470,167,c),
(357,167,l),
(421,52,o),
(439,31,o),
(519,-46,c)
);
},
{
ref = O.sc;
}
);
width = 732;
}
);
metricLeft = O.sc;
metricRight = O.sc;
},
{
glyphname = q.ss03.sc;
kernLeft = O.sc;
kernRight = O.sc;
lastChange = "2021-06-25 07:20:35 +0000";
layers = (
{
anchors = (
{
name = bottom;
pos = (404,0);
},
{
name = top;
pos = (404,752);
}
);
layerId = "438E98ED-2DA7-4574-8792-8200075D96E5";
shapes = (
{
closed = 1;
nodes = (
(649,-46,l),
(542,48,o),
(507,85,o),
(470,167,c),
(357,167,l),
(421,52,o),
(439,31,o),
(519,-46,c)
);
},
{
ref = O.sc;
}
);
width = 732;
}
);
metricLeft = O.sc;
metricRight = O.sc;
},
{
glyphname = "Be-cy";
kernLeft = B;
kernRight = Becyrillic;
lastChange = "2021-06-16 06:34:24 +0000";
layers = (
{
layerId = "438E98ED-2DA7-4574-8792-8200075D96E5";
shapes = (
{
closed = 1;
nodes = (
(380,0,ls),
(495,0,o),
(601,63,o),
(601,209,cs),
(601,365,o),
(505,432,o),
(380,432,c),
(172,432,l),
(172,662,l),
(543,662,l),
(543,752,l),
(78,752,l),
(78,0,l)
);
},
{
closed = 1;
nodes = (
(172,342,l),
(363,342,ls),
(451,342,o),
(506,314,o),
(506,209,cs),
(506,115,o),
(450,90,o),
(366,90,cs),
(172,90,l)
);
}
);
width = 647;
}
);
unicode = 1041;
},
{
glyphname = "Ge-cy";
kernLeft = B;
kernRight = Gecyrillic;
lastChange = "2020-07-24 23:54:17 +0000";
layers = (
{
anchors = (
{
name = bottomright;
pos = (563,0);
},
{
name = top;
pos = (292,752);
}
);
layerId = "438E98ED-2DA7-4574-8792-8200075D96E5";
shapes = (
{
closed = 1;
nodes = (
(172,0,l),
(172,662,l),
(543,662,l),
(543,752,l),
(78,752,l),
(78,0,l)
);
}
);
width = 583;
}
);
unicode = 1043;
},
{
glyphname = "Gheupturn-cy";
kernLeft = B;
kernRight = Gecyrillic;
lastChange = "2020-07-27 09:47:51 +0000";
layers = (
{
layerId = "438E98ED-2DA7-4574-8792-8200075D96E5";
shapes = (
{
closed = 1;
nodes = (
(172,0,l),
(172,662,l),
(543,662,l),
(543,752,l),
(78,752,l),
(78,0,l)
);
},
{
closed = 1;
nodes = (
(543,752,l),
(543,882,l),
(458,882,l),
(458,752,l)
);
}
);
width = 583;
}
);
metricLeft = "Ge-cy";
metricRight = "Ge-cy";
unicode = 1168;
},
{
glyphname = "De-cy";
kernLeft = Decyrillic;
kernRight = Decyrillic;
lastChange = "2020-07-28 05:22:28 +0000";
layers = (
{
background = {
shapes = (
{
closed = 1;
nodes = (
(669,752,l),
(204,752,l),
(204,663,l),
(575,663,l),
(575,0,l),
(669,0,l)
);
}
);
};
layerId = "438E98ED-2DA7-4574-8792-8200075D96E5";
shapes = (
{
closed = 1;
nodes = (
(669,0,l),
(669,752,l),
(269,752,l),
(269,662,l),
(575,662,l),
(575,0,l)
);
},
{
closed = 1;
nodes = (
(756,0,l),
(756,90,l),
(40,90,l),
(40,0,l)
);
},
{
closed = 1;
nodes = (
(192,90,l),
(218,100,o),
(262,159,o),
(277,246,cs),
(302,393,o),
(315,587,o),
(315,752,c),
(223,752,l),
(223,585,o),
(211,398,o),
(184,251,cs),
(168,166,o),
(100,90,o),
(51,90,c)
);
},
{
closed = 1;
nodes = (
(756,-130,l),
(756,0,l),
(671,0,l),
(671,-130,l)
);
},
{
closed = 1;
nodes = (
(125,-130,l),
(125,0,l),
(40,0,l),
(40,-130,l)
);
}
);
width = 804;
}
);
unicode = 1044;
},
{
glyphname = "Zhe-cy";
kernLeft = Zhecyrillic;
kernRight = K;
lastChange = "2020-07-28 05:22:35 +0000";
layers = (
{
anchors = (
{
name = bottomright;
pos = (1109,0);
},
{
name = top;
pos = (562,752);
}
);
layerId = "438E98ED-2DA7-4574-8792-8200075D96E5";
shapes = (
{
closed = 1;
nodes = (
(555,366,l),
(189,752,l),
(67,752,l),
(448,353,l)
);
},
{
closed = 1;
nodes = (
(167,0,l),
(502,361,l),
(437,418,l),
(43,0,l)
);
},
{
closed = 1;
nodes = (
(609,0,l),
(609,752,l),
(515,752,l),
(515,0,l)
);
},
{
closed = 1;
nodes = (
(710,341,l),
(710,431,l),
(415,431,l),
(415,341,l)
);
},
{
closed = 1;
nodes = (
(1081,0,l),
(687,418,l),
(622,361,l),
(957,0,l)
);
},
{
closed = 1;
nodes = (
(1057,752,l),
(935,752,l),
(569,366,l),
(677,354,l)
);
}
);
width = 1124;
}
);
unicode = 1046;
},
{
glyphname = "Ze-cy";
kernLeft = three;
kernRight = B;
lastChange = "2020-07-28 04:55:17 +0000";
layers = (
{
anchors = (
{
name = bottom;
pos = (304,0);
},
{
name = top;
pos = (304,752);
}
);
background = {
shapes = (
{
closed = 1;
nodes = (
(488,-14,o),
(562,85,o),
(562,207,cs),
(562,295,o),
(526,354,o),
(449,399,c),
(506,435,o),
(539,488,o),
(539,562,cs),
(539,690,o),
(454,772,o),
(300,772,cs),
(146,772,o),
(61,680,o),
(61,562,c),
(150,562,l),
(150,651,o),
(215,691,o),
(300,691,cs),
(385,691,o),
(450,651,o),
(450,562,cs),
(450,473,o),
(391,436,o),
(301,436,cs),
(289,436,o),
(223,436,o),
(210,436,c),
(210,348,l),
(223,348,o),
(289,348,o),
(301,348,cs),
(401,348,o),
(467,308,o),
(467,207,cs),
(467,106,o),
(393,76,o),
(300,76,cs),
(211,76,o),
(148,108,o),
(143,194,c),
(48,194,l),
(52,82,o),
(116,-14,o),
(300,-14,cs)
);
}
);
};
layerId = "438E98ED-2DA7-4574-8792-8200075D96E5";
shapes = (
{
closed = 1;
nodes = (
(488,-14,o),
(562,85,o),
(562,207,cs),
(562,295,o),
(526,351,o),
(449,396,c),
(506,432,o),
(537,488,o),
(537,562,cs),
(537,690,o),
(454,772,o),
(300,772,cs),
(148,772,o),
(50,679,o),
(50,566,c),
(139,566,l),
(139,651,o),
(218,691,o),
(300,691,cs),
(385,691,o),
(448,651,o),
(448,562,cs),
(448,473,o),
(385,428,o),
(295,428,cs),
(283,428,o),
(217,428,o),
(204,428,c),
(204,342,l),
(217,342,o),
(283,342,o),
(295,342,cs),
(395,342,o),
(467,308,o),
(467,207,cs),
(467,106,o),
(393,76,o),
(300,76,cs),
(211,76,o),
(138,126,o),
(133,199,c),
(38,199,l),
(42,87,o),
(116,-14,o),
(300,-14,cs)
);
}
);
width = 608;
}
);
unicode = 1047;
},
{
glyphname = "Ii-cy";
kernLeft = B;
kernRight = H;
lastChange = "2020-07-28 01:37:22 +0000";
layers = (
{
anchors = (
{
name = bottomright;
pos = (752,0);
},
{
name = top;
pos = (386,752);
}
);
layerId = "438E98ED-2DA7-4574-8792-8200075D96E5";
shapes = (
{
closed = 1;
nodes = (
(172,0,l),
(600,581,l),
(600,0,l),
(694,0,l),
(694,752,l),
(600,752,l),
(172,166,l),
(172,752,l),
(78,752,l),
(78,0,l)
);
}
);
width = 772;
}
);
unicode = 1048;
},
{
glyphname = "Ka-cy";
kernLeft = B;
kernRight = K;
lastChange = "2020-07-28 05:24:22 +0000";
layers = (
{
anchors = (
{
name = bottomright;
pos = (672,0);
},
{
name = top;
pos = (346,752);
}
);
layerId = "438E98ED-2DA7-4574-8792-8200075D96E5";
shapes = (
{
closed = 1;
nodes = (
(625,752,l),
(507,752,l),
(137,366,l),
(223,331,l)
);
},
{
closed = 1;
nodes = (
(172,0,l),
(172,752,l),
(78,752,l),
(78,0,l)
);
},
{
closed = 1;
nodes = (
(649,0,l),
(255,418,l),
(184,361,l),
(527,0,l)
);
},
{
closed = 1;
nodes = (
(274,330,l),
(274,420,l),
(89,420,l),
(89,330,l)
);
}
);
width = 692;
}
);
unicode = 1050;
},
{
glyphname = "El-cy";
kernLeft = Elcyrillic;
kernRight = H;
lastChange = "2020-07-28 04:50:07 +0000";
layers = (
{
background = {
shapes = (
{
closed = 0;
nodes = (
(149,228,ls),
(149,103,o),
(103,91,o),
(30,93,cs),
(0,94,l),
(-4,0,l),
(34,0,ls),
(171,0,o),
(240,4,o),
(240,235,cs)
);
}
);
};
layerId = "438E98ED-2DA7-4574-8792-8200075D96E5";
shapes = (
{
closed = 1;
nodes = (
(674,0,l),
(674,752,l),
(247,752,l),
(247,662,l),
(580,662,l),
(580,0,l)
);
},
{
closed = 1;
nodes = (
(26,0,l),
(216,0,o),
(246,30,o),
(282,246,cs),
(307,393,o),
(320,587,o),
(320,752,c),
(228,752,l),
(228,585,o),
(217,398,o),
(189,251,cs),
(161,105,o),
(143,91,o),
(30,94,c)
);
}
);
width = 752;
}
);
unicode = 1051;
},
{
glyphname = "Pe-cy";
kernLeft = B;
kernRight = H;
lastChange = "2020-07-26 09:14:54 +0000";
layers = (
{
anchors = (
{
name = bottomright;
pos = (704,0);
}
);
layerId = "438E98ED-2DA7-4574-8792-8200075D96E5";
shapes = (
{
closed = 1;
nodes = (
(646,0,l),
(646,752,l),
(552,752,l),
(552,0,l)
);
},
{
closed = 1;
nodes = (
(172,0,l),
(172,752,l),
(78,752,l),
(78,0,l)
);
},
{
closed = 1;
nodes = (
(646,662,l),
(646,752,l),
(78,752,l),
(78,662,l)
);
}
);
width = 724;
}
);
unicode = 1055;
},
{
glyphname = "U-cy";
kernLeft = Ucyrillic;
kernRight = V;
lastChange = "2021-06-11 14:38:01 +0000";
layers = (
{
anchors = (
{
name = top;
pos = (341,752);
}
);
layerId = "438E98ED-2DA7-4574-8792-8200075D96E5";
shapes = (
{
closed = 1;
nodes = (
(217,-14,ls),
(298,-14,o),
(307,0,o),
(376,155,cs),
(642,752,l),
(534,752,l),
(350,325,l),
(152,752,l),
(43,752,l),
(301,212,l),
(272,147,ls),
(244,84,o),
(223,76,o),
(162,77,cs),
(114,78,l),
(111,-14,l)
);
}
);
width = 681;
}
);
unicode = 1059;
},
{
glyphname = "Ef-cy";
kernLeft = Efcyrillic;
kernRight = Efcyrillic;
lastChange = "2020-07-28 04:50:52 +0000";
layers = (
{
hints = (
{
horizontal = 1;
origin = (0,8);
target = (1,2);
type = Stem;
},
{
horizontal = 1;
origin = (1,8);
target = (0,2);
type = Stem;
},
{
origin = (0,5);
target = (1,5);
type = Stem;
},
{
origin = (1,11);
target = (0,11);
type = Stem;
}
);
layerId = "438E98ED-2DA7-4574-8792-8200075D96E5";
shapes = (
{
closed = 1;
nodes = (
(583,63,o),
(753,150,o),
(753,383,cs),
(753,616,o),
(583,703,o),
(384,703,cs),
(185,703,o),
(15,616,o),
(15,383,cs),
(15,150,o),
(185,63,o),
(384,63,cs)
);
},
{
closed = 1;
nodes = (
(225,149,o),
(104,212,o),
(104,383,cs),
(104,553,o),
(216,617,o),
(384,617,cs),
(551,617,o),
(665,553,o),
(665,383,cs),
(665,212,o),
(551,149,o),
(384,149,cs)
);
},
{
closed = 1;
nodes = (
(431,0,l),
(431,752,l),
(337,752,l),
(337,0,l)
);
}
);
width = 768;
}
);
unicode = 1060;
},
{
glyphname = "Che-cy";
kernLeft = Checyrillic;
kernRight = H;
lastChange = "2020-07-28 04:55:56 +0000";
layers = (
{
anchors = (
{
name = bottomright;
pos = (667,0);
},
{
name = top;
pos = (347,752);
}
);
layerId = "438E98ED-2DA7-4574-8792-8200075D96E5";
shapes = (
{
closed = 1;
nodes = (
(515,750,l),
(515,460,ls),
(515,449,o),
(515,437,o),
(513,426,cs),
(504,371,o),
(411,334,o),
(327,334,cs),
(240,334,o),
(189,358,o),
(170,408,cs),
(164,423,o),
(163,442,o),
(163,458,cs),
(163,750,l),
(69,750,l),
(69,454,ls),
(69,313,o),
(140,246,o),
(308,246,cs),
(430,246,o),
(496,287,o),
(515,319,c),
(515,0,l),
(609,0,l),
(609,750,l)
);
}
);
width = 687;
}
);
unicode = 1063;
},
{
glyphname = "Tse-cy";
kernLeft = B;
kernRight = Decyrillic;
lastChange = "2020-07-26 10:56:58 +0000";
layers = (
{
layerId = "438E98ED-2DA7-4574-8792-8200075D96E5";
shapes = (
{
closed = 1;
nodes = (
(552,0,l),
(646,0,l),
(646,752,l),
(552,752,l)
);
},
{
closed = 1;
nodes = (
(78,0,l),
(172,0,l),
(172,752,l),
(78,752,l)
);
},
{
closed = 1;
nodes = (
(78,0,l),
(734,0,l),
(734,90,l),
(78,90,l)
);
},
{
closed = 1;
nodes = (
(734,-130,l),
(734,0,l),
(649,0,l),
(649,-130,l)
);
}
);
width = 782;
}
);
unicode = 1062;
},
{
glyphname = "Sha-cy";
kernLeft = B;
kernRight = H;
lastChange = "2020-03-09 06:37:25 +0000";
layers = (
{
layerId = "438E98ED-2DA7-4574-8792-8200075D96E5";
shapes = (
{
closed = 1;
nodes = (
(842,0,l),
(936,0,l),
(936,752,l),
(842,752,l)
);
},
{
closed = 1;
nodes = (
(78,0,l),
(172,0,l),
(172,752,l),
(78,752,l)
);
},
{
closed = 1;
nodes = (
(78,0,l),
(936,0,l),
(936,90,l),
(78,90,l)
);
},
{
closed = 1;
nodes = (
(460,0,l),
(554,0,l),
(554,752,l),
(460,752,l)
);
}
);
width = 1014;
}
);
unicode = 1064;
},
{
glyphname = "Shcha-cy";
kernLeft = B;
kernRight = Decyrillic;
lastChange = "2020-03-09 07:18:35 +0000";
layers = (
{
layerId = "438E98ED-2DA7-4574-8792-8200075D96E5";
shapes = (
{
closed = 1;
nodes = (
(842,0,l),
(936,0,l),
(936,752,l),
(842,752,l)
);
},
{
closed = 1;
nodes = (
(78,0,l),
(172,0,l),
(172,752,l),
(78,752,l)
);
},
{
closed = 1;
nodes = (
(78,0,l),
(939,0,l),
(939,90,l),
(78,90,l)
);
},
{
closed = 1;
nodes = (
(460,0,l),
(554,0,l),
(554,752,l),
(460,752,l)
);
},
{
closed = 1;
nodes = (
(1024,-130,l),
(1024,90,l),
(939,90,l),
(939,-130,l)
);
}
);
width = 1072;
}
);
unicode = 1065;
},
{
glyphname = "Dzhe-cy";
kernLeft = B;
kernRight = H;
lastChange = "2020-03-11 02:55:51 +0000";
layers = (
{
layerId = "438E98ED-2DA7-4574-8792-8200075D96E5";
shapes = (
{
closed = 1;
nodes = (
(405,-130,l),
(405,0,l),
(320,0,l),
(320,-130,l)
);
},
{
closed = 1;
nodes = (
(646,0,l),
(646,752,l),
(552,752,l),
(552,90,l),
(172,90,l),
(172,752,l),
(78,752,l),
(78,0,l)
);
}
);
width = 724;
}
);
unicode = 1039;
},
{
glyphname = "Softsign-cy";
kernLeft = B;
kernRight = Hardsigncyrillic;
lastChange = "2020-07-26 11:07:42 +0000";
layers = (
{
layerId = "438E98ED-2DA7-4574-8792-8200075D96E5";
shapes = (
{
closed = 1;
nodes = (
(380,0,ls),
(495,0,o),
(601,63,o),
(601,209,cs),
(601,365,o),
(505,432,o),
(380,432,c),
(172,432,l),
(172,752,l),
(78,752,l),
(78,0,l)
);
},
{
closed = 1;
nodes = (
(172,342,l),
(363,342,ls),
(451,342,o),
(506,314,o),
(506,209,cs),
(506,115,o),
(450,90,o),
(366,90,cs),
(172,90,l)
);
}
);
width = 647;
}
);
unicode = 1068;
},
{
glyphname = "Yeru-cy";
kernLeft = B;
kernRight = H;
lastChange = "2020-03-09 06:35:11 +0000";
layers = (
{
anchors = (
{
name = top;
pos = (443,752);
}
);
layerId = "438E98ED-2DA7-4574-8792-8200075D96E5";
shapes = (
{
closed = 1;
nodes = (
(380,0,ls),
(495,0,o),
(601,63,o),
(601,209,cs),
(601,365,o),
(505,432,o),
(380,432,c),
(172,432,l),
(172,752,l),
(78,752,l),
(78,0,l)
);
},
{
closed = 1;
nodes = (
(172,342,l),
(363,342,ls),
(451,342,o),
(506,314,o),
(506,209,cs),
(506,115,o),
(450,90,o),
(366,90,cs),
(172,90,l)
);
},
{
pos = (630,0);
ref = I;
}
);
width = 886;
}
);
unicode = 1067;
},
{
glyphname = "Hardsign-cy";
kernLeft = Hardsigncyrillic;
kernRight = Hardsigncyrillic;
lastChange = "2020-07-28 04:56:26 +0000";
layers = (
{
anchors = (
{
name = top;
pos = (372,752);
}
);
layerId = "438E98ED-2DA7-4574-8792-8200075D96E5";
shapes = (
{
closed = 1;
nodes = (
(476,0,ls),
(591,0,o),
(697,63,o),
(697,209,cs),
(697,365,o),
(601,432,o),
(476,432,cs),
(268,432,l),
(268,752,l),
(174,752,l),
(174,0,l)
);
},
{
closed = 1;
nodes = (
(268,342,l),
(459,342,ls),
(547,342,o),
(602,314,o),
(602,209,cs),
(602,115,o),
(546,90,o),
(462,90,cs),
(268,90,l)
);
},
{
closed = 1;
nodes = (
(174,667,l),
(174,752,l),
(34,752,l),
(34,667,l)
);
}
);
width = 743;
}
);
unicode = 1066;
},
{
glyphname = "Lje-cy";
kernLeft = Elcyrillic;
kernRight = Hardsigncyrillic;
lastChange = "2020-07-28 01:29:49 +0000";
layers = (
{
layerId = "438E98ED-2DA7-4574-8792-8200075D96E5";
shapes = (
{
closed = 1;
nodes = (
(674,0,l),
(674,752,l),
(247,752,l),
(247,662,l),
(580,662,l),
(580,0,l)
);
},
{
closed = 1;
nodes = (
(26,0,l),
(216,0,o),
(246,30,o),
(282,246,cs),
(307,393,o),
(320,587,o),
(320,752,c),
(228,752,l),
(228,585,o),
(217,398,o),
(189,251,cs),
(161,105,o),
(143,91,o),
(30,94,c)
);
},
{
closed = 1;
nodes = (
(882,0,ls),
(997,0,o),
(1103,63,o),
(1103,209,cs),
(1103,365,o),
(1007,432,o),
(882,432,c),
(674,432,l),
(674,752,l),
(580,752,l),
(580,0,l)
);
},
{
closed = 1;
nodes = (
(674,342,l),
(865,342,ls),
(953,342,o),
(1008,314,o),
(1008,209,cs),
(1008,115,o),
(952,90,o),
(868,90,cs),
(674,90,l)
);
}
);
width = 1149;
}
);
unicode = 1033;
},
{
glyphname = "Nje-cy";
kernLeft = B;
kernRight = Hardsigncyrillic;
lastChange = "2020-07-27 09:32:40 +0000";
layers = (
{
layerId = "438E98ED-2DA7-4574-8792-8200075D96E5";
shapes = (
{
closed = 1;
nodes = (
(872,0,ls),
(987,0,o),
(1093,63,o),
(1093,209,cs),
(1093,365,o),
(997,432,o),
(872,432,c),
(664,432,l),
(664,752,l),
(570,752,l),
(570,0,l)
);
},
{
closed = 1;
nodes = (
(664,342,l),
(855,342,ls),
(943,342,o),
(998,314,o),
(998,209,cs),
(998,115,o),
(942,90,o),
(858,90,cs),
(664,90,l)
);
},
{
ref = H;
}
);
width = 1139;
}
);
unicode = 1034;
},
{
glyphname = "E-cy";
kernLeft = C;
kernRight = C;
lastChange = "2020-07-27 10:20:35 +0000";
layers = (
{
layerId = "438E98ED-2DA7-4574-8792-8200075D96E5";
shapes = (
{
closed = 1;
nodes = (
(476,341,l),
(476,431,l),
(147,431,l),
(147,341,l)
);
},
{
ref = C;
}
);
width = 706;
}
);
unicode = 1028;
},
{
glyphname = "Ereversed-cy";
kernLeft = Ereversedcyrillic;
kernRight = D;
lastChange = "2020-07-28 05:13:41 +0000";
layers = (
{
layerId = "438E98ED-2DA7-4574-8792-8200075D96E5";
shapes = (
{
closed = 1;
nodes = (
(559,341,l),
(559,431,l),
(230,431,l),
(230,341,l)
);
},
{
pos = (706,0);
ref = C;
scale = (-1,1);
}
);
width = 706;
}
);
unicode = 1069;
},
{
glyphname = "Tshe-cy";
kernLeft = T;
kernRight = a;
lastChange = "2020-07-28 01:39:16 +0000";
layers = (
{
layerId = "438E98ED-2DA7-4574-8792-8200075D96E5";
shapes = (
{
closed = 1;
nodes = (
(362,2,l),
(362,292,ls),
(362,303,o),
(362,315,o),
(364,326,cs),
(374,381,o),
(466,418,o),
(550,418,cs),
(637,418,o),
(687,394,o),
(707,344,cs),
(713,329,o),
(714,310,o),
(714,294,cs),
(714,2,l),
(808,2,l),
(808,298,ls),
(808,439,o),
(737,506,o),
(569,506,cs),
(447,506,o),
(381,465,o),
(362,433,c),
(362,752,l),
(268,752,l),
(268,2,l)
);
},
{
pos = (-10,0);
ref = T;
}
);
width = 873;
}
);
metricRight = n;
unicode = 1035;
},
{
glyphname = "Iu-cy";
kernLeft = B;
kernRight = D;
lastChange = "2020-07-27 09:49:57 +0000";
layers = (
{
anchors = (
{
name = top;
pos = (495,752);
}
);
hints = (
{
horizontal = 1;
origin = (0,11);
target = (2,11);
type = Stem;
},
{
horizontal = 1;
origin = (2,5);
target = (0,5);
type = Stem;
},
{
origin = (0,8);
target = (2,2);
type = Stem;
},
{
origin = (2,8);
target = (0,2);
type = Stem;
}
);
layerId = "438E98ED-2DA7-4574-8792-8200075D96E5";
shapes = (
{
closed = 1;
nodes = (
(853,-14,o),
(940,164,o),
(940,379,cs),
(940,594,o),
(853,772,o),
(601,772,cs),
(349,772,o),
(262,594,o),
(262,379,cs),
(262,164,o),
(349,-14,o),
(601,-14,cs)
);
},
{
closed = 1;
nodes = (
(306,341,l),
(306,431,l),
(102,431,l),
(102,341,l)
);
},
{
closed = 1;
nodes = (
(417,76,o),
(358,197,o),
(358,379,cs),
(358,560,o),
(417,683,o),
(601,683,cs),
(786,683,o),
(844,560,o),
(844,379,cs),
(844,207,o),
(786,76,o),
(601,76,cs)
);
},
{
ref = I;
}
);
width = 990;
}
);
unicode = 1070;
},
{
glyphname = "Dje-cy";
kernLeft = T;
kernRight = Djecyrillic;
lastChange = "2021-06-12 08:28:16 +0000";
layers = (
{
layerId = "438E98ED-2DA7-4574-8792-8200075D96E5";
shapes = (
{
closed = 1;
nodes = (
(571,0,ls),
(742,0,o),
(777,110,o),
(777,235,cs),
(777,364,o),
(694,450,o),
(553,450,cs),
(448,450,o),
(388,408,o),
(372,377,c),
(372,229,l),
(374,264,l),
(382,325,o),
(462,360,o),
(536,360,cs),
(619,360,o),
(686,331,o),
(686,231,cs),
(686,162,o),
(665,88,o),
(567,93,cs),
(547,94,l),
(543,0,l)
);
},
{
ref = T;
}
);
width = 818;
}
);
unicode = 1026;
},
{
glyphname = "Yat-cy";
kernLeft = Yatcyrillic;
kernRight = Hardsigncyrillic;
lastChange = "2020-07-28 04:52:46 +0000";
layers = (
{
layerId = "438E98ED-2DA7-4574-8792-8200075D96E5";
shapes = (
{
closed = 1;
nodes = (
(558,542,l),
(558,632,l),
(7,632,l),
(7,542,l)
);
},
{
pos = (157,0);
ref = "Softsign-cy";
}
);
width = 804;
}
);
unicode = 1122;
},
{
glyphname = "Yusbig-cy";
kernLeft = "Yusbig-cy";
kernRight = K;
lastChange = "2020-07-28 09:45:48 +0000";
layers = (
{
layerId = "438E98ED-2DA7-4574-8792-8200075D96E5";
shapes = (
{
closed = 1;
nodes = (
(1081,0,l),
(687,418,l),
(622,361,l),
(956,0,l)
);
},
{
closed = 1;
nodes = (
(168,0,l),
(502,361,l),
(437,418,l),
(43,0,l)
);
},
{
closed = 1;
nodes = (
(609,0,l),
(609,412,l),
(515,412,l),
(515,0,l)
);
},
{
closed = 1;
nodes = (
(709,341,l),
(709,394,l),
(687,418,l),
(437,418,l),
(415,394,l),
(415,341,l)
);
},
{
closed = 1;
nodes = (
(630,374,l),
(880,672,l),
(760,672,l),
(561,422,l),
(365,672,l),
(245,672,l),
(491,374,l)
);
},
{
closed = 1;
nodes = (
(880,672,l),
(880,752,l),
(245,752,l),
(245,672,l)
);
}
);
width = 1124;
}
);
metricLeft = "Zhe-cy";
metricRight = "Zhe-cy";
unicode = 1130;
},
{
glyphname = "De-cy.loclBGR";
kernLeft = "De-cyBGR";
kernRight = Decyrillic;
lastChange = "2020-07-28 05:27:13 +0000";
layers = (
{
layerId = "438E98ED-2DA7-4574-8792-8200075D96E5";
shapes = (
{
closed = 1;
nodes = (
(716,0,l),
(443,752,l),
(342,752,l),
(70,0,l),
(168,0,l),
(393,622,l),
(618,0,l)
);
},
{
closed = 1;
nodes = (
(751,0,l),
(751,90,l),
(35,90,l),
(35,0,l)
);
},
{
closed = 1;
nodes = (
(751,-130,l),
(751,0,l),
(666,0,l),
(666,-130,l)
);
},
{
closed = 1;
nodes = (
(120,-130,l),
(120,0,l),
(35,0,l),
(35,-130,l)
);
}
);
width = 786;
}
);
},
{
glyphname = "El-cy.loclBGR";
kernLeft = A;
kernRight = A;
lastChange = "2020-07-28 05:14:19 +0000";
layers = (
{
background = {
shapes = (
{
ref = A;
}
);
};
layerId = "438E98ED-2DA7-4574-8792-8200075D96E5";
shapes = (
{
closed = 1;
nodes = (
(669,0,l),
(396,752,l),
(295,752,l),
(23,0,l),
(121,0,l),
(346,622,l),
(571,0,l)
);
}
);
width = 692;
}
);
},
{
glyphname = "Ef-cy.loclBGR";
kernLeft = Efcyrillic;
kernRight = Efcyrillic;
lastChange = "2020-07-28 05:27:28 +0000";
layers = (
{
layerId = "438E98ED-2DA7-4574-8792-8200075D96E5";
shapes = (
{
closed = 1;
nodes = (
(613,63,o),
(783,150,o),
(783,383,cs),
(783,616,o),
(613,703,o),
(414,703,cs),
(215,703,o),
(45,616,o),
(45,383,cs),
(45,150,o),
(215,63,o),
(414,63,cs)
);
},
{
closed = 1;
nodes = (
(255,149,o),
(134,212,o),
(134,383,cs),
(134,553,o),
(246,617,o),
(414,617,cs),
(581,617,o),
(695,553,o),
(695,383,cs),
(695,212,o),
(581,149,o),
(414,149,cs)
);
},
{
closed = 1;
nodes = (
(461,-14,l),
(461,772,l),
(367,772,l),
(367,-14,l)
);
}
);
width = 828;
}
);
},
{
glyphname = "be-cy";
kernLeft = zero;
kernRight = six;
lastChange = "2020-07-28 09:56:31 +0000";
layers = (
{
layerId = "438E98ED-2DA7-4574-8792-8200075D96E5";
shapes = (
{
closed = 1;
nodes = (
(41,125,o),
(112,-14,o),
(313,-14,cs),
(515,-14,o),
(586,135,o),
(586,255,cs),
(586,375,o),
(515,524,o),
(313,524,cs),
(237,524,o),
(169,486,o),
(136,453,c),
(146,577,o),
(177,640,o),
(300,664,cs),
(319,668,o),
(363,672,o),
(389,674,cs),
(444,678,o),
(505,694,o),
(537,705,c),
(537,788,l),
(507,778,o),
(446,763,o),
(387,758,cs),
(364,756,o),
(309,750,o),
(291,748,cs),
(92,721,o),
(41,602,o),
(41,335,cs)
);
},
{
closed = 1;
nodes = (
(136,368,o),
(202,434,o),
(313,434,cs),
(424,434,o),
(491,368,o),
(491,255,cs),
(491,142,o),
(422,76,o),
(313,76,cs),
(204,76,o),
(136,142,o),
(136,255,cs)
);
}
);
width = 627;
}
);
unicode = 1073;
},
{
glyphname = "ve-cy";
kernLeft = m;
kernRight = vecyrillic;
lastChange = "2020-07-28 05:33:53 +0000";
layers = (
{
layerId = "438E98ED-2DA7-4574-8792-8200075D96E5";
shapes = (
{
closed = 1;
nodes = (
(336,0,ls),
(452,0,o),
(510,61,o),
(510,149,cs),
(510,231,o),
(448,262,o),
(415,262,c),
(431,262,o),
(498,283,o),
(498,367,cs),
(498,451,o),
(441,504,o),
(318,504,cs),
(78,504,l),
(78,0,l)
);
},
{
closed = 1;
nodes = (
(169,220,l),
(324,220,ls),
(384,220,o),
(417,209,o),
(417,149,cs),
(417,98,o),
(383,77,o),
(326,77,cs),
(169,77,l)
);
},
{
closed = 1;
nodes = (
(169,429,l),
(321,429,ls),
(373,429,o),
(406,418,o),
(406,363,cs),
(406,313,o),
(385,300,o),
(322,300,cs),
(169,300,l)
);
}
);
width = 564;
}
);
unicode = 1074;
},
{
glyphname = "ge-cy";
kernLeft = m;
kernRight = gecyrillic;
lastChange = "2020-07-28 05:54:33 +0000";
layers = (
{
anchors = (
{
name = bottomright;
pos = (493,0);
},
{
name = top;
pos = (257,504);
}
);
layerId = "438E98ED-2DA7-4574-8792-8200075D96E5";
shapes = (
{
closed = 1;
nodes = (
(169,0,l),
(169,424,l),
(473,424,l),
(473,504,l),
(78,504,l),
(78,0,l)
);
}
);
width = 513;
}
);
unicode = 1075;
},
{
glyphname = "gheupturn-cy";
kernLeft = m;
kernRight = gecyrillic;
lastChange = "2020-07-25 20:42:34 +0000";
layers = (
{
layerId = "438E98ED-2DA7-4574-8792-8200075D96E5";
shapes = (
{
closed = 1;
nodes = (
(169,0,l),
(169,424,l),
(473,424,l),
(473,504,l),
(78,504,l),
(78,0,l)
);
},
{
closed = 1;
nodes = (
(473,504,l),
(473,634,l),
(390,634,l),
(390,504,l)
);
}
);
width = 513;
}
);
unicode = 1169;
},
{
glyphname = "de-cy";
kernLeft = decyrillic;
kernRight = decyrillic;
lastChange = "2020-07-28 10:01:30 +0000";
layers = (
{
layerId = "438E98ED-2DA7-4574-8792-8200075D96E5";
shapes = (
{
closed = 1;
nodes = (
(539,0,l),
(539,504,l),
(222,504,l),
(222,424,l),
(448,424,l),
(448,0,l)
);
},
{
closed = 1;
nodes = (
(605,0,l),
(605,80,l),
(40,80,l),
(40,0,l)
);
},
{
closed = 1;
nodes = (
(170,80,l),
(188,87,o),
(216,127,o),
(228,185,cs),
(248,283,o),
(253,393,o),
(253,504,c),
(166,504,l),
(166,392,o),
(159,287,o),
(140,189,cs),
(129,131,o),
(84,80,o),
(51,80,c)
);
},
{
closed = 1;
nodes = (
(605,-130,l),
(605,0,l),
(522,0,l),
(522,-130,l)
);
},
{
closed = 1;
nodes = (
(123,-130,l),
(123,0,l),
(40,0,l),
(40,-130,l)
);
}
);
width = 657;
}
);
unicode = 1076;
},
{
glyphname = "zhe-cy";
kernLeft = zhecyrillic;
kernRight = k;
lastChange = "2020-07-28 10:13:46 +0000";
layers = (
{
anchors = (
{
name = bottomright;
pos = (883,0);
},
{
name = top;
pos = (452,504);
}
);
layerId = "438E98ED-2DA7-4574-8792-8200075D96E5";
shapes = (
{
closed = 1;
nodes = (
(430,245,l),
(185,504,l),
(64,504,l),
(327,236,l)
);
},
{
closed = 1;
nodes = (
(171,0,l),
(395,242,l),
(320,280,l),
(48,0,l)
);
},
{
closed = 1;
nodes = (
(496,0,l),
(496,504,l),
(407,504,l),
(407,0,l)
);
},
{
closed = 1;
nodes = (
(561,228,l),
(561,289,l),
(343,289,l),
(343,228,l)
);
},
{
closed = 1;
nodes = (
(855,0,l),
(583,280,l),
(508,242,l),
(732,0,l)
);
},
{
closed = 1;
nodes = (
(839,504,l),
(718,504,l),
(473,245,l),
(576,237,l)
);
}
);
width = 903;
}
);
metricRight = "ka-cy";
unicode = 1078;
},
{
glyphname = "ze-cy";
kernLeft = zecyrillic;
kernRight = vecyrillic;
lastChange = "2020-07-28 09:56:49 +0000";
layers = (
{
anchors = (
{
name = bottom;
pos = (249,0);
},
{
name = top;
pos = (249,504);
}
);
layerId = "438E98ED-2DA7-4574-8792-8200075D96E5";
shapes = (
{
closed = 1;
nodes = (
(400,-14,o),
(460,53,o),
(460,136,cs),
(460,196,o),
(436,237,o),
(384,267,c),
(422,292,o),
(444,327,o),
(444,377,cs),
(444,464,o),
(377,518,o),
(243,518,cs),
(120,518,o),
(33,466,o),
(33,379,c),
(119,379,l),
(119,420,o),
(167,444,o),
(243,444,cs),
(300,444,o),
(358,427,o),
(358,369,cs),
(358,318,o),
(290,300,o),
(239,300,cs),
(231,300,o),
(166,300,o),
(158,300,c),
(158,222,l),
(166,222,o),
(231,222,o),
(239,222,cs),
(317,222,o),
(371,200,o),
(371,142,cs),
(371,89,o),
(316,67,o),
(243,67,cs),
(162,67,o),
(118,91,o),
(114,130,c),
(25,130,l),
(28,55,o),
(98,-14,o),
(243,-14,cs)
);
}
);
width = 498;
}
);
unicode = 1079;
},
{
glyphname = "ii-cy";
kernLeft = m;
kernRight = u;
lastChange = "2020-07-28 07:59:29 +0000";
layers = (
{
anchors = (
{
name = bottomright;
pos = (646,0);
},
{
name = top;
pos = (333,504);
}
);
layerId = "438E98ED-2DA7-4574-8792-8200075D96E5";
shapes = (
{
closed = 1;
nodes = (
(588,0,l),
(588,504,l),
(497,504,l),
(497,0,l)
);
},
{
closed = 1;
nodes = (
(169,0,l),
(169,504,l),
(78,504,l),
(78,0,l)
);
},
{
closed = 1;
nodes = (
(169,0,l),
(497,375,l),
(497,504,l),
(169,129,l)
);
}
);
width = 666;
}
);
unicode = 1080;
},
{
glyphname = "ka-cy";
kernLeft = m;
kernRight = k;
lastChange = "2020-07-28 06:34:43 +0000";
layers = (
{
anchors = (
{
name = bottomright;
pos = (550,0);
},
{
name = top;
pos = (285,504);
}
);
layerId = "438E98ED-2DA7-4574-8792-8200075D96E5";
shapes = (
{
closed = 1;
nodes = (
(167,0,l),
(167,504,l),
(78,504,l),
(78,0,l)
);
},
{
closed = 1;
nodes = (
(245,222,l),
(245,298,l),
(84,298,l),
(84,222,l)
);
},
{
closed = 1;
nodes = (
(535,0,l),
(267,280,l),
(194,242,l),
(417,0,l)
);
},
{
closed = 1;
nodes = (
(519,504,l),
(402,504,l),
(155,245,l),
(260,237,l)
);
}
);
width = 583;
}
);
unicode = 1082;
},
{
glyphname = "el-cy";
kernLeft = elcyrillic;
kernRight = u;
lastChange = "2020-07-28 08:08:16 +0000";
layers = (
{
layerId = "438E98ED-2DA7-4574-8792-8200075D96E5";
shapes = (
{
closed = 1;
nodes = (
(544,0,l),
(544,504,l),
(227,504,l),
(227,424,l),
(453,424,l),
(453,0,l)
);
},
{
closed = 1;
nodes = (
(28,0,l),
(193,0,o),
(209,19,o),
(233,185,cs),
(247,284,o),
(258,393,o),
(258,504,c),
(172,504,l),
(172,392,o),
(165,287,o),
(146,189,cs),
(129,99,o),
(114,78,o),
(31,81,c)
);
}
);
width = 622;
}
);
unicode = 1083;
},
{
glyphname = "em-cy";
kernLeft = m;
kernRight = u;
lastChange = "2020-07-28 06:46:22 +0000";
layers = (
{
layerId = "438E98ED-2DA7-4574-8792-8200075D96E5";
shapes = (
{
closed = 1;
nodes = (
(169,0,l),
(169,356,l),
(359,65,l),
(420,65,l),
(603,356,l),
(603,0,l),
(694,0,l),
(694,504,l),
(603,504,l),
(389,161,l),
(169,504,l),
(78,504,l),
(78,0,l)
);
}
);
width = 772;
}
);
unicode = 1084;
},
{
glyphname = "en-cy";
kernLeft = m;
kernRight = u;
lastChange = "2020-07-28 08:09:52 +0000";
layers = (
{
anchors = (
{
name = bottomright;
pos = (615,0);
}
);
hints = (
{
horizontal = 1;
origin = (0,1);
target = (0,8);
type = Stem;
},
{
origin = (0,11);
target = (0,0);
type = Stem;
},
{
origin = (0,3);
target = (0,4);
type = Stem;
}
);
layerId = "438E98ED-2DA7-4574-8792-8200075D96E5";
shapes = (
{
closed = 1;
nodes = (
(169,0,l),
(169,223,l),
(466,223,l),
(466,0,l),
(557,0,l),
(557,504,l),
(466,504,l),
(466,308,l),
(169,308,l),
(169,504,l),
(78,504,l),
(78,0,l)
);
}
);
width = 635;
}
);
unicode = 1085;
},
{
glyphname = "pe-cy";
kernLeft = m;
kernRight = u;
lastChange = "2020-04-28 10:23:03 +0000";
layers = (
{
anchors = (
{
name = bottomright;
pos = (612,0);
}
);
layerId = "438E98ED-2DA7-4574-8792-8200075D96E5";
shapes = (
{
closed = 1;
nodes = (
(554,0,l),
(554,504,l),
(463,504,l),
(463,0,l)
);
},
{
closed = 1;
nodes = (
(169,0,l),
(169,504,l),
(78,504,l),
(78,0,l)
);
},
{
closed = 1;
nodes = (
(539,424,l),
(539,504,l),
(78,504,l),
(78,424,l)
);
}
);
width = 632;
}
);
unicode = 1087;
},
{
glyphname = "te-cy";
kernLeft = tecyrillic;
kernRight = tecyrillic;
lastChange = "2020-07-28 09:15:07 +0000";
layers = (
{
anchors = (
{
name = bottomright;
pos = (482,0);
}
);
layerId = "438E98ED-2DA7-4574-8792-8200075D96E5";
shapes = (
{
closed = 1;
nodes = (
(211,424,l),
(211,0,l),
(302,0,l),
(302,424,l),
(471,424,l),
(471,504,l),
(41,504,l),
(41,424,l)
);
}
);
width = 512;
}
);
unicode = 1090;
},
{
glyphname = "ef-cy";
kernLeft = c;
kernRight = b;
lastChange = "2020-07-28 08:01:11 +0000";
layers = (
{
layerId = "438E98ED-2DA7-4574-8792-8200075D96E5";
shapes = (
{
closed = 1;
nodes = (
(535,-14,o),
(626,115,o),
(626,255,cs),
(626,395,o),
(535,524,o),
(333,524,cs),
(132,524,o),
(41,395,o),
(41,255,cs),
(41,115,o),
(132,-14,o),
(333,-14,cs)
);
},
{
closed = 1;
nodes = (
(379,-278,l),
(379,754,l),
(288,754,l),
(288,-278,l)
);
},
{
closed = 1;
nodes = (
(214,76,o),
(136,139,o),
(136,255,cs),
(136,371,o),
(212,434,o),
(333,434,cs),
(454,434,o),
(531,371,o),
(531,255,cs),
(531,139,o),
(452,76,o),
(333,76,cs)
);
}
);
width = 667;
}
);
unicode = 1092;
},
{
glyphname = "che-cy";
kernLeft = checyrillic;
kernRight = u;
lastChange = "2020-07-28 08:05:09 +0000";
layers = (
{
anchors = (
{
name = bottomright;
pos = (538,0);
},
{
name = top;
pos = (287,504);
}
);
layerId = "438E98ED-2DA7-4574-8792-8200075D96E5";
shapes = (
{
closed = 1;
nodes = (
(389,504,l),
(389,314,ls),
(389,307,o),
(388,299,o),
(387,291,cs),
(382,253,o),
(309,229,o),
(252,229,cs),
(194,229,o),
(156,242,o),
(146,276,cs),
(143,286,o),
(142,302,o),
(142,313,cs),
(142,504,l),
(51,504,l),
(51,310,ls),
(51,206,o),
(129,139,o),
(240,139,cs),
(321,139,o),
(376,182,o),
(389,203,c),
(389,0,l),
(480,0,l),
(480,504,l)
);
}
);
width = 558;
}
);
unicode = 1095;
},
{
glyphname = "tse-cy";
kernLeft = m;
kernRight = decyrillic;
lastChange = "2020-07-28 07:26:02 +0000";
layers = (
{
layerId = "438E98ED-2DA7-4574-8792-8200075D96E5";
shapes = (
{
closed = 1;
nodes = (
(463,0,l),
(554,0,l),
(554,504,l),
(463,504,l)
);
},
{
closed = 1;
nodes = (
(78,0,l),
(169,0,l),
(169,504,l),
(78,504,l)
);
},
{
closed = 1;
nodes = (
(78,0,l),
(620,0,l),
(620,80,l),
(78,80,l)
);
},
{
closed = 1;
nodes = (
(620,-130,l),
(620,0,l),
(537,0,l),
(537,-130,l)
);
}
);
width = 672;
}
);
unicode = 1094;
},
{
glyphname = "sha-cy";
kernLeft = m;
kernRight = u;
lastChange = "2020-07-28 07:56:16 +0000";
layers = (
{
layerId = "438E98ED-2DA7-4574-8792-8200075D96E5";
shapes = (
{
closed = 1;
nodes = (
(742,0,l),
(833,0,l),
(833,504,l),
(742,504,l)
);
},
{
closed = 1;
nodes = (
(78,0,l),
(169,0,l),
(169,504,l),
(78,504,l)
);
},
{
closed = 1;
nodes = (
(92,0,l),
(778,0,l),
(778,80,l),
(92,80,l)
);
},
{
closed = 1;
nodes = (
(410,0,l),
(501,0,l),
(501,504,l),
(410,504,l)
);
}
);
width = 911;
}
);
unicode = 1096;
},
{
glyphname = "shcha-cy";
kernLeft = m;
kernRight = decyrillic;
lastChange = "2020-03-11 06:12:17 +0000";
layers = (
{
layerId = "438E98ED-2DA7-4574-8792-8200075D96E5";
shapes = (
{
closed = 1;
nodes = (
(742,0,l),
(833,0,l),
(833,504,l),
(742,504,l)
);
},
{
closed = 1;
nodes = (
(78,0,l),
(169,0,l),
(169,504,l),
(78,504,l)
);
},
{
closed = 1;
nodes = (
(92,0,l),
(899,0,l),
(899,80,l),
(92,80,l)
);
},
{
closed = 1;
nodes = (
(410,0,l),
(501,0,l),
(501,504,l),
(410,504,l)
);
},
{
closed = 1;
nodes = (
(899,-130,l),
(899,0,l),
(816,0,l),
(816,-130,l)
);
}
);
width = 977;
}
);
unicode = 1097;
},
{
glyphname = "dzhe-cy";
kernLeft = m;
kernRight = u;
lastChange = "2020-04-28 10:27:16 +0000";
layers = (
{
layerId = "438E98ED-2DA7-4574-8792-8200075D96E5";
shapes = (
{
closed = 1;
nodes = (
(554,0,l),
(554,504,l),
(463,504,l),
(463,80,l),
(169,80,l),
(169,504,l),
(78,504,l),
(78,0,l)
);
},
{
closed = 1;
nodes = (
(357,-130,l),
(357,0,l),
(274,0,l),
(274,-130,l)
);
}
);
width = 632;
}
);
unicode = 1119;
},
{
glyphname = "softsign-cy";
kernLeft = m;
kernRight = softsigncyrillic;
lastChange = "2020-07-28 08:01:44 +0000";
layers = (
{
background = {
shapes = (
{
closed = 1;
nodes = (
(296,0,ls),
(412,0,o),
(470,61,o),
(470,149,cs),
(470,231,o),
(408,262,o),
(375,262,c),
(391,262,o),
(458,283,o),
(458,367,cs),
(458,451,o),
(401,504,o),
(278,504,cs),
(78,504,l),
(78,0,l)
);
},
{
closed = 1;
nodes = (
(169,220,l),
(284,220,ls),
(344,220,o),
(377,209,o),
(377,149,cs),
(377,98,o),
(343,77,o),
(286,77,cs),
(169,77,l)
);
},
{
closed = 1;
nodes = (
(169,429,l),
(281,429,ls),
(333,429,o),
(366,415,o),
(366,363,cs),
(366,313,o),
(345,300,o),
(282,300,cs),
(169,300,l)
);
}
);
};
layerId = "438E98ED-2DA7-4574-8792-8200075D96E5";
shapes = (
{
closed = 1;
nodes = (
(316,0,ls),
(432,0,o),
(490,61,o),
(490,149,cs),
(490,222,o),
(449,300,o),
(302,300,cs),
(169,300,l),
(169,504,l),
(78,504,l),
(78,0,l)
);
},
{
closed = 1;
nodes = (
(169,220,l),
(304,220,ls),
(364,220,o),
(397,209,o),
(397,149,cs),
(397,94,o),
(363,77,o),
(306,77,cs),
(169,77,l)
);
}
);
width = 544;
}
);
unicode = 1100;
},
{
glyphname = "yeru-cy";
kernLeft = m;
kernRight = u;
lastChange = "2020-07-26 00:14:44 +0000";
layers = (
{
anchors = (
{
name = top;
pos = (366,504);
}
);
layerId = "438E98ED-2DA7-4574-8792-8200075D96E5";
shapes = (
{
closed = 1;
nodes = (
(316,0,ls),
(432,0,o),
(490,61,o),
(490,149,cs),
(490,222,o),
(449,300,o),
(302,300,cs),
(169,300,l),
(169,504,l),
(78,504,l),
(78,0,l)
);
},
{
closed = 1;
nodes = (
(169,220,l),
(304,220,ls),
(364,220,o),
(397,209,o),
(397,149,cs),
(397,94,o),
(363,77,o),
(306,77,cs),
(169,77,l)
);
},
{
closed = 1;
nodes = (
(653,0,l),
(653,504,l),
(562,504,l),
(562,0,l)
);
}
);
width = 731;
}
);
unicode = 1099;
},
{
glyphname = "hardsign-cy";
kernLeft = hardsigncyrillic;
kernRight = softsigncyrillic;
lastChange = "2020-07-28 08:05:54 +0000";
layers = (
{
layerId = "438E98ED-2DA7-4574-8792-8200075D96E5";
shapes = (
{
closed = 1;
nodes = (
(400,0,ls),
(516,0,o),
(574,61,o),
(574,149,cs),
(574,222,o),
(533,300,o),
(386,300,cs),
(253,300,l),
(253,504,l),
(162,504,l),
(162,0,l)
);
},
{
closed = 1;
nodes = (
(253,220,l),
(388,220,ls),
(448,220,o),
(481,209,o),
(481,149,cs),
(481,94,o),
(447,77,o),
(390,77,cs),
(253,77,l)
);
},
{
closed = 1;
nodes = (
(162,421,l),
(162,504,l),
(30,504,l),
(30,421,l)
);
}
);
width = 628;
}
);
unicode = 1098;
},
{
glyphname = "lje-cy";
kernLeft = elcyrillic;
kernRight = softsigncyrillic;
lastChange = "2020-07-28 08:07:03 +0000";
layers = (
{
layerId = "438E98ED-2DA7-4574-8792-8200075D96E5";
shapes = (
{
closed = 1;
nodes = (
(691,0,ls),
(807,0,o),
(865,61,o),
(865,149,cs),
(865,222,o),
(824,300,o),
(677,300,cs),
(544,300,l),
(544,504,l),
(453,504,l),
(453,0,l)
);
},
{
closed = 1;
nodes = (
(544,220,l),
(679,220,ls),
(739,220,o),
(772,209,o),
(772,149,cs),
(772,94,o),
(738,77,o),
(681,77,cs),
(544,77,l)
);
},
{
ref = "el-cy";
}
);
width = 919;
}
);
unicode = 1113;
},
{
glyphname = "nje-cy";
kernLeft = m;
kernRight = softsigncyrillic;
lastChange = "2020-07-28 08:09:12 +0000";
layers = (
{
layerId = "438E98ED-2DA7-4574-8792-8200075D96E5";
shapes = (
{
closed = 1;
nodes = (
(704,0,ls),
(820,0,o),
(878,61,o),
(878,149,cs),
(878,222,o),
(837,300,o),
(690,300,cs),
(557,300,l),
(557,504,l),
(466,504,l),
(466,0,l)
);
},
{
closed = 1;
nodes = (
(557,220,l),
(692,220,ls),
(752,220,o),
(785,209,o),
(785,149,cs),
(785,94,o),
(751,77,o),
(694,77,cs),
(557,77,l)
);
},
{
ref = "en-cy";
}
);
width = 932;
}
);
unicode = 1114;
},
{
glyphname = "e-cy";
kernLeft = c;
kernRight = ecyrillic;
lastChange = "2020-07-28 08:28:58 +0000";
layers = (
{
layerId = "438E98ED-2DA7-4574-8792-8200075D96E5";
shapes = (
{
closed = 1;
nodes = (
(415,224,l),
(415,309,l),
(138,309,l),
(138,224,l)
);
},
{
ref = c;
}
);
width = 560;
}
);
unicode = 1108;
},
{
glyphname = "ereversed-cy";
kernLeft = ereversedcyrillic;
kernRight = b;
lastChange = "2020-07-28 08:58:06 +0000";
layers = (
{
anchors = (
{
name = top;
pos = (280,504);
}
);
layerId = "438E98ED-2DA7-4574-8792-8200075D96E5";
shapes = (
{
closed = 1;
nodes = (
(422,224,l),
(422,309,l),
(145,309,l),
(145,224,l)
);
},
{
pos = (560,0);
ref = c;
scale = (-1,1);
}
);
width = 560;
}
);
unicode = 1101;
},
{
glyphname = "iu-cy";
kernLeft = m;
kernRight = b;
lastChange = "2020-07-28 08:46:33 +0000";
layers = (
{
anchors = (
{
name = top;
pos = (407,504);
}
);
layerId = "438E98ED-2DA7-4574-8792-8200075D96E5";
shapes = (
{
closed = 1;
nodes = (
(169,0,l),
(169,504,l),
(78,504,l),
(78,0,l)
);
},
{
closed = 1;
nodes = (
(317,224,l),
(317,309,l),
(90,309,l),
(90,224,l)
);
},
{
pos = (185,0);
ref = o;
}
);
width = 814;
}
);
unicode = 1102;
},
{
glyphname = "ia-cy";
kernLeft = iacyrillic;
kernRight = u;
lastChange = "2020-07-28 09:01:06 +0000";
layers = (
{
layerId = "438E98ED-2DA7-4574-8792-8200075D96E5";
shapes = (
{
closed = 1;
nodes = (
(472,0,l),
(472,504,l),
(247,504,ls),
(124,504,o),
(56,473,o),
(56,357,cs),
(56,240,o),
(133,206,o),
(247,206,cs),
(381,206,l),
(381,0,l)
);
},
{
closed = 1;
nodes = (
(132,0,l),
(138,11,o),
(143,28,o),
(148,49,cs),
(164,122,ls),
(182,202,o),
(230,206,o),
(270,206,c),
(219,271,l),
(148,271,o),
(93,207,o),
(73,125,cs),
(56,55,ls),
(50,29,o),
(41,13,o),
(33,0,c)
);
},
{
closed = 1;
nodes = (
(171,286,o),
(140,302,o),
(140,352,cs),
(140,408,o),
(164,424,o),
(240,424,cs),
(381,424,l),
(381,286,l),
(238,286,ls)
);
}
);
width = 550;
}
);
unicode = 1103;
},
{
glyphname = "dje-cy";
kernLeft = hbar;
kernRight = eng;
lastChange = "2020-07-28 08:50:35 +0000";
layers = (
{
layerId = "438E98ED-2DA7-4574-8792-8200075D96E5";
shapes = (
{
closed = 1;
nodes = (
(165,0,l),
(165,782,l),
(74,782,l),
(74,0,l)
);
},
{
closed = 1;
nodes = (
(300,644,l),
(300,718,l),
(4,718,l),
(4,644,l)
);
},
{
pos = (-4,0);
ref = eng;
}
);
width = 631;
}
);
unicode = 1106;
},
{
glyphname = "yat-cy";
kernLeft = yatcyrillic;
kernRight = softsigncyrillic;
lastChange = "2020-07-28 08:55:49 +0000";
layers = (
{
background = {
shapes = (
{
closed = 1;
nodes = (
(344,0,ls),
(460,0,o),
(518,61,o),
(518,149,cs),
(518,222,o),
(477,300,o),
(330,300,cs),
(197,300,l),
(197,504,l),
(106,504,l),
(106,0,l)
);
},
{
closed = 1;
nodes = (
(197,220,l),
(332,220,ls),
(392,220,o),
(425,209,o),
(425,149,cs),
(425,94,o),
(391,77,o),
(334,77,cs),
(197,77,l)
);
}
);
};
layerId = "438E98ED-2DA7-4574-8792-8200075D96E5";
shapes = (
{
closed = 1;
nodes = (
(344,0,ls),
(460,0,o),
(518,61,o),
(518,149,cs),
(518,222,o),
(477,300,o),
(330,300,cs),
(197,300,l),
(197,782,l),
(106,782,l),
(106,0,l)
);
},
{
closed = 1;
nodes = (
(197,220,l),
(332,220,ls),
(392,220,o),
(425,209,o),
(425,149,cs),
(425,94,o),
(391,77,o),
(334,77,cs),
(197,77,l)
);
},
{
closed = 1;
nodes = (
(4,524,l),
(300,524,l),
(300,598,l),
(4,598,l)
);
}
);
width = 552;
}
);
unicode = 1123;
},
{
glyphname = "yusbig-cy";
kernLeft = "yusbig-cy";
kernRight = zhecyrillic;
lastChange = "2020-07-28 10:15:24 +0000";
layers = (
{
layerId = "438E98ED-2DA7-4574-8792-8200075D96E5";
shapes = (
{
closed = 1;
nodes = (
(170,0,l),
(395,242,l),
(332,289,l),
(48,0,l)
);
},
{
closed = 1;
nodes = (
(496,0,l),
(496,289,l),
(407,289,l),
(407,0,l)
);
},
{
closed = 1;
nodes = (
(574,228,l),
(574,289,l),
(332,289,l),
(332,228,l)
);
},
{
closed = 1;
nodes = (
(855,0,l),
(574,289,l),
(508,242,l),
(733,0,l)
);
},
{
closed = 1;
nodes = (
(691,437,l),
(691,504,l),
(213,504,l),
(213,437,l)
);
},
{
closed = 1;
nodes = (
(514,245,l),
(691,437,l),
(591,437,l),
(450,289,l),
(313,437,l),
(213,437,l),
(395,245,l)
);
}
);
width = 903;
}
);
unicode = 1131;
},
{
glyphname = "ve-cy.loclBGR";
kernLeft = "ve-cyBGR";
kernRight = three;
lastChange = "2021-06-11 13:35:24 +0000";
layers = (
{
layerId = "438E98ED-2DA7-4574-8792-8200075D96E5";
shapes = (
{
closed = 1;
nodes = (
(162,180,l),
(162,570,ls),
(162,676,o),
(237,712,o),
(315,712,cs),
(396,712,o),
(449,677,o),
(449,586,cs),
(449,484,o),
(422,468,o),
(253,450,cs),
(220,446,o),
(179,428,o),
(162,411,c),
(162,238,l),
(162,349,o),
(241,368,o),
(320,368,cs),
(401,368,o),
(470,355,o),
(470,207,cs),
(470,117,o),
(431,77,o),
(308,77,cs),
(219,77,o),
(162,108,o),
(162,212,c),
(65,180,l),
(65,0,o),
(259,-14,o),
(317,-14,cs),
(495,-14,o),
(563,75,o),
(563,207,cs),
(563,295,o),
(525,396,o),
(421,416,c),
(510,433,o),
(540,492,o),
(540,586,cs),
(540,714,o),
(465,796,o),
(311,796,cs),
(158,796,o),
(65,708,o),
(65,570,cs),
(65,180,l)
);
}
);
width = 605;
}
);
},
{
glyphname = "ge-cy.loclBGR";
kernLeft = "ge-cyBGR";
kernRight = "ge-cyBGR";
lastChange = "2021-06-11 12:17:46 +0000";
layers = (
{
anchors = (
{
name = bottom;
pos = (266,-11);
},
{
name = top;
pos = (284,504);
}
);
layerId = "438E98ED-2DA7-4574-8792-8200075D96E5";
shapes = (
{
closed = 1;
nodes = (
(451,-14,o),
(525,85,o),
(525,157,c),
(430,157,l),
(419,107,o),
(361,76,o),
(284,76,cs),
(192,76,o),
(149,95,o),
(149,152,cs),
(149,188,o),
(173,201,o),
(238,210,cs),
(356,227,ls),
(434,238,o),
(510,275,o),
(510,372,cs),
(510,478,o),
(424,524,o),
(293,524,cs),
(127,524,o),
(62,440,o),
(59,376,c),
(152,376,l),
(166,412,o),
(219,437,o),
(283,437,cs),
(349,437,o),
(415,428,o),
(415,372,cs),
(415,339,o),
(398,326,o),
(336,317,cs),
(213,299,ls),
(125,286,o),
(53,245,o),
(53,160,cs),
(53,40,o),
(137,-14,o),
(268,-14,c)
);
}
);
width = 569;
}
);
},
{
glyphname = "de-cy.loclBGR";
kernLeft = g;
kernRight = g;
lastChange = "2020-07-28 09:09:50 +0000";
layers = (
{
hints = (
{
horizontal = 1;
origin = (0,21);
target = (0,28);
type = Stem;
},
{
horizontal = 1;
origin = (1,13);
target = (0,14);
type = Stem;
},
{
horizontal = 1;
origin = (0,8);
target = (1,5);
type = Stem;
},
{
horizontal = 1;
origin = (1,5);
target = (0,4);
type = Stem;
},
{
origin = (0,11);
target = (1,2);
type = Stem;
},
{
origin = (0,18);
target = (0,2);
type = Stem;
}
);
layerId = "438E98ED-2DA7-4574-8792-8200075D96E5";
shapes = (
{
closed = 1;
nodes = (
(459,-290,o),
(567,-253,o),
(567,-74,cs),
(567,497,l),
(476,497,l),
(476,444,l),
(447,483,o),
(384,524,o),
(311,524,cs),
(122,524,o),
(54,383,o),
(54,251,cs),
(54,119,o),
(122,-14,o),
(311,-14,c),
(384,-14,o),
(447,19,o),
(476,58,c),
(476,-77,ls),
(476,-175,o),
(440,-206,o),
(334,-206,cs),
(213,-206,o),
(176,-145,o),
(166,-86,c),
(76,-86,l),
(84,-155,o),
(118,-294,o),
(350,-294,c)
);
},
{
closed = 1;
nodes = (
(221,76,o),
(150,151,o),
(150,251,cs),
(150,361,o),
(220,434,o),
(311,434,cs),
(312,434,ls),
(407,434,o),
(473,371,o),
(476,251,c),
(473,147,o),
(410,76,o),
(312,76,cs),
(311,76,ls)
);
}
);
width = 641;
}
);
},
{
glyphname = "zhe-cy.loclBGR";
kernLeft = zhecyrillic;
kernRight = k;
lastChange = "2020-07-28 09:50:55 +0000";
layers = (
{
layerId = "438E98ED-2DA7-4574-8792-8200075D96E5";
shapes = (
{
closed = 1;
nodes = (
(430,245,l),
(185,504,l),
(64,504,l),
(327,236,l)
);
},
{
closed = 1;
nodes = (
(171,0,l),
(395,242,l),
(320,280,l),
(48,0,l)
);
},
{
closed = 1;
nodes = (
(496,0,l),
(496,782,l),
(407,782,l),
(407,0,l)
);
},
{
closed = 1;
nodes = (
(561,228,l),
(561,289,l),
(343,289,l),
(343,228,l)
);
},
{
closed = 1;
nodes = (
(855,0,l),
(583,280,l),
(508,242,l),
(732,0,l)
);
},
{
closed = 1;
nodes = (
(839,504,l),
(718,504,l),
(473,245,l),
(576,237,l)
);
}
);
width = 903;
}
);
},
{
glyphname = "ze-cy.loclBGR";
kernLeft = "ze-cyBGR";
kernRight = "ze-cyBGR";
lastChange = "2021-06-11 13:35:20 +0000";
layers = (
{
layerId = "438E98ED-2DA7-4574-8792-8200075D96E5";
shapes = (
{
closed = 1;
nodes = (
(457,-294,o),
(531,-195,o),
(531,-73,cs),
(531,15,o),
(495,94,o),
(418,139,c),
(475,175,o),
(508,240,o),
(508,314,cs),
(508,442,o),
(423,524,o),
(269,524,cs),
(115,524,o),
(30,432,o),
(30,314,c),
(119,314,l),
(119,403,o),
(184,443,o),
(269,443,cs),
(354,443,o),
(419,403,o),
(419,314,cs),
(419,225,o),
(360,176,o),
(270,176,cs),
(258,176,o),
(192,176,o),
(179,176,c),
(179,88,l),
(192,88,o),
(258,88,o),
(270,88,cs),
(370,88,o),
(436,28,o),
(436,-73,cs),
(436,-174,o),
(362,-204,o),
(269,-204,cs),
(180,-204,o),
(117,-172,o),
(112,-86,c),
(17,-86,l),
(21,-198,o),
(85,-294,o),
(269,-294,cs)
);
}
);
width = 565;
}
);
},
{
glyphname = "ka-cy.loclBGR";
kernLeft = b;
kernRight = k;
lastChange = "2020-07-28 09:19:29 +0000";
layers = (
{
layerId = "438E98ED-2DA7-4574-8792-8200075D96E5";
shapes = (
{
closed = 1;
nodes = (
(167,0,l),
(167,782,l),
(78,782,l),
(78,0,l)
);
},
{
closed = 1;
nodes = (
(232,228,l),
(232,289,l),
(84,289,l),
(84,228,l)
);
},
{
closed = 1;
nodes = (
(522,0,l),
(254,280,l),
(179,242,l),
(404,0,l)
);
},
{
closed = 1;
nodes = (
(506,504,l),
(389,504,l),
(144,245,l),
(247,237,l)
);
}
);
width = 570;
}
);
},
{
glyphname = "el-cy.loclBGR";
kernLeft = "el-cyBGR";
kernRight = "el-cyBGR";
lastChange = "2020-07-28 10:02:31 +0000";
layers = (
{
layerId = "438E98ED-2DA7-4574-8792-8200075D96E5";
shapes = (
{
closed = 1;
nodes = (
(540,0,l),
(337,504,l),
(235,504,l),
(27,0,l),
(125,0,l),
(286,398,l),
(447,0,l)
);
}
);
width = 567;
}
);
},
{
glyphname = "tse-cy.loclBGR";
kernLeft = u;
kernRight = decyrillic;
lastChange = "2020-07-28 09:48:45 +0000";
layers = (
{
layerId = "438E98ED-2DA7-4574-8792-8200075D96E5";
shapes = (
{
closed = 1;
nodes = (
(622,-130,l),
(622,80,l),
(539,80,l),
(539,-130,l)
);
},
{
ref = u;
}
);
width = 674;
}
);
},
{
glyphname = "shcha-cy.loclBGR";
kernLeft = u;
kernRight = decyrillic;
lastChange = "2020-03-11 06:14:00 +0000";
layers = (
{
layerId = "438E98ED-2DA7-4574-8792-8200075D96E5";
shapes = (
{
closed = 1;
nodes = (
(901,-130,l),
(901,80,l),
(818,80,l),
(818,-130,l)
);
},
{
angle = 180;
pos = (913,504);
ref = m;
}
);
width = 953;
}
);
},
{
glyphname = "softsign-cy.loclBGR";
kernLeft = m;
kernRight = "softsign-cyBGR";
lastChange = "2020-07-28 06:34:58 +0000";
layers = (
{
layerId = "438E98ED-2DA7-4574-8792-8200075D96E5";
shapes = (
{
closed = 1;
nodes = (
(169,0,l),
(169,504,l),
(78,504,l),
(78,0,l)
);
},
{
closed = 1;
nodes = (
(425,-21,o),
(479,76,o),
(479,167,cs),
(479,257,o),
(425,354,o),
(280,347,cs),
(135,340,o),
(117,197,o),
(117,167,cs),
(117,136,o),
(135,-7,o),
(280,-14,cs)
);
},
{
closed = 1;
nodes = (
(208,66,o),
(171,103,o),
(171,167,cs),
(171,230,o),
(207,267,o),
(280,267,cs),
(347,267,o),
(391,245,o),
(391,167,cs),
(391,88,o),
(346,66,o),
(280,66,cs)
);
}
);
width = 538;
}
);
metricLeft = n;
},
{
glyphname = "hardsign-cy.loclBGR";
kernLeft = hardsigncyrillic;
kernRight = "softsign-cyBGR";
lastChange = "2020-07-28 10:02:37 +0000";
layers = (
{
layerId = "438E98ED-2DA7-4574-8792-8200075D96E5";
shapes = (
{
closed = 1;
nodes = (
(162,421,l),
(162,504,l),
(30,504,l),
(30,421,l)
);
},
{
pos = (84,0);
ref = "softsign-cy.loclBGR";
}
);
width = 622;
}
);
},
{
glyphname = "yu-cy.loclBGR";
lastChange = "2021-06-12 13:41:58 +0000";
layers = (
{
layerId = "438E98ED-2DA7-4574-8792-8200075D96E5";
shapes = (
{
closed = 1;
nodes = (
(169,0,l),
(169,782,l),
(78,782,l),
(78,0,l)
);
},
{
closed = 1;
nodes = (
(317,224,l),
(317,309,l),
(90,309,l),
(90,224,l)
);
},
{
pos = (185,0);
ref = o;
}
);
width = 814;
}
);
},
{
glyphname = "be-cy.loclSRB";
kernLeft = "be-cySRB";
kernRight = six;
lastChange = "2020-07-28 10:14:39 +0000";
layers = (
{
hints = (
{
horizontal = 1;
origin = (2,11);
target = (1,14);
type = Stem;
},
{
horizontal = 1;
origin = (1,5);
target = (2,5);
type = Stem;
},
{
origin = (1,11);
target = (2,2);
type = Stem;
},
{
origin = (2,8);
target = (1,2);
type = Stem;
}
);
layerId = "438E98ED-2DA7-4574-8792-8200075D96E5";
shapes = (
{
closed = 1;
nodes = (
(311,524,l),
(227,524,o),
(172,546,o),
(172,604,cs),
(172,650,o),
(209,667,o),
(300,670,cs),
(319,671,o),
(363,672,o),
(389,674,cs),
(444,678,o),
(505,694,o),
(537,705,c),
(537,788,l),
(507,778,o),
(446,763,o),
(387,758,cs),
(364,756,o),
(309,754,o),
(291,754,cs),
(154,752,o),
(75,702,o),
(75,603,cs),
(75,504,o),
(169,448,o),
(315,444,c)
);
},
{
closed = 1;
nodes = (
(515,-14,o),
(586,135,o),
(586,255,cs),
(586,375,o),
(515,524,o),
(313,524,cs),
(252,524,o),
(212,510,o),
(174,487,cs),
(85,436,o),
(41,338,o),
(41,255,cs),
(41,135,o),
(112,-14,o),
(313,-14,cs)
);
},
{
closed = 1;
nodes = (
(204,76,o),
(136,142,o),
(136,255,cs),
(136,368,o),
(202,434,o),
(313,434,cs),
(424,434,o),
(491,368,o),
(491,255,cs),
(491,142,o),
(422,76,o),
(313,76,cs)
);
}
);
width = 627;
}
);
},
{
glyphname = "Be-cy.sc";
kernLeft = H.sc;
kernRight = "Be-cy.sc";
lastChange = "2021-06-15 03:18:30 +0000";
layers = (
{
layerId = "438E98ED-2DA7-4574-8792-8200075D96E5";
shapes = (
{
closed = 1;
nodes = (
(327,0,ls),
(427,0,o),
(513,40,o),
(513,162,cs),
(513,312,o),
(434,342,o),
(327,342,c),
(189,342,l),
(189,484,l),
(454,484,l),
(454,575,l),
(95,575,l),
(95,0,l)
);
},
{
closed = 1;
nodes = (
(189,252,l),
(315,252,ls),
(382,252,o),
(422,249,o),
(422,168,cs),
(422,95,o),
(381,90,o),
(317,90,cs),
(189,90,l)
);
}
);
width = 577;
}
);
metricLeft = H.sc;
metricRight = B.sc;
},
{
glyphname = "Ge-cy.sc";
kernLeft = H.sc;
kernRight = "Ge-cy.sc";
lastChange = "2021-06-15 04:09:59 +0000";
layers = (
{
anchors = (
{
name = bottomright;
pos = (525,0);
},
{
name = top;
pos = (273,575);
}
);
layerId = "438E98ED-2DA7-4574-8792-8200075D96E5";
shapes = (
{
closed = 1;
nodes = (
(189,0,l),
(189,484,l),
(470,484,l),
(470,575,l),
(95,575,l),
(95,0,l)
);
}
);
width = 545;
}
);
metricLeft = H.sc;
},
{
glyphname = "Gheupturn-cy.sc";
kernLeft = H.sc;
kernRight = "Ge-cy.sc";
lastChange = "2021-06-12 13:06:47 +0000";
layers = (
{
layerId = "438E98ED-2DA7-4574-8792-8200075D96E5";
shapes = (
{
closed = 1;
nodes = (
(172,0,l),
(172,484,l),
(443,484,l),
(443,575,l),
(78,575,l),
(78,0,l)
);
},
{
closed = 1;
nodes = (
(443,575,l),
(443,705,l),
(358,705,l),
(358,575,l)
);
}
);
width = 483;
}
);
metricLeft = "Ge-cy";
metricRight = "Ge-cy";
},
